<svg width="15" height="15" viewBox="0 0 15 15" fill="none" xmlns="http://www.w3.org/2000/svg">
<path d="M11.4682 4.73343V3.0509C11.4682 2.90215 11.4091 2.7595 11.3039 2.65432C11.1987 2.54914 11.0561 2.49005 10.9073 2.49005H3.61632C3.31883 2.49005 3.03352 2.60823 2.82316 2.81859C2.61281 3.02894 2.49463 3.31425 2.49463 3.61174C2.49463 3.90923 2.61281 4.19454 2.82316 4.4049C3.03352 4.61525 3.31883 4.73343 3.61632 4.73343H12.029C12.1777 4.73343 12.3204 4.79252 12.4256 4.8977C12.5308 5.00288 12.5898 5.14553 12.5898 5.29428V7.53766M12.5898 7.53766H10.9073C10.6098 7.53766 10.3245 7.65584 10.1142 7.86619C9.9038 8.07655 9.78562 8.36186 9.78562 8.65935C9.78562 8.95684 9.9038 9.24215 10.1142 9.4525C10.3245 9.66286 10.6098 9.78104 10.9073 9.78104H12.5898C12.7386 9.78104 12.8812 9.72195 12.9864 9.61677C13.0916 9.51159 13.1507 9.36894 13.1507 9.2202V8.0985C13.1507 7.94976 13.0916 7.80711 12.9864 7.70193C12.8812 7.59675 12.7386 7.53766 12.5898 7.53766Z" stroke="#4D4D4D" stroke-width="1.12169" stroke-linecap="round" stroke-linejoin="round"/>
<path d="M2.49463 3.61105V11.4629C2.49463 11.7604 2.61281 12.0457 2.82316 12.256C3.03352 12.4664 3.31883 12.5846 3.61632 12.5846H12.029C12.1777 12.5846 12.3204 12.5255 12.4256 12.4203C12.5308 12.3151 12.5898 12.1725 12.5898 12.0237V9.78035" stroke="#4D4D4D" stroke-width="1.12169" stroke-linecap="round" stroke-linejoin="round"/>
</svg>
