<svg width="20" height="20" viewBox="0 0 20 20" fill="none" xmlns="http://www.w3.org/2000/svg">
<path d="M11.1299 3.18031C11.4168 3.1803 11.6984 3.2579 11.9447 3.40489C12.1911 3.55187 12.3931 3.76277 12.5294 4.01523L12.9159 4.73088C13.0521 4.98334 13.2542 5.19423 13.5005 5.34122C13.7469 5.4882 14.0285 5.56581 14.3154 5.5658H15.9033C16.3251 5.5658 16.7296 5.73335 17.0278 6.0316C17.3261 6.32984 17.4936 6.73435 17.4936 7.15613V14.3126C17.4936 14.7344 17.3261 15.1389 17.0278 15.4372C16.7296 15.7354 16.3251 15.903 15.9033 15.903H3.18066C2.75888 15.903 2.35437 15.7354 2.05613 15.4372C1.75788 15.1389 1.59033 14.7344 1.59033 14.3126V7.15613C1.59033 6.73435 1.75788 6.32984 2.05613 6.0316C2.35437 5.73335 2.75888 5.5658 3.18066 5.5658H4.76861C5.0552 5.56582 5.33647 5.48839 5.58268 5.3417C5.82889 5.19501 6.03088 4.98451 6.1673 4.73247L6.55614 4.01364C6.69256 3.76159 6.89455 3.5511 7.14076 3.40441C7.38697 3.25772 7.66824 3.18029 7.95484 3.18031H11.1299Z" stroke="#003712" stroke-width="1.59033" stroke-linecap="round" stroke-linejoin="round"/>
<path d="M9.54175 12.7223C10.8592 12.7223 11.9272 11.6543 11.9272 10.3368C11.9272 9.01932 10.8592 7.9513 9.54175 7.9513C8.22427 7.9513 7.15625 9.01932 7.15625 10.3368C7.15625 11.6543 8.22427 12.7223 9.54175 12.7223Z" stroke="#003712" stroke-width="1.59033" stroke-linecap="round" stroke-linejoin="round"/>
</svg>
