<svg width="15" height="14" viewBox="0 0 15 14" fill="none" xmlns="http://www.w3.org/2000/svg">
<path d="M6.42082 8.72736V9.63929C6.4187 9.83145 6.36725 10.0198 6.2714 10.1864C6.17555 10.353 6.03851 10.4921 5.87343 10.5905C5.52298 10.8501 5.2379 11.1878 5.04085 11.5768C4.84379 11.9659 4.74019 12.3955 4.73828 12.8316" stroke="#4D4D4D" stroke-width="1.12169" stroke-linecap="round" stroke-linejoin="round"/>
<path d="M8.66357 8.72736V9.63929C8.66569 9.83145 8.71714 10.0198 8.81299 10.1864C8.90884 10.353 9.04588 10.4921 9.21096 10.5905C9.56141 10.8501 9.84649 11.1878 10.0435 11.5768C10.2406 11.9659 10.3442 12.3955 10.3461 12.8316" stroke="#4D4D4D" stroke-width="1.12169" stroke-linecap="round" stroke-linejoin="round"/>
<path d="M10.9072 5.55294H11.7485C12.1204 5.55294 12.477 5.40522 12.7399 5.14228C13.0029 4.87933 13.1506 4.5227 13.1506 4.15083C13.1506 3.77897 13.0029 3.42233 12.7399 3.15939C12.477 2.89644 12.1204 2.74872 11.7485 2.74872H10.9072" stroke="#4D4D4D" stroke-width="1.12169" stroke-linecap="round" stroke-linejoin="round"/>
<path d="M3.05566 12.8442H12.0292" stroke="#4D4D4D" stroke-width="1.12169" stroke-linecap="round" stroke-linejoin="round"/>
<path d="M4.17725 5.55363C4.17725 6.44611 4.53178 7.30202 5.16285 7.9331C5.79393 8.56417 6.64985 8.91871 7.54232 8.91871C8.43479 8.91871 9.29071 8.56417 9.92178 7.9331C10.5529 7.30202 10.9074 6.44611 10.9074 5.55363V2.18856C10.9074 2.03982 10.8483 1.89716 10.7431 1.79198C10.6379 1.6868 10.4953 1.62772 10.3465 1.62772H4.73809C4.58935 1.62772 4.44669 1.6868 4.34151 1.79198C4.23634 1.89716 4.17725 2.03982 4.17725 2.18856V5.55363Z" stroke="#4D4D4D" stroke-width="1.12169" stroke-linecap="round" stroke-linejoin="round"/>
<path d="M4.17698 5.55294H3.33571C2.96384 5.55294 2.60721 5.40522 2.34426 5.14228C2.08132 4.87933 1.93359 4.5227 1.93359 4.15083C1.93359 3.77897 2.08132 3.42233 2.34426 3.15939C2.60721 2.89644 2.96384 2.74872 3.33571 2.74872H4.17698" stroke="#4D4D4D" stroke-width="1.12169" stroke-linecap="round" stroke-linejoin="round"/>
</svg>
