<svg xmlns="http://www.w3.org/2000/svg" fill="none" viewBox="0 0 259 39"><path fill="#2c8c3e" d="M232 0v1h2-1 1v1h1V1v1l1-1v1-1h1q0 1 0 0v1h1V1l1 1V1h1v1-1 1q1 0 0 0h1V0v1h1v1h1V1v1q1 0 0 0h1V0v2h3q-1 0 0 0 0-1 0 0h1v1h2V2h1V1v1l-1 1h1V2h1q0 1 0 0l1-1v3q0 1 0 0 1 0 0 0l1-1v2q0-1 0 0h1V4v1l-1 1 2-1h1-1l1 1h-1v1h-1l1 1h-1v1q0 1 0 0v2h1v-1h1v2h-1q1 0 0 0h1q1 0 0 0v1h1v1h1-1v1h-1 1-1v1h1q1 0 0 0h1-1l-2 1v1l1-1v1-1h2-1v1h-2v1h-1 1v1h-1 1v1-1l1-1v1l-1 1v1h1-1 1v1h-2 1-1 1v1l1 1h-1 1v1h-1v1h-1v1h1v1q-1 0 0 0h-1 1l-1 1h1-1v1h1v1l-1-1h-1l1 1q1 0 0 0v1h-2 1-1v2h-1l-1 1v-1 1-1l-1 1v-1 1h-1v-1 2h-1v-1h-2v1-1h-1v1-1h-2v1h-1l-1-1v1-1l-1 1v-1l-1 1v-1 1q0-1 0 0h-1v-1 1q1 1 0 0l-1-1v1h-1v-1l-1 1v1-1l-1 1q0 1 0 0v-1h-1v-1 2h-1v-2 1h-1v-1 1l-1-1v1h-1q-1 0 0 0v-1h-1v1h-1v-1h-1v1h-1l-1-1v1l-1-1v1-1l-1 1v-1 1q0-1 0 0h-1v-1 1q0 1 0 0l-1-1v1h-1v-1l-1 1v1l-1-1v1q0 1 0 0-1 0 0 0v-1h-1l-1 1v-2h-1l-1 1v-1 1h-1q0-1 0 0h-1v-1 1h-1v-1 1-1h-1v2-2l-1 1v-1 2-1h-1v-1 1h-1v1h-1l1-1q0-1 0 0h-1v-1q0 1 0 0v1h-1q0-1 0 0h-1l-1 1 1-1h-1 1-2v-1 1l-1-1v1h-1v-1 1q-1 0 0 0l-1 1v-1l-1 1v-1 1h-1v-2q0 1 0 0v1h-1v1-2 1h-1v-1 1-1h-1v1h1-1l-1-1h-1v1h-1v-1 1h-1v-1 1-1l-1 1v-1q0 1 0 0l-1 1h-1v-1l-1 1v-1 1l-1-1v1-1 1h-1v-1 1h-1v-1 1h-1l-1-1v1h-1q1 0 0 0l1 1-1-1v1h-1q0 1 0 0v-2h-1v2l-1-1v-1 1h-1v-1l-1 1q-1 0 0 0h-1v-1 1h-1v-1l-1 1v-1l-1 1v1h-1v-2 1-1 1h-1v1-2h-1v1q0 1 0 0l-1 1v-1q1 0 0 0v-1 1h-3q1 0 0 0 0 1 0 0v1-1h-1l-1-1v1-1l-1 1v1-2l-1 1v1-1l-1 1v-1 1-1q-1 0 0 0h-1v1-2 1h-1v1h-1 1v-2h-1v1-1h-1v1-1q-1 0 0 0v1h-1v-1h-2v1-1h-1v1q0 1 0 0v-1l-1 1v-1 1-1h-1v1h-1l-1-1v1-1l-1 1v-1l-1 1v-1 1q0-1 0 0h-1v-1 1q0 1 0 0l-1-1v1h-1v-1l-1 1v1-1l-1 1q0 1 0 0v-1h-1v-1 1l-1 1q1 0 0 0v-1l-1-1v1-1 1l-1-1v1h-1v-1h-1v1h-1l1-1h-2v1h-1v-1 1-1l-1 1q-1 0 0 0h-1v1-2l-1 1v-1 2-1h-1v-1 1h-1v1-1 1q-1 0 0 0v-1h-1v-1 1h-1q0 1 0 0h-1v1q-1 0 0 0v-1h-2q0 1 0 0v-1 1h-1v-1 1l-1 1v-1q1 0 0 0v-1 1q0 1 0 0v1h-1v-1 1-1l-1 1v-1 2-1h-1v-2 1h-1v1-2 1h-1v-1 1-1h-1v1l-1-1q0-1 0 0v1h1-2v-1h-1v1h-1v-1 1h-1v-1 1h-1v-1l-1 1h-1v-1l-1 1q0-1 0 0h-1v-1 1h-1q-1 0 0 0h-1v-1 1h-2q0-1 0 0h-1 1v1l-1-1v1l-1 1v-2h-1v1-1h-1v-1 1h-1 1-1l-1 1v-1h-1v-1 1h-1v-1 1h-1v-1l-1 1q0-1 0 0h-1v1h-1v-2 1-1 1h-1v1-2l-1 1v1-1l-1 1v-1q1 0 0 0v-1 1h-1v1l-1-1v1h-1v-1h-1v1-2l-1 1v-1 2h-1v-1q0-1 0 0v1l-1-1v1-1l-1 1q1-1 0 0v-1h-1v2-3 1h-1v1-2l-1 1h1-1q1 0 0 0v-1 1l-1-1q0 1 0 0h-1v1-1q0-1 0 0v2l-1-1-1-1v1l-1-1v1h-1q0 1 0 0h-3q1 0 0 0h-1v-1 1h-2v-1 1h-1 1-1l-1-1v1h-2v1l-1 1v-1 1-2h-1v1h-1v-1h-2l-1 1v-2 1h-2l1-1h-1v1-1l-1 1h-2v1-2l-1 1v-1 2-1h-1q1 0 0 0v-1 2h-1v-1h-1q0-1 0 0 1 0 0 0l-1 1v-1h-1v1-1h-1q0 1 0 0h-1v1-2 1h-1v-1 2-1q-1 0 0 0h-1v1h-1v-1 1h-1v-1q0 1 0 0v2-1h-1v-1q0-1 0 0l-1 1h1-1l1-1-1-1v1h-1v-1 1-1h-1v1l1 1-1-1h-1v-1l-1 1v-1 1h-1q1 0 0 0 0 1 0 0h-4q0-1 0 0h-1q0-1 0 0h-1v-1 1h-1q1 0 0 0v1l-1-1v-1 1h-2v1h-1v1-1l-1 1v-1l1-1h-1q0 1 0 0-1 1 0 0 0-1 0 0l-1 1v-1l-1-1v1h-1l-1 1v-1H9v-1 1H8v-1H7q1 0 0 0v-1H6l1-1H6v-1l-1 1v-1 1l-1-1v1-1h1v-1H4v1-1l-1 1v-1l-1 1 2-2H1h1v-1h1-1q-1 0 0 0h1l-1-1-1-1h1v1l1-1H1q0 1 0 0h1v-1h1q0 1 0 0v-1H2l-1-1h1v-1q-1 0 0 0H1l-1-1h2v-1H1l1-1v-2q0-1 0 0-1 0 0 0v-2H1h1-1l1-1H1q0 1 0 0v-1h1v-1q1 0 0 0H1l1-1H1h1v-1h1v-1H2h1l-1-1 1-1H2h1V8h1-1V7h1V6l1 1V6h1Q5 7 6 6L5 5h1v1-1h1V4H6h1q0-1 0 0h2V3q0 1 0 0 0 1 0 0h1V2v1-1h1v1-2 1h1v1-2l1-1v2q0-1 0 0V1h1q0 1 0 0v1-1h1v1-1 1q0 1 0 0V1h1v2-1h1v1-2 1h2-1l1-1h-1 1v1h1V1v1h1v1-1h1V1q-1 0 0 0v1-1 1h1v1-2h1v2-1l1 1V1v1h1q-1 0 0 0 0 2 0 0h1v1-1h1v1h1l-1-1h1v1h1V2q0-1 0 0h2q0 1 0 0v1-1h1V1h1v1h1V1q-1 0 0 0 0-1 0 0v1l1-1v1h2v1l1-1q0-1 0 0h1v1-1h1q0 1 0 0 0 1 0 0h1v1-1h2v1l1-1 1 1V2q0-1 0 0l1 1V2v1h1l1-1q0 1 0 0h1v1h-1 1V2v1-1 1h1V2v1h1l-1-1V1h1v1l1 1V0v2h1V1v1-1l1 1V1v1-1l1 2V1v1l1 1V2v1-1h2V1v1h1l1-1v2l1-1V1v1l1-1v2h1V1v1h1l-1 1 1-1v1-2h1v1h1v1-1l1 1V2v1h2l-1-1h1l1 1V2h1-1 1l1 1V2h1v1-2h1v2l1-1V1q0-1 0 0h1v1-1 1h1v1l1-1v1h1V2h1-1 2v1-1 1l1-1v1-1 1h1V2h1l1 1q0-1 0 0V2v1l1-1v1-1h1v1-1l1 1h1l1-1q1 0 0 0v1h1V2v1-1h1v1-2 1h1q-1 0 0 0v1-2h1-1v1h1V1v1l1-1v1-1l1 1q-1 0 0 0v1-2l1 1v1-1l1 1V2h2-1V1l1 1q0-1 0 0h2v1-1h1l-1-1h1q1 0 0 0v1q0-1 0 0h1v1-1l1-1v2-1l1 1V1v1h1v1l1-1v1-1l1 1h2l-1-1h1v1h1l-1-1h1q-1 0 0 0h1v1-1 1l1-1v1-1 1l1-1V1v1h1v1-1h1V1h-1 1v1l1-1v1l1 1V2h1v1l1-1q0-1 0 0v1-1h1q0 1 0 0v1-1l1 1V2v1l1-1v1l1-1h1v1q0-1 0 0l1-1v1q0-1 0 0l1-1q0-1 0 0v1l1-1v1h2V2h1v1h-1l1 1V3h1q0-1 0 0v1-1h1V2v1h1l-1-1V1h1v2q0-1 0 0V2l1-1v1h1q0-1 0 0h1l-1-1 1 1v1l1-1v1h1V2v1-1h2V1v1h2q0 1 0 0v1q1 0 0 0h1V2v1-2 1h1v1h1V1v2l1-1v1-2h1l-1 2h1V2v1h2V2v1h1l-1-1h1l1 1V2q1 1 0 0h1v1l1-1v1h1V1h1v1h1V1q0-1 0 0h1v1q0-1 0 0v1l1-1v1l1-1v1h1V2h1l-1 1V2h1v1l1-1v1q0-1 0 0h1V2v1h1V2l1 1V2v1h2V2h1l-1 1h1V2l1 1h1l1-1v1-1l1 1V1v1l1 1V1h1-1v1h1q0-1 0 0h1V1v1h1v1-1h1v1-1l1 1V2h1q1 0 0 0V1l1 1h1v1-1h1v1-1 1-2h1v2h1q-1 0 0 0V2h1v1-1 1l1-1V1v2q0-1 0 0V2h1v1h1V2l1 1V2l1 1q0-1 0 0l1-1q0 1 0 0-1 0 0 0h1v1l1-1-1 1h2V1v1h2-1V1h1v1h1v1q0-2 0 0h1V2h1v1l1-1q0-1 0 0v1-1 1h1V2v1h1l1-1v1h1V2v1-1l1 1h1l1-1v1-1h1v1h1V2h1V1v1h1v1-2h1v1h1V1l1 1v1h1l-1-1h1q-1 0 0 0v1q1 0 0 0h1V2v1-1h2V1v1h1v1-1 1l1-1v1h1V1v1h1v1l1-1v1-1l1 1V1v2h1V2v1h2V2v1h1l-1-1V1l1 1v1h1V1zm-35 37q2 0 0 0M96 36q1 0 0 0m-50 0q-1 1 0 0m41 0q0 1 0 0m42 0q-1 1 0 0m41 0q0 1 0 0M8 35q0 1 0 0m124 0q0 1 0 0m120-1q0 2 0 0m3-2q0 2 0 0M3 28q-1 0 0 0m252-11q1 0 0 0m1-11q0-1 0 0m-4-2q0-1 0 0M110 3q1 0 0 0M75 2q-1 1 0 0m41 0q0 1 0 0m112 0q-1 0 0 0m5 0q0-1 0 0M13 2q1-1 0 0m41 0q0-1 0 0m41 0q1-1 0 0m43 0q0-1 0 0m39 0q0-1 0 0m39 0q0-1 0 0m16-1q0 1 0 0m11 0q0 1 0 0M24 1q0 1 0 0m40 0q0 1 0 0m42 0q0 1 0 0m42 0q0 1 0 0m40 0q-1 1 0 0m38 0q0 1 0 0"/></svg>