<svg xmlns="http://www.w3.org/2000/svg" width="62" height="62" fill="none" viewBox="0 0 62 62"><path fill="#2c8c3e" d="M26.254 4.29c.08-.187.385.247.49.32.11.077.171.023.192.038.13.09.506.48.648.522.122.037.185-.11.322.008.195.17-.012.868.026.894q.029.02.053.032c.036-.113.068-.234.12-.31-.008-.053-.015-.093-.011-.101.148-.334.506-.122.596-.16.086-.035.116-.15.171-.196-.048-.293-.09-.654.042-.631.18.03.557.741.608.918a1 1 0 0 1 .027.176c.059-.032.142-.025.203-.1.079-.098.007-.455.299-.544.16-.048.202.524.188.567-.077.224-.246.142-.287.215-.011.021-.055.47-.035.487.025.02.153-.047.19-.025.05.032.06.424.294-.069.01-.02-.045-.093-.015-.175s.178-.141.207-.244c.01-.035-.167-.445-.028-.537a4 4 0 0 1 .57-.046c.022.01.363.256.402.287.1.08.287.364.31.364.138-.003.04-.354.19-.397.092-.026.42.308.597.381a.4.4 0 0 1 .056-.075l.022-.017c-.058-.166-.23-.49-.252-.552-.017-.054.04-.136.024-.191-.021-.069-.309-.17-.112-.458.154-.224.129.033.193.08.118.085.32.127.398.299.03.07-.06.135-.053.148.041.08.141.119.18.203q.063.135.102.255c.07-.01.13 0 .165.037.138.148.075.626.585.182.066-.058.029-.115.054-.164.018-.035.127-.048.13-.06.01-.034-.094-.168-.075-.21.045-.1.418-.577.52-.539.09.034-.085.34-.09.417-.01.128.053.263.035.397-.026.185-.179.457-.175.655a.15.15 0 0 1 .06-.054c.106-.05.046.22.176.23l.007-.004c.023-.03.092-.189.142-.102a.2.2 0 0 1 .081-.035c.085-.006.045.156.201.087.307-.133.437-.64.657-.69.487-.11.2.874.56.746.172-.06.24-.552.306-.604.138-.107.242-.02.3-.047.065-.029.118-.16.205-.204.028-.014.117.164.183-.01.055-.141-.147-.572-.025-.687.149-.14.255.38.32.488.072.115.15.09.163.112.083.134.273.64.386.738.096.082.214-.029.291.135.112.233-.357.79-.333.829l.015.022a5 5 0 0 1 .235-.409c.082-.125.254-.224.34-.344.027-.037-.054-.13-.012-.199.019-.03.234-.148.248-.145.153.035-.014.244-.013.337 0 .049.122.121.112.188-.023.163-.12.222-.207.245.084.05.151.112.192.112.144.001.237-.218.347-.057.167.244-.222.408-.258.655-.01.067.142.077.084.153-.074.097-.376.08-.162.218a.3.3 0 0 0 .073.036c.158-.17.298-.32.36-.366.044-.034.766-.444.81-.46.175-.061.277.06.353.032.096-.033.09-.306.214-.165.038.044-.079.481-.108.516-.095.117-.233.079-.314.059a1 1 0 0 1-.063.163c-.1.11-.185.094-.25.08l-.231.23-.066.128c.034.014.065.055.091.106.03.004.055.011.064.024q.007.013.005.044c.034.059.034.137.051.166.043-.006.116-.048.24-.156.017-.015-.003-.104.057-.167s.22-.06.287-.14c.024-.029.025-.476.189-.504.028-.004.52.161.541.184.017.018.231.38.255.424.06.113.118.448.14.457.127.052.178-.308.332-.288.116.015.34.667.478.626.06-.017.008-.614.016-.7.006-.056.091-.108.098-.164.008-.072-.216-.279.08-.465.231-.145.106.081.146.15.073.125.243.243.245.433 0 .077-.109.1-.108.115.007.09.082.166.085.258.016.483-.163.747.163 1.216q.052.072.09.107a.7.7 0 0 1 .117-.077c.069-.03.166.044.2.031.019-.008-.017-.149.061-.186.034-.016.133.046.168.017.122-.105.221-.355.305-.463.017-.021.109.029.158-.033.025-.032.074-.29.224-.463.088-.101.74-.612.829-.622.03-.004.242.109.242.127 0 .029-.118.061-.133.097-.103.246-.588.885-.785 1.151-.122.164-.363.242-.378.262-.02.027.02.172-.013.236-.029.056-.291.404-.123.447.248.063.2-.196.23-.227.069-.074.169-.112.246-.211.065-.083.385-.636.42-.651.069-.028.223.174.364.138.01-.002.043-.182.116-.153.057.022.058.167.114.189.063.023.414-.503.494-.576.059-.052.168-.017.204-.044.065-.048.077-.213.087-.22.012-.006.258.066.266.077.015.023-.035.493-.045.546-.004.017-.302.364-.05.254.245-.106.935-1.268 1.321-1.43.524-.218.117.655-.058.82-.074.069-.195.026-.21.039-.146.116.203.117.23.131.304.155.004.19-.014.331-.043.324.162.715-.21.939.05.465-.326.797-.316 1.287-.152.026-.133.204-.052.31.113-.042.243-.07.337-.125.039-.024 0-.14.068-.187a.2.2 0 0 1 .07-.018.8.8 0 0 1 .135-.226c.101-.11.355-.196.369-.213.039-.049-.023-.169 0-.198.017-.02.41-.286.433-.275.263.12-.08.498-.056.667.016.117.173.15.187.265s-.185.398-.115.457c.078.066.252-.022.37.058.065.042.169.379.189.386.3.105.351-.278.369-.3.026-.032.162-.036.206-.123.034-.067-.04-.15.018-.242.045-.07.194-.075.221-.156.004-.015-.087-.062-.054-.134.154-.334.438.028.366.323-.04.16-.208.151-.222.18-.027.055-.085.493-.172.67-.11.22-.345.305-.361.324-.035.044-.121.266-.173.323-.04.043-.451.33-.448.358.01.079.174.113.22.16.06.064-.097.318.3.186.086-.03 1.23-1.045 1.384-1.193.015-.014-.047-.29.236-.223.005.002-.005.114 0 .115.049.01.13-.051.204-.04.032.006.01.088.08.08.263-.03.879-.635 1.037-.346.067.123-.462.62-.475.676-.045.187.2.172.13.391-.046.145-.388.664-.586.658.005.193-.531.936-.533 1.015-.006.299.267-.052.335.103-.042.229-.624.414-.646.507a.5.5 0 0 0-.016.103c.37-.073.889-.157.946-.13.505.237-.407.517-.441.547l-.046.044.149.095c.086 0 .18 0 .228.03.018.012.26.32.269.34.238.51-.53.592-.513.64.05.137.246-.03.29-.024.087.009-.029.099.085.125.132.03.1-.228.14-.264.024-.02.567-.172.6-.169.082.006.13.118.197.123.242.02 1.075-.024 1.083.251.005.212-1.229.41-1.18.521.012.029.192.033.262.096.096.086.002.252.146.322.101.05.862-.26.948.197.043.231-.247.159-.303.189-.371.2-.099.308-.191.63-.035.119-.218.405-.338.603q.015.034.015.07c0 .077-.057.127-.1.173.043.058.13.08.164.152.08.17-.13.204-.051.316.118-.09.846-.298 1.007-.27.645.107-.656.745-.693.833-.023.053.055.402.019.565-.079.353-.495.57-.449.862.023.149.217-.026.3-.003.11.03.177.198.247.227.04.017.734-.196.845-.234.174-.06.729-.46.89-.3.314.31-.7.713-.673.812.008.03.495-.014.601.052.086.052.048.179.135.231.128.079.539-.02.511.108-.006.03-.427.404-.467.43-.167.109-.476.153-.589.22-.165.095-.247.234-.424.358-.004.178 0 .306-.299.121-.022.034-.075.062-.143.086-.029.213.422.46.65.494a.08.08 0 0 1 .057-.001q.005 0 .008.005h.01c.02-.003.353-.202.367-.219.12-.14.357-.882.582-.638.118.127-.163.606-.274.91.02.025.048.054.091.048s.257-.152.487-.169h.056c.064-.034.125-.053.178-.043.1.017.155.044.183.076.268.032.568.08.61.112a.6.6 0 0 1 .058.15c.068.022.12.06.145.125.07.185-.641.407-1.22.576.016.068.04.136.096.168.008.006.159-.099.19-.026.024.055-.077.16-.052.214.027.062.648-.063.756-.057.078.004.13.106.176.112.08.011.205-.097.216-.095.014.004.137.23.134.243-.005.027-.373.323-.418.353-.015.01-.471.044-.216.144.249.098 1.56-.235 1.946-.077.526.215-.38.546-.622.538-.1-.004-.155-.12-.176-.122-.185-.02.061.226.07.257.106.323-.13.136-.244.223-.258.2-.39.62-.812.516a1 1 0 0 1-.357.265l.214.106c.27.134-.476.333-.671.295a1.2 1.2 0 0 1-.224-.068 1 1 0 0 0-.097.088c-.195-.137-.358.274-.19.355.27.128.468-.123.757-.133.15-.007.392.112.412.11.062-.007.103-.136.14-.139.027-.002.492.088.5.112.101.27-.408.295-.511.43-.072.095.016.23-.056.32-.071.093-.412.152-.405.243.008.101.193.162.221.302.008.038-.03.134-.068.224a.2.2 0 0 1 .054.013c.122.124.02.193-.086.232.149.183.408-.012.432-.015.04-.004.14.089.233.06.072-.024.077-.136.185-.158.082-.018.19.084.267.045.014-.008-.019-.106.056-.134.345-.127.29.33.03.487-.141.086-.253-.04-.283-.03-.059.02-.409.29-.595.352-.234.079-.46-.028-.486-.025-.056.006-.274.102-.35.105-.059.003-.552-.085-.57-.062-.048.063.043.203.042.269-.003.088-.294.156.08.342.082.04 1.61.13 1.824.136.02 0 .171-.24.324.009.003.005-.084.077-.081.08.027.041.129.057.172.116.018.026-.054.07 0 .113.206.165 1.071.172.977.488-.04.135-.765.113-.814.142-.164.1.019.264-.186.369-.135.07-.743.195-.88.05-.133.14-1.038.288-1.095.342-.216.207.224.153.163.31-.191.133-.735-.148-.816-.098-.367.227.05.326.047.382-.001.02-.138.104-.149.175-.017.11.099.387.07.538q.06.009.103.02c.027.009.012.113.088.135.04.011.296-.038.513.039.128.045.842.463.884.542.014.026-.013.265-.03.272-.026.01-.1-.087-.14-.088-.267-.005-1.04-.221-1.36-.308-.197-.054-.36-.25-.382-.256-.034-.009-.153.083-.225.075-.063-.006-.483-.124-.461.05.032.253.256.114.295.13.094.037.166.116.288.152.1.03.732.125.76.152.05.053-.081.27.004.389.006.008.186-.027.186.051 0 .061-.136.116-.135.176 0 .068.62.2.716.248.07.036.078.15.117.173.069.043.227-.007.236 0 .011.01.033.265.025.276-.016.022-.471.148-.524.157-.018.003-.45-.148-.256.046.189.189 1.525.406 1.815.705.396.407-.566.35-.785.246-.09-.043-.094-.171-.113-.182-.162-.092-.034.231-.038.264-.032.338-.174.072-.313.107-.317.08-.607.413-.951.149-.416.217-.863-.012-1.315.176-.123-.203-.438.108-.315.25.196.226.478.073.747.179.14.055.313.26.334.265.059.019.149-.083.183-.071.026.008.416.275.415.3-.015.29-.492.11-.642.192-.104.058-.075.216-.179.272-.102.055-.439-.027-.468.06-.032.097.112.227.082.367-.016.075-.291.294-.29.316.011.316.387.224.414.232.039.013.093.137.19.147.075.008.124-.093.233-.072.082.016.141.154.227.148.016 0 .025-.104.105-.1.367.022.134.418-.167.46-.163.022-.216-.138-.248-.14-.061-.006-.49.102-.686.085-.246-.021-.41-.21-.435-.216-.054-.017-.292-.015-.364-.043-.055-.02-.472-.299-.497-.285-.07.04-.042.203-.07.263-.036.08-.33.027-.062.346.06.07 1.424.76 1.619.851.018.009.252-.15.294.138 0 .005-.107.036-.107.042.009.049.096.102.112.175.007.03-.077.041-.045.104.123.233.913.585.7.837-.09.107-.746-.202-.803-.194-.19.026-.088.249-.317.264-.152.01-.76-.118-.829-.305-.177.076-1.065-.15-1.14-.123-.28.104.145.228.027.35-.229.045-.615-.43-.709-.416-.427.063-.086.319-.11.37-.01.017-.168.04-.207.1-.08.128-.059.631-.279.574-.142-.037-.045-.478-.122-.662a1.6 1.6 0 0 0-.17-.224.42.42 0 0 0-.28.002c-.265.084.387.643.472.81.038.071.106.487.146.541.068.095.176-.008.243.02.111.046.093.17.11.179.047.025.262.002.3.046.015.016.049.324-.104.372-.243.075-.853-.279-1.1-.41-.086-.045-.09-.18-.101-.185-.05-.028-.152.014-.226-.025-.05-.027-.06-.115-.082-.126-.085-.043-.553-.189-.626-.127-.218.18.113.374.165.492.1.23-.033.498.107.694.145.201.182.026.306.045.368.053-.043.252.062.41.045.068.33-.011.333.133.008.354-.399.223-.588.252-.398.06-.702.1-1.146.08-.026 0-.068-.019-.112-.038-.01.153-.036.3-.104.38q.004.011.003.014c-.104.259-.424.316-.595.417-.037.022-.089.138-.205.198-.079.04-.255.01-.266.021-.048.046.006 1.135.003 1.32-.003.115-.106.157-.108.189-.002.046.244.307.101.397-.165.104-.407-.295-.435-.299-.009 0-.067.077-.15.076-.076 0-.353-.035-.367-.024-.097.077-.087.721-.113.747-.013.014-.153-.023-.183.01-.123.127-.078.438-.418.334-.137.035-.23-.065-.304-.202l-.012.011c-.024.027.014.64-.306.553.008-.076-.112-.383-.219-.627-.068.165-.171.333-.282.324-.202-.018-.476-.415-.557.256-.01.088.056.105.07.158.01.039-.063.121-.056.132.016.03.182.061.196.105.034.105.076.709-.024.748-.09.036-.164-.308-.212-.37-.08-.102-.217-.159-.293-.27-.087-.128-.15-.358-.244-.516-.139.023-.181-.085-.222-.17-.17-.01-.14.225-.191.335.032.2.062.396-.123.413a.22.22 0 0 1-.15-.036c.01.26.114.544.018.679a.24.24 0 0 1-.104.09c.14.209.256.42.151.452-.175.053-.83-.416-.953-.551l-.018-.02c.039.188.197.439.186.503-.031.171-.166.177-.192.236-.028.065.02.197-.015.287-.012.03-.197-.043-.13.13.054.142.493.326.479.494-.017.203-.444-.112-.566-.148-.13-.038-.17.032-.195.025-.151-.043-.633-.292-.78-.289-.127.004-.14.164-.308.095-.24-.098-.265-.826-.308-.839-.37-.104-.03.372-.034.412-.034.363-.441.276-.514.34-.11.094-.03.32-.22.274-.287-.069-.109-.45-.248-.659-.037-.056-.157.037-.165-.058-.01-.122.226-.311-.024-.27-.367.06-.121.48-.205.692-.032.08-.145.086-.187.198-.043.117.14.434-.11.61-.137.096-.358-.432-.358-.477.002-.238.189-.213.203-.296.004-.024-.098-.464-.121-.473-.031-.011-.13.094-.172.084-.059-.014-.192-.383-.256.159-.003.023.071.074.07.161-.002.088-.124.19-.12.297.002.036.3.37.198.5a4 4 0 0 1-.525.225 12 12 0 0 1-.474-.144c-.12-.043-.388-.255-.41-.246-.13.047.075.348-.054.436-.096.067-.7-.268-.775-.144-.033.053.406.461.457.53.034.046.005.141.038.188.042.058.347.062.252.398-.074.262-.133.01-.209-.014-.138-.043-.344-.018-.471-.158-.052-.056.013-.146.002-.157-.065-.061-.172-.067-.235-.135-.158-.164-.252-.32-.364-.453q-.044.014-.11-.038c-.03-.023-.038-.064-.046-.114a1 1 0 0 0-.417-.187h-.003c-.043.235-.032.598-.068.706-.024.076-.269.419-.28.486-.018.115.13.12.159.185.046.111-.055.186-.05.205.016.051.184.185.18.244-.002.021-.196.264-.338.19-.225-.118-.406-.8-.488-1.068-.028-.093.063-.19.06-.202-.016-.055-.117-.098-.141-.177-.017-.055.038-.124.03-.148a2.4 2.4 0 0 0-.212-.39l-.26.522c-.01.02-.148.002-.186.043-.048.05-.028.23-.202.286a.2.2 0 0 1-.132.007l-.007.032c-.04.245.11.148.185.247.222.297-.21.148-.247.335-.016.08.242.224.142.328-.245.257-.44-.124-.595-.238a5.4 5.4 0 0 1-.868-.752v-.002l-.033.02c-.07.029-.14-.047-.21-.035-.04.007-.088.048-.134.073q-.018.04-.024.045c-.246.105-.502-.061-.692-.12a3 3 0 0 1-.043.183c-.038.145-.17.293-.213.435-.014.043.093.105.075.184a1 1 0 0 1-.19.216c-.156.015-.064-.235-.094-.323-.016-.047-.154-.077-.167-.144-.057-.302.252-.343.251-.369-.003-.084-.225-.158-.198-.281a.3.3 0 0 1 .021-.058c-.177.143-.769.794-.887.907-.084.08-.186.036-.21.057-.034.032-.044.39-.21.353-.19-.043-.079-.496-.096-.518-.005-.007-.101.007-.16-.053l-.077-.089c-.053 0-.096-.005-.125.017-.08.063.012.319-.15.224-.031-.018-.054-.197-.063-.342-.178.13-.41.363-.437.363-.019 0-.092-.125-.136-.124-.182.004-.375.266-.543-.08-.028-.058.062-.344-.078-.337-.037.003-.442.462-.607.175.1-.082.41-.886.403-.937-.05-.399-.399.08-.567.02-.15-.054-.266-.449-.31-.445-.014.002-.098.075-.206.138-.106.147-.238.342-.34.151q-.014-.032-.006-.076-.016-.005-.031-.012c-.299-.147.081-.402-.133-.46a.13.13 0 0 0-.072.001c-.153.169-.32.606-.408.706-.053.06-.414.277-.451.334-.063.098.072.16.07.233-.001.12-.124.149-.127.168-.006.053.094.244.068.296-.01.02-.285.164-.385.04-.16-.198-.053-.896-.021-1.174.01-.096.134-.15.135-.162a.1.1 0 0 0-.008-.048.3.3 0 0 1-.072-.127q0-.006-.003-.01l-.029.039c-.03.054-.108 1.046-.299.944-.162-.088-.292-.88-.284-1.064.002-.068.025-.165.055-.267-.164.075-.351.1-.447.25-.134.207.041.178.07.3.086.36-.25.052-.359.207-.047.067.132.303 0 .36-.328.137-.355-.29-.451-.456a5.3 5.3 0 0 1-.495-1.035c-.023-.064.024-.273-.032-.294-.114-.042-.356.226-.378.226-.28-.002-.45-.278-.607-.4-.032-.026-.16-.032-.258-.119-.067-.058-.104-.233-.117-.239-.06-.027-1.055.422-1.228.485-.109.04-.185-.04-.215-.03-.044.014-.196.339-.332.24-.157-.116.125-.488.119-.515-.002-.008-.091-.033-.124-.107-.17.12-.31.21-.345.211-.416.01-.137-.354.039-.556-.215.048-.522.169-.547.158-.017-.008-.034-.15-.075-.167-.168-.07-.45.093-.466-.29-.003-.058.155-.247.094-.32-.13.121-.315.284-.334.292-.078.031-.17-.047-.232-.023-.225.091-.952.501-1.08.258-.1-.188.915-.914.822-.992-.024-.02-.186.057-.276.032-.126-.034-.114-.225-.275-.224-.113.001-.656.617-.937.246-.142-.188.15-.252.187-.304.243-.345-.048-.32-.109-.65-.035-.185.07-.883.039-.918-.042-.046-.104-.045-.164-.056a.3.3 0 0 0-.054.03c-.05.036-.518.916-.652.745-.063-.08-.03-.36.027-.619-.12.099-.229.177-.286.193-.625.19.256-.958.25-1.054-.003-.058-.228-.336-.268-.497-.088-.351.189-.73.017-.971-.088-.123-.183.12-.266.137-.114.022-.247-.1-.322-.094-.045.004-.57.504-.653.587-.129.13-.447.736-.663.665-.418-.139.31-.95.242-1.027-.02-.023-.437.233-.561.222-.1-.009-.123-.138-.225-.148-.15-.013-.472.258-.506.131-.008-.03.203-.552.226-.592.102-.173.358-.35.43-.459.125-.19.117-.383.29-.625.064-.087.211-.103.23-.156.114-.34-.696-.352-.867-.233a4 4 0 0 0-.233.36c-.045.177.075.948-.236.83-.225-.085-.065-1.116-.25-1.162-.203-.05-.317.66-.564.734-.431.13-.162-.312-.315-.275-.042.01-.556.515-.784.305-.23-.213 1.247-1.379 1.357-1.565.015-.026.224-.55.173-.573-.242-.11-.292.419-.323.46-.07.094-.562-.068-.592-.142-.038-.093.278-.404.15-.548-.048-.054-1.211.37-1.395.382h-.822c-.148-.265.728-.543.726-.592-.001-.02-.37.01-.136-.212.126-.12 1.15-.09 1.091-.264a1 1 0 0 0-.134-.077H7.096c-.28.068-.781.163-.847.139a.8.8 0 0 1-.16-.222c.012-.026.133-.003.162-.028.202-.174.922-.532 1.218-.68.181-.092.433-.055.454-.066.014-.006.025-.036.04-.072-.011-.035-.003-.087.034-.159a.43.43 0 0 0-.093-.19.6.6 0 0 0-.177.049c-.095.046-.627.399-.666.396-.074-.005-.121-.256-.264-.286-.01-.002-.12.144-.172.086-.041-.045.023-.177-.018-.22-.046-.05-.595.266-.7.294-.074.02-.157-.06-.202-.051-.079.014-.163.157-.175.158-.014 0-.202-.174-.204-.188-.004-.028.25-.425.284-.468.012-.014.434-.191.159-.205-.267-.014-1.404.719-1.82.691-.567-.037.186-.638.418-.707.096-.03.185.063.206.059.182-.04-.13-.195-.149-.22-.202-.274.082-.17.161-.29.182-.27.174-.712.606-.747.162-.44.648-.569.858-1.01.229.068.252-.374.066-.397-.297-.037-.404.265-.674.367-.14.053-.407.018-.426.027-.056.025-.055.161-.09.175-.024.01-.493.074-.51.054-.181-.224.294-.41.348-.572.038-.112-.088-.211-.049-.322.039-.11.343-.273.307-.358-.04-.093-.235-.092-.306-.216-.039-.067.018-.413.003-.43-.22-.227-.438.093-.463.105-.037.017-.16-.04-.24.017-.06.046-.03.153-.125.21-.071.043-.207-.02-.267.042-.01.011.05.094-.012.145-.287.23-.38-.221-.183-.453.106-.126.252-.043.278-.062.048-.037.295-.404.452-.523.197-.149.444-.119.468-.13.05-.024.227-.184.298-.212.046-.018.408-.073.524-.106-.093-.035-.243-.069-.293-.131a6 6 0 0 1-.143-.397c-.41.09-1.441.372-1.61.423-.02.006-.087.28-.31.095-.005-.004.055-.1.05-.104-.038-.03-.14-.012-.2-.054-.026-.019.03-.083-.036-.107-.247-.09-1.07.177-1.082-.153-.005-.14.69-.35.727-.393.123-.147-.102-.243.059-.408.106-.109.643-.422.818-.328a.3.3 0 0 1 .06-.074c-.043-.048-.061-.099-.045-.15.02-.07.18-.092.381-.096.245-.158.514-.311.534-.35.139-.265-.261-.074-.254-.242l.028-.03c-.249-.046-.536-.137-.497-.416.033-.233.284-.072.348-.083.416-.072.192-.26.383-.537.038-.055.133-.142.24-.235a.1.1 0 0 1 .046-.04l.003-.001c.105-.09.215-.18.292-.246-.103-.051-.152-.127 0-.252l.013-.01a.2.2 0 0 1-.031-.079c-.023-.187.188-.152.149-.283-.142.048-.897.013-1.041-.063-.578-.307.859-.498.922-.57.04-.043.076-.398.163-.54a.7.7 0 0 1 .123-.147c-.058.024-.149.085-.226.076-.031-.004-.344-.358-.36-.398-.118-.283.238-.365.605-.408-.04-.05-.117-.127-.199-.214a19 19 0 0 0-.567-.017c-.184.001-.837.206-.94.002-.198-.393.892-.453.898-.555.002-.03-.474-.144-.554-.24-.065-.076.011-.185-.054-.262-.096-.116-.518-.151-.45-.264.015-.027.533-.247.579-.26.193-.05.5.006.628-.02.214-.045.344-.176.613-.23.024-.071.125-.122.232-.167-.012-.083.03-.126.093-.158a1.3 1.3 0 0 0-.225-.26 2 2 0 0 1-.18-.034 2 2 0 0 1-.175-.094 4 4 0 0 0-.303.071c-.157.094-.619.722-.755.42-.072-.16.368-.54.564-.791a9 9 0 0 1-.281-.186c-.202.071-.431.166-.556.1-.397-.212.106-.334-.027-.416-.037-.023-.758-.028-.77-.339-.01-.249 1.17-.161 1.759-.142.007-.107.016-.219.02-.23a.4.4 0 0 1 .072-.145c-.078-.128-.142-.282-.13-.33a.24.24 0 0 1-.099-.107 1 1 0 0 1-.083-.048c-.057-.06-.018-.175-.064-.224-.135-.144-.59-.518-.658-.765l-.438-.438c.082-.293.899.131.932.094.014-.015-.268-.254.054-.246.104.003.397.27.633.448.039-.053.075-.106.043-.185-.038-.095-.69-.338-.612-.682l-.063-.063c-.213-.213.557-.164.73-.066q.026.015.051.032c.056-.075.094-.187.24-.278.075-.047.264-.106.446-.16a.2.2 0 0 1-.023-.04c-.059-.165-.245-.714-.185-.99a.3.3 0 0 1-.056-.051c-.122-.154-.083-.225.035-.252-.169-.067-.415-.172-.424-.191-.125-.26.277-.181.32-.19.167-.039.75-.214.865-.19.164.033.267.173.283.175.017.003.061-.1.127-.096.104.008.157.16.188.192l.043-.036c.295-.21.749-.091.911-.34q.024-.038.012-.062l-.045-.042c-.061-.034-.165-.052-.191-.094-.062-.097.002-.265-.031-.333-.019-.04-.678-.346-.786-.392-.169-.072-.85-.145-.863-.373-.024-.44 1-.06 1.046-.152.013-.027-.377-.32-.412-.44-.029-.096.083-.165.055-.263-.042-.144-.414-.344-.308-.421.026-.019.588-.014.635-.007.198.03.456.204.584.23a1 1 0 0 0 .236.016c-.026-.196-.025-.466.098-.514.154-.061.462.082.45-.206a5 5 0 0 0-.385-.073c-.182.024-.856.416-.86.084-.001-.188.627-.37.884-.531-.03.002-.057 0-.069-.012a1.6 1.6 0 0 1-.158-.24c-.214-.016-.468-.02-.556-.13-.28-.353.23-.265.141-.393-.024-.036-.684-.328-.57-.617.113-.291 1.74.654 1.954.688.02.003.3.005.468-.013a1.4 1.4 0 0 0-.115-.197c-.134 0-.278.036-.304.029-.113-.03-.143-.548-.084-.602.028-.027.104-.017.192-.005.072-.107.22-.097.373-.066-.018-.114-.792-.987-.867-1.147l-.3-.764c.123-.152.407.09.606.276a.5.5 0 0 1 .19-.026c.018-.034.065-.044.168.004.074.002.137.005.172 0 .114-.02.134-.084.154-.104l-.133-.339c-.11-.28.576.071.696.23q.022.03.042.061a.7.7 0 0 0 .232-.047c.112-.059.051-.208.232-.221.124-.009.269.135.39.285-.025-.082-.068-.146-.065-.202.014-.215.087-1.053.367-1.074.02-.001.182.292.186.31l.005.035c.285-.062.296.357.513.48.059.034.125-.103.174-.022.063.105-.062.38.143.231.301-.217-.106-.484-.125-.71a.16.16 0 0 1 .028-.095c-.094-.067-.541-.288-.625-.335-.067-.037-.189.04-.218.027-.03-.013-.43-.425-.43-.456-.012-.287.325-.056.369-.047.132.025.54.075.751.129a.3.3 0 0 1 .03-.078c.08-.147.514.228.535.268.065.134.019.208-.018.264.005.04.007.075.017.084.024.025.17-.056.287.12.016.025.04.074.066.136q.017-.027.034-.032c.058-.014.343.258.16-.257-.009-.02-.098-.034-.135-.112-.037-.079.026-.226-.026-.319-.017-.032-.433-.197-.4-.36a4 4 0 0 1 .37-.435c.023-.008.438-.076.488-.082.127-.014.46.055.477.038.095-.1-.221-.278-.146-.414.057-.102.745-.072.758-.216.005-.062-.57-.232-.646-.271-.05-.026-.067-.124-.118-.152-.064-.033-.34.099-.404-.244-.05-.267.114-.068.193-.08.143-.023.316-.137.492-.07.072.028.053.138.067.143.086.026.185-.016.272.016.456.162.637.425 1.192.293.306-.074.19-.169.271-.302.025-.04.096-.043.126-.1.01-.021-.041-.093-.014-.17.019-.05.06-.026.11.004a.2.2 0 0 1-.01-.095c.082-.293.349-.09.532.09v-.01c-.015-.074-.084-.154-.08-.225.005-.075.047-.127.08-.17v-.146c0-.008.016-.018.038-.031-.017-.204-.057-.597.155-.645.057-.012.124.07.166.146.133.023.241.218.369.187.153-.038.366-.548.4-.554.049-.008.076.011.09.048.025-.017.062-.02.117 0 .067.025.086.136.164.234a.04.04 0 0 0 .014-.014c.042-.064-.003-.401.092-.51.037-.043.099-.033.152-.043a1 1 0 0 1-.046-.22c-.001-.08.122-.482.11-.55-.018-.114-.16-.07-.207-.125-.08-.091-.008-.194-.019-.21-.03-.043-.233-.118-.248-.175-.005-.021.102-.312.26-.287.25.041.639.63.802.858.057.078 0 .2.007.21.026.037.097.05.15.086a3 3 0 0 1-.039-.166c-.03-.146.021-.337-.002-.484-.008-.045-.131-.052-.15-.131-.007-.036.061-.27.074-.278.132-.083.162.182.228.248.035.034.173 0 .213.054.186.246-.072.42-.06.441.04.074.272.042.302.164.025.101-.021.47.004.505.008.01.068-.03.125-.026-.02-.098-.064-.2-.06-.26.011-.251.25-.432.212-.67-.04-.244-.151-.104-.254-.175-.305-.211.152-.207.128-.395-.01-.081-.3-.137-.239-.267.151-.321.457-.022.64.037.165.053.312.101.457.157l.002-.005c.08-.168.237-.155.272-.227.045-.092-.153-.28.035-.267.058.003.284.396.29.44.014.136-.089.208-.161.251q.082.04.168.09c.06.032.165.218.22.196.113-.045.113-.406.13-.42.207-.185.52-.094.718-.108.041-.002.14-.083.27-.085l.036.004c.06-.121.33-.47.5-.449.127-.27.256-.556.298-.637.054-.103.165-.094.18-.121.023-.042-.08-.384.087-.401.066-.008.114.042.15.11.037-.087.076-.15.111-.152.096-.005.058.345.083.418q.014.036.033.07a.1.1 0 0 1 .048.014c.067.034.299.188.318.184.12-.025.398-.606.434-.619.017-.006.126.088.168.074.17-.06.27-.37.54-.098.045.046.051.347.18.296.035-.013.273-.579.522-.358a.3.3 0 0 0-.03.102c.07-.047.145-.037.175-.071.048-.053.045-.193.106-.269.02-.023.173.104.165-.082-.007-.151-.364-.466-.298-.62zm6.094 52.688c-.046-.032-.223-.255-.256-.23-.05.039.123.39.256.23m-5.324-.946c-.1-.131-.405.297-.216.27.045-.006.147-.235.216-.27m-5.436-.609c-.061.016-.043.408.143.313-.03-.048-.103-.323-.143-.313m19.787-1.907c-.29-.287-.167.584.173.554.059-.168-.101-.28-.173-.397-.012-.02.04-.12 0-.157m-1.024-.211c.045.136.187-.148.052-.102a.6.6 0 0 0-.052.102m-22.258-.023-.053.04a.08.08 0 0 0 .063-.015zm-2.517-1.162c.202.086.301-.828.095-.686-.055.037-.266.614-.095.686m28.904-.751c-.142-.108-.186.11-.161.15.081.135.375.011.16-.15m-29.652.065c-.006-.005-.182-.034-.151.056.044.133.204-.01.151-.056m30.882-.65c-.164-.022-.075.497.038.343.027-.036-.062-.27-.038-.343m.842-.61c-.048.008-.177-.042-.152.056.019.075.18.056.152-.056m3.592-2.482c-.054.01-.338-.023-.343.018-.008.063.364.19.343-.018m-38.678-.115c-.06-.057-.23.116-.153.19.059.058.23-.116.152-.19M7.68 44.714c-.074-.05-.283.026-.19.114.078.076.222-.093.19-.114m45.143-.447.025.01.01-.024zm1.008-.253c.051-.07-.166-.089-.183-.05-.025.055.133.118.183.05m-.304-.045c.015-.036-.064-.144-.144-.106-.116.053.116.173.144.106m-45.24-.386-.01.004h.016q-.004 0-.007-.003M6.28 42.165c-.063-.024-.142.058-.136.103.014.103.135-.039.136-.103m2.584-.276c-.059-.085-.406.161-.448.342.123-.02.24-.027.29.03.027-.043.09-.131.156-.235.006-.058.012-.122.002-.137m-3.376.127c.358-.483-.537-.013-.548.098-.032.287.17.004.183 0 .05-.018.354-.083.365-.098m48.305-.284a2.3 2.3 0 0 0-.4.164c-.133.132.256.309.305.281.034-.019.119-.439.095-.445m-47.72-.182c-.005-.023-.204-.006-.17.086.039.104.188-.002.17-.086m47.204-.19c.058-.132-.237-.015-.105.041a.6.6 0 0 0 .105-.041m-46.443-.347c.007-.062-.02-.094-.113-.037a.2.2 0 0 0-.046.056.7.7 0 0 1 .158-.02zm47.582-.1c.075-.14-.293.005-.143.055a1 1 0 0 0 .143-.055m-.897-.92c-.046-.019-.165.098-.1.163.068.066.203-.12.1-.163m-47.09-.355c-.093-.004-.07.224.035.187.047-.017.057-.182-.035-.187m-1.247.104c.037.154.213-.2.068-.137a1 1 0 0 0-.068.137m50.53-.723c-.588.119.39.369.474.294.215-.19-.123-.117-.137-.122-.05-.021-.318-.175-.337-.172m-.563.004c.042-.103-.14-.124-.183-.05-.012.02.147.141.183.05m-.794-.14c.162-.282-.596.024-.256.082a.7.7 0 0 0 .257-.081m-49.074-.555c.011-.187-.397-.057-.415-.005-.012.038.206.406.228.395.02-.01.186-.355.187-.39m.446.32c.045.136.187-.148.052-.102a.6.6 0 0 0-.052.102m49.667-.255c.058-.085-.126-.061-.17-.015.03.06.145.052.17.015m-1.92-1.163c-.16-.098-.476-.353-.662-.328-.078.045-.127.097-.12.155.004.04.42.14.782.173m-49.768-.268c-.018-.058-.179 0-.17.086s.183-.046.17-.086m.265-.103c.05-.117-.203-.05-.178.017.013.037.144.065.178-.017m50.129-1.512a.14.14 0 0 0 .01.077c.032.067.202.134.268.2.053.052.019.17.044.196.014.015.132-.07.196-.01.027.025.006.14.046.162a.7.7 0 0 0 .195.057c-.073-.136-.14-.338-.229-.423a2.7 2.7 0 0 0-.531-.26zm-49.375-.67c0-.007-.105-.152-.147-.067-.063.124.152.137.147.068m51.553-.606h.027v-.028zm.526-.554c0-.039-.116-.108-.175-.04-.085.095.177.111.175.04m.297-.08c.02-.085-.187-.015-.188.027 0 .06.17.056.188-.027m-.896-1.616q.031-.006.04-.016l.004-.012zm-.05-.463a.2.2 0 0 0-.048.04l.07.003q-.015-.042-.022-.043m-.62-.136c0-.143-.225.081-.082.08a.5.5 0 0 0 .081-.08m.864-.864c.014-.157-.266.122-.108.108.008 0 .107-.1.108-.108m-1.189-.486q-.015.001-.03.016c.004.056.02.109.06.157.046-.048.054-.174-.03-.174zm-50.13-.3c-.002-.082-.245-.08-.243.027.002.082.244.08.243-.027m50.436-1.024q-.026.008-.032.033zm.793-.182a.3.3 0 0 0-.07.023c.028 0 .055-.006.07-.023m1.077-.183c.12-.262-.159-.06-.174-.058-.037 0-.198-.016-.297-.023l.311.155c.085-.023.148-.05.16-.074m-1.093-.527c.02-.103-.14-.007-.162.054.052.043.153-.01.162-.055M4.431 24.876c-.018-.087-.219-.181-.216-.054.002.11.223.091.216.055m1.45-2.245c-.018.035-.041.06-.023.099.013.026.124.155.23.27.041-.114.136-.098.196-.121l-.018-.085a3 3 0 0 1-.385-.164m-.097-.6c-.035-.003-.071.02-.104.047.32.021.751.128.798.106a.3.3 0 0 0 .06-.064l-.026-.024c-.025-.026-.623-.055-.729-.066zm46.098-.952.016.008.02-.031-.02-.01zM7.669 19.74c.032-.075-.192-.17-.233-.072-.032.076.192.171.233.073m45.294-.488c.019-.138-.188-.083-.162-.018.003.008.148.111.161.018m-44.43-.136a.2.2 0 0 0-.125.017c-.049.029-.02.071.037.11.047-.024.075-.07.088-.127m-.512-.36c-.131-.084-.34.156-.077.206.175.032.118-.18.077-.207m44.417-.469c-.142-.166-.638.608-.391.572.065-.008.512-.43.391-.572m-41.66-2.897c-.1-.101-.1.216 0 .114a.5.5 0 0 0 0-.114m-1.23-.167a.22.22 0 0 0-.184.015c.018.134.134.183.239.23l.009-.081-.066-.165zm-.597-.05c.02-.087-.127-.254-.176-.135-.041.101.168.172.176.135m.216-.221q.033.06.065.123c.017-.023.014-.056-.039-.105zm41.686-.363.019-.02-.02-.02zm-.02-.764c-.028-.027-.157.006-.153.094.007.127.204-.045.153-.094m-39.695-.1a.06.06 0 0 0-.02.049 1 1 0 0 0 .03.117c.018-.054.003-.113-.01-.166m39.848-.167c-.047-.074-.143.121-.114.152.042.043.16-.08.114-.152m-2.14-.802c-.013.017-.006.4.007.432.074.172.381-.125.373-.18-.005-.04-.365-.272-.38-.252m-.535.343c-.102-.101-.102.215 0 .114a.5.5 0 0 0 0-.114m0-1.222c-.102-.121-.102.274 0 .153a.7.7 0 0 0 0-.153m-1.912-.687c-.205-.254-.197.564-.018.268a.7.7 0 0 0 .018-.268m-30.575-.382c-.063-.075-.257.121-.095.19.133.058.112-.168.095-.19m30.996-.305c-.08-.076-.167.086-.114.153.016.017.186-.086.114-.153m-.497-.458c-.058-.085-.104.096-.076.153.067-.006.101-.116.076-.153m1.146-.4c-.1-.27-.153.072-.164.083-.038.038-.28.23-.283.25-.105.59.486-.227.447-.332M17.54 9.342c-.04.14-.095.28-.108.325a.4.4 0 0 0 .111-.136.6.6 0 0 0-.003-.189m2.292-2.343c.034-.053-.241-.332-.316-.137.053.015.292.171.316.137m3.048-.334c-.056.011-.097.053-.066.132zm14.14-.725c-.156.085-.113.276-.138.41-.004.024-.108.062-.106.117.023.407.517-.322.244-.527m-12.156.127c.138.093.29-.41.12-.324-.041.02-.065.269-.12.324m1.619-.845c-.109.14.007.298.037.432.006.024-.075.1-.05.149.184.363.345-.501.013-.581"/><path stroke="#f7f4ef" stroke-linecap="round" stroke-linejoin="round" stroke-width="2.545" d="M43.004 27.99a12.723 12.723 0 1 1-6.109-8.48"/><path stroke="#f7f4ef" stroke-linecap="round" stroke-linejoin="round" stroke-width="2.545" d="m26.717 29.262 3.817 3.817 12.722-12.723"/></svg>