<svg xmlns="http://www.w3.org/2000/svg" width="57" height="54" fill="none" viewBox="0 0 57 54"><path fill="#2c8c3e" d="M24.43.535c.08-.187.385.247.489.32.11.077.172.023.193.038.13.089.506.479.648.522.121.037.185-.111.322.008.195.17-.013.868.025.893q.03.02.053.032c.037-.113.07-.234.121-.31-.009-.052-.016-.092-.011-.1.148-.334.506-.123.596-.16.086-.036.115-.15.171-.196-.049-.293-.09-.655.041-.632.181.031.558.742.609.918a1 1 0 0 1 .026.177c.06-.032.143-.026.204-.1.079-.099.006-.456.299-.544.16-.049.202.524.188.566-.077.224-.247.142-.287.215-.012.021-.055.471-.036.487.026.021.154-.047.19-.025.052.032.06.425.294-.068.01-.02-.044-.094-.015-.176.03-.082.179-.141.208-.243.01-.036-.167-.446-.028-.537a4 4 0 0 1 .569-.046c.023.01.364.255.403.286.1.08.286.365.31.365.138-.004.04-.354.19-.397.092-.027.42.308.597.38a.4.4 0 0 1 .056-.074q.009-.009.022-.018c-.059-.166-.23-.49-.252-.552-.018-.054.04-.136.024-.19-.021-.07-.31-.17-.112-.458.153-.224.129.032.193.08.118.085.32.126.398.298.03.07-.06.135-.053.148.041.08.14.12.18.203q.063.135.102.256c.07-.01.129-.001.164.036.139.148.076.626.586.183.066-.059.029-.116.053-.164.019-.036.128-.048.131-.06.009-.035-.094-.169-.075-.21.045-.1.418-.577.52-.54.09.034-.085.34-.09.417-.01.129.053.264.035.398-.026.184-.179.457-.175.654a.15.15 0 0 1 .06-.053c.106-.05.046.22.175.23l.008-.005c.022-.03.092-.188.142-.102a.2.2 0 0 1 .08-.034c.086-.007.046.156.202.087.306-.133.436-.641.657-.69.486-.11.2.873.56.746.172-.061.239-.553.306-.605.138-.106.242-.02.3-.046.065-.03.118-.16.204-.204.028-.014.118.164.184-.01.055-.142-.148-.572-.025-.688.148-.14.255.38.32.489.071.114.149.09.163.112.083.133.273.64.386.737.096.082.214-.028.291.135.112.233-.357.791-.333.83l.015.021c.076-.147.155-.288.234-.408.083-.125.255-.224.341-.345.027-.037-.055-.129-.012-.198.018-.031.234-.149.248-.146.153.035-.014.244-.013.337 0 .05.122.122.112.189-.023.163-.121.221-.208.244.084.051.152.112.193.112.144.002.237-.218.347-.056.167.243-.223.407-.258.654-.01.067.142.078.084.154-.074.097-.376.08-.163.217q.039.025.074.037c.158-.17.298-.32.36-.366.044-.035.765-.445.81-.46.175-.062.277.06.353.032.096-.034.089-.306.213-.165.04.044-.078.48-.107.516-.095.116-.233.078-.314.058a1 1 0 0 1-.063.163c-.1.11-.185.095-.251.08l-.23.23-.066.129c.034.014.065.054.091.105.03.005.055.012.064.024q.007.014.005.044c.033.06.033.137.051.166.043-.005.116-.048.24-.156.017-.015-.003-.103.057-.167.06-.063.22-.059.287-.14.024-.028.025-.475.189-.504a4 4 0 0 1 .54.185c.018.017.232.379.256.423.06.113.117.448.14.458.127.052.178-.309.331-.289.117.015.34.667.48.627.058-.018.007-.614.015-.7.005-.056.09-.108.098-.165.008-.071-.216-.278.08-.464.23-.145.105.08.146.15.073.125.243.243.245.433 0 .076-.109.1-.108.114.007.09.082.166.085.259.016.483-.163.747.163 1.215a.6.6 0 0 0 .09.108.7.7 0 0 1 .117-.078c.068-.03.166.044.2.032.019-.008-.018-.15.06-.186.034-.016.134.046.169.016.121-.105.221-.355.305-.463.017-.02.109.03.157-.032.026-.033.074-.29.224-.463.089-.102.74-.612.83-.623.03-.004.242.11.242.128 0 .028-.118.06-.133.096-.103.246-.588.886-.786 1.152-.122.163-.363.242-.378.261-.02.027.022.173-.012.236-.03.057-.291.404-.123.448.248.062.2-.196.229-.227.07-.074.17-.112.247-.212.065-.083.384-.636.42-.65.068-.029.223.174.364.138.01-.003.043-.183.116-.154.056.022.058.168.114.189.062.024.414-.503.494-.575.058-.052.168-.018.204-.044.065-.049.077-.214.087-.22.012-.007.258.066.266.077.015.023-.035.492-.046.545-.003.018-.302.364-.05.255.245-.107.936-1.268 1.322-1.43.524-.219.117.655-.059.82-.073.068-.194.025-.21.038-.145.117.203.118.232.132.303.154.003.189-.015.33-.043.324.162.716-.21.94.05.465-.326.796-.317 1.286-.151.026-.132.205-.052.31.113-.042.244-.07.338-.125.038-.024 0-.14.068-.187a.2.2 0 0 1 .07-.017.8.8 0 0 1 .134-.226c.102-.11.356-.197.37-.214.038-.048-.023-.168 0-.197.017-.02.41-.286.433-.275.263.12-.08.497-.056.666.015.118.172.15.187.266.014.115-.186.398-.115.457.078.065.252-.022.37.057.065.042.168.38.189.386.299.105.351-.277.369-.3.025-.031.161-.036.206-.122.034-.067-.041-.15.018-.243.045-.07.194-.075.22-.156.005-.015-.087-.062-.053-.134.154-.333.438.028.365.324-.038.16-.207.15-.221.18-.027.054-.085.493-.172.67-.11.22-.346.304-.361.324-.036.044-.121.265-.173.323-.04.043-.452.329-.448.358.01.078.174.113.22.16.06.064-.097.318.299.185.087-.029 1.23-1.045 1.385-1.192.015-.014-.047-.29.236-.223.005.002-.005.114 0 .114.049.01.13-.05.204-.04.032.006.01.088.08.08.262-.029.879-.635 1.037-.346.067.124-.462.62-.475.676-.045.187.2.173.13.392-.046.144-.388.663-.587.658.006.192-.53.935-.532 1.014-.006.299.267-.051.335.103-.042.23-.625.415-.647.507a.5.5 0 0 0-.016.104c.371-.074.89-.158.947-.13.505.236-.407.517-.442.547l-.045.044.149.094c.085 0 .179 0 .227.031.02.011.26.32.27.339.237.511-.53.592-.513.641.05.137.246-.03.29-.025.087.01-.029.1.085.125.132.031.099-.228.14-.263a5 5 0 0 1 .6-.17c.082.007.13.119.197.124.242.02 1.074-.025 1.082.25.006.213-1.228.41-1.18.522.013.028.193.032.263.095.096.086.002.252.146.323.101.05.862-.26.948.196.043.232-.247.16-.303.19-.372.2-.099.307-.192.63-.034.118-.217.405-.337.602q.015.034.014.07c0 .078-.056.127-.1.174.044.057.131.08.165.151.08.17-.13.204-.051.316.118-.09.846-.297 1.007-.27.645.108-.656.746-.693.833-.023.054.055.402.018.565-.078.354-.494.57-.448.863.023.148.217-.027.3-.004.11.031.177.199.246.228.041.017.735-.197.846-.235.174-.06.729-.46.89-.3.314.31-.7.714-.674.813.008.029.496-.014.602.05.085.053.047.18.135.233.128.078.538-.021.511.107-.006.031-.427.404-.467.43-.168.11-.476.154-.589.22-.165.096-.247.234-.424.359-.004.178 0 .306-.299.12-.022.035-.075.062-.143.086-.03.213.422.46.65.495a.08.08 0 0 1 .057-.002l.008.005h.009c.021-.002.354-.202.368-.218.12-.14.357-.882.582-.639.117.127-.163.607-.275.91.022.026.049.054.092.049.042-.006.257-.153.487-.17h.056c.064-.033.125-.052.178-.043.1.017.155.044.182.077.269.032.569.08.61.112.013.01.04.083.059.15.068.021.12.06.145.124.07.185-.641.408-1.22.576.016.068.04.136.096.169.008.005.159-.099.19-.027.024.056-.077.16-.053.215.028.061.65-.064.757-.058.078.005.13.106.176.112.08.012.205-.097.216-.094.013.003.137.23.134.242-.005.028-.373.323-.418.353-.015.01-.472.044-.217.145.25.098 1.56-.236 1.946-.078.526.215-.38.546-.621.538-.1-.003-.156-.119-.176-.121-.185-.02.061.225.07.256.106.323-.13.136-.244.223-.259.2-.391.62-.812.516a1 1 0 0 1-.357.265l.214.107c.27.134-.476.332-.671.294a1.2 1.2 0 0 1-.224-.068 1 1 0 0 0-.098.089c-.195-.138-.357.273-.188.354.269.129.467-.122.756-.133.15-.006.391.113.412.11.061-.007.103-.136.14-.138.026-.003.492.087.5.11.101.272-.408.296-.511.432-.072.095.015.229-.056.32-.072.092-.412.151-.405.242.008.102.193.162.221.303.008.038-.03.134-.068.224q.047.007.054.012c.122.124.02.193-.086.233.149.182.407-.012.432-.015.04-.005.14.088.232.059.073-.023.078-.135.186-.158.082-.018.19.085.266.045.015-.008-.018-.106.057-.133.345-.127.29.329.03.487-.141.085-.253-.04-.283-.03-.059.02-.41.29-.595.352-.234.078-.46-.029-.486-.026-.057.006-.274.102-.35.106-.059.003-.552-.086-.57-.063-.049.064.043.203.041.27-.002.088-.293.155.08.342.083.04 1.61.13 1.825.135.02 0 .171-.239.324.01.002.005-.084.076-.081.08.027.04.129.057.172.116.018.026-.054.07 0 .113.205.165 1.07.172.977.488-.04.134-.765.112-.814.142-.164.1.019.263-.186.368-.135.07-.744.195-.88.051-.133.14-1.038.287-1.095.342-.216.207.224.152.163.31-.192.133-.735-.149-.816-.099-.367.228.049.327.046.382 0 .02-.138.104-.148.176-.017.11.099.386.07.537q.06.008.103.021c.026.008.012.112.087.134.04.012.297-.038.514.04.127.044.842.462.884.541.014.027-.013.265-.03.272-.027.01-.1-.086-.14-.087-.267-.005-1.04-.222-1.361-.309-.196-.054-.358-.249-.381-.256-.034-.008-.153.083-.225.075-.063-.006-.483-.123-.461.05.031.254.256.114.294.13.095.037.166.117.288.153.101.03.733.124.76.151.052.054-.08.271.005.39.006.007.185-.028.185.05 0 .061-.135.116-.134.176 0 .068.62.2.716.249.07.035.078.149.117.173.069.042.227-.007.235 0 .012.009.034.264.026.276-.016.022-.471.147-.524.157-.018.002-.45-.148-.256.046.188.188 1.524.406 1.815.705.396.407-.566.349-.785.245-.091-.043-.095-.17-.113-.181-.162-.093-.035.23-.038.264-.033.337-.174.072-.313.106-.317.08-.607.413-.951.15-.416.216-.863-.012-1.315.176-.124-.204-.438.107-.315.25.196.225.477.073.747.178.14.055.313.26.333.266.06.018.15-.083.184-.072.026.008.416.276.415.301-.015.289-.493.109-.642.192-.104.058-.076.216-.179.271-.102.056-.439-.026-.468.061-.033.096.112.226.082.366-.016.075-.291.295-.29.316.011.317.387.225.414.233.039.012.092.137.19.146.075.008.124-.092.233-.071.082.016.14.153.227.148.015 0 .025-.104.105-.1.367.021.134.417-.167.459-.164.022-.217-.138-.248-.14-.061-.006-.49.102-.686.085-.246-.02-.41-.209-.436-.216-.053-.017-.291-.015-.363-.042-.055-.02-.473-.3-.497-.285-.07.039-.042.203-.07.263-.036.08-.33.026-.062.346.06.07 1.424.76 1.618.85.019.01.253-.15.294.138 0 .006-.107.036-.107.043.01.048.097.102.113.174.007.031-.077.042-.045.104.122.233.913.585.7.837-.09.108-.746-.202-.803-.194-.19.027-.088.249-.318.264-.152.01-.759-.117-.828-.304-.177.076-1.065-.151-1.14-.124-.28.104.145.229.027.35-.229.045-.615-.43-.71-.415-.426.063-.085.318-.11.369-.008.017-.167.04-.206.101-.08.127-.06.63-.279.573-.142-.037-.045-.478-.122-.661a1.6 1.6 0 0 0-.17-.225.42.42 0 0 0-.281.003c-.264.083.388.643.473.81.037.07.106.486.146.54.068.095.176-.007.243.02.11.046.093.17.11.18.047.024.261.001.3.045.014.017.049.325-.104.372-.243.075-.853-.278-1.101-.41-.086-.045-.09-.179-.1-.185-.05-.027-.152.014-.226-.025-.05-.027-.06-.114-.083-.126-.084-.042-.552-.188-.626-.127-.217.18.114.374.165.492.1.23-.032.499.108.694.145.202.182.027.306.046.368.052-.044.252.061.41.045.068.33-.012.334.132.008.355-.399.223-.589.252-.397.06-.7.1-1.146.081-.025 0-.067-.02-.111-.038-.01.153-.036.298-.104.379q.004.012.003.015c-.104.258-.424.316-.596.417-.036.021-.088.138-.204.198-.079.04-.255.01-.266.02-.048.047.006 1.136.002 1.32-.002.116-.105.157-.107.189-.002.047.243.308.101.398-.165.104-.408-.296-.435-.3-.009 0-.067.078-.151.077-.075-.001-.352-.036-.366-.024-.097.077-.087.72-.113.747-.014.013-.153-.023-.183.009-.124.128-.079.439-.419.334-.137.035-.23-.064-.303-.201l-.012.01c-.025.028.014.64-.306.553.008-.075-.112-.382-.22-.627-.067.165-.17.334-.28.324-.203-.018-.477-.415-.558.257-.01.087.056.105.07.158.01.038-.063.12-.057.131.017.03.183.062.197.106.034.104.076.708-.025.748-.09.035-.164-.309-.211-.37-.08-.102-.218-.16-.293-.271-.087-.127-.15-.358-.244-.516-.139.024-.181-.084-.222-.169-.17-.01-.141.224-.191.334.032.2.061.396-.123.413a.22.22 0 0 1-.15-.036c.01.261.114.544.018.68a.24.24 0 0 1-.105.09c.142.208.257.42.152.452-.176.053-.83-.417-.953-.552l-.018-.02c.039.188.197.44.185.504-.03.17-.166.176-.191.235-.029.066.02.197-.015.288-.012.029-.197-.043-.13.13.054.142.493.326.478.493-.016.203-.443-.112-.565-.148-.13-.038-.17.033-.196.026-.15-.043-.632-.293-.78-.29-.126.004-.14.165-.307.096-.24-.098-.265-.827-.308-.84-.37-.103-.03.372-.034.412-.034.363-.441.276-.515.34-.108.095-.029.32-.22.275-.286-.07-.108-.451-.247-.66-.037-.056-.157.038-.165-.057-.01-.122.225-.312-.025-.271-.366.06-.12.48-.204.692-.032.08-.145.087-.187.199-.043.117.14.434-.11.61-.137.095-.358-.433-.358-.478.001-.237.188-.213.203-.296.004-.023-.098-.463-.121-.472-.031-.012-.131.093-.173.084-.058-.014-.191-.383-.256.158-.002.023.072.074.07.162-.002.087-.123.19-.12.296.003.036.301.37.199.5a4 4 0 0 1-.526.225 11 11 0 0 1-.473-.144c-.12-.043-.388-.255-.41-.246-.13.047.075.349-.054.437-.096.066-.7-.268-.775-.145-.033.053.406.462.457.53.033.046.004.141.038.188.041.058.347.063.252.399-.075.262-.133.01-.209-.014-.139-.044-.344-.019-.471-.158-.052-.057.013-.147.002-.157-.065-.062-.172-.068-.235-.135-.158-.164-.252-.32-.364-.453q-.044.014-.11-.038c-.03-.023-.038-.065-.046-.115a1 1 0 0 0-.417-.187h-.004c-.042.236-.032.598-.067.706-.025.076-.27.42-.28.486-.018.115.13.12.158.186.046.11-.054.186-.05.204.017.052.185.185.18.245 0 .02-.195.263-.337.19-.225-.119-.406-.8-.488-1.069-.029-.093.063-.19.06-.202-.016-.054-.118-.098-.142-.176-.016-.056.038-.125.03-.148a2.4 2.4 0 0 0-.212-.39l-.259.522c-.01.02-.148.002-.186.042-.048.05-.028.23-.203.287a.2.2 0 0 1-.131.006l-.007.033c-.04.245.11.147.184.247.223.297-.209.148-.246.334-.016.08.242.225.142.329-.245.257-.44-.124-.595-.238a5.4 5.4 0 0 1-.868-.753v-.001l-.033.02c-.07.028-.14-.048-.21-.035-.04.007-.088.047-.134.073q-.018.04-.024.044c-.246.105-.502-.06-.693-.12a3 3 0 0 1-.042.184c-.038.144-.17.292-.214.434-.013.043.094.105.075.185a1 1 0 0 1-.189.216c-.156.015-.064-.236-.094-.324-.016-.047-.154-.077-.167-.144-.057-.301.252-.343.25-.368-.003-.084-.224-.158-.197-.282a.3.3 0 0 1 .021-.057c-.177.143-.769.794-.887.907-.084.08-.186.036-.21.057-.034.032-.044.39-.21.353-.19-.044-.079-.497-.096-.519-.005-.007-.101.007-.16-.053l-.077-.088c-.053 0-.096-.005-.126.017-.08.062.013.318-.15.224-.03-.019-.053-.198-.062-.342-.178.13-.41.362-.437.362-.019 0-.092-.124-.136-.123-.182.003-.375.265-.543-.08-.029-.058.061-.345-.078-.338-.037.003-.442.463-.608.175.1-.081.41-.886.404-.937-.05-.398-.399.08-.567.02-.15-.054-.266-.448-.31-.445-.015.002-.099.075-.206.139-.106.146-.239.342-.34.15q-.014-.03-.006-.075-.017-.005-.031-.013c-.299-.146.08-.402-.134-.46a.13.13 0 0 0-.071.002c-.153.168-.32.606-.408.705-.053.06-.414.277-.451.334-.063.099.071.161.07.233-.001.12-.124.15-.127.169-.006.053.094.243.067.295-.01.02-.284.164-.385.04-.158-.197-.052-.895-.02-1.174.01-.096.134-.149.135-.161a.1.1 0 0 0-.009-.049.3.3 0 0 1-.071-.127l-.003-.01a.3.3 0 0 0-.029.04c-.03.053-.108 1.045-.3.943-.16-.087-.291-.88-.284-1.064a1.3 1.3 0 0 1 .055-.266c-.163.074-.35.1-.447.249-.134.208.042.179.071.3.086.361-.25.052-.36.208-.046.067.132.302 0 .359-.328.137-.354-.29-.45-.455a5.3 5.3 0 0 1-.496-1.036c-.022-.063.025-.273-.031-.294-.114-.042-.356.226-.378.226-.28-.002-.45-.278-.607-.4-.032-.026-.16-.032-.259-.118-.066-.059-.103-.233-.116-.24-.06-.027-1.055.422-1.228.486-.109.04-.186-.041-.215-.031-.044.015-.197.34-.333.24-.157-.116.126-.487.12-.515-.002-.008-.091-.032-.124-.106-.17.119-.31.21-.345.21-.416.01-.137-.353.039-.556-.215.049-.522.17-.547.159-.018-.008-.034-.151-.075-.168-.168-.07-.45.094-.466-.29-.003-.057.155-.246.094-.32a5 5 0 0 1-.334.293c-.078.03-.17-.048-.232-.023-.226.09-.952.5-1.081.257-.1-.188.916-.914.823-.991-.024-.02-.187.056-.277.032-.125-.035-.114-.225-.274-.224-.113 0-.656.616-.937.246-.142-.188.15-.253.187-.305.243-.345-.048-.319-.11-.65-.034-.185.07-.883.04-.917-.042-.047-.105-.046-.164-.056a.3.3 0 0 0-.054.029c-.05.037-.518.916-.652.746-.064-.081-.03-.36.026-.62-.119.1-.228.177-.285.194-.626.19.255-.959.25-1.054-.003-.058-.229-.336-.268-.498-.088-.35.189-.73.016-.97-.087-.123-.182.12-.265.136-.114.022-.248-.099-.322-.093-.045.003-.57.503-.653.586-.129.13-.447.736-.663.665-.419-.138.309-.95.242-1.027-.02-.023-.437.233-.562.223-.1-.01-.122-.139-.224-.148-.15-.014-.472.258-.506.13-.008-.03.202-.551.226-.592.102-.173.358-.35.43-.459.125-.19.117-.382.29-.625.063-.086.21-.102.23-.156.114-.339-.696-.351-.868-.233a4 4 0 0 0-.232.36c-.045.177.074.948-.236.83-.225-.085-.065-1.116-.25-1.162-.203-.05-.317.66-.565.734-.43.13-.161-.311-.314-.275-.042.01-.556.515-.784.305-.23-.212 1.247-1.378 1.357-1.564.015-.026.224-.55.172-.574-.242-.11-.291.42-.322.46-.07.094-.562-.067-.592-.141-.038-.094.278-.404.15-.549-.048-.054-1.212.371-1.395.382h-.822c-.149-.265.728-.543.726-.592-.001-.02-.37.01-.136-.212.126-.12 1.15-.089 1.09-.263a1 1 0 0 0-.133-.078H5.272c-.28.068-.782.163-.847.14a.8.8 0 0 1-.16-.223c.012-.025.133-.003.162-.027.202-.175.922-.532 1.217-.681.182-.092.434-.055.455-.065.013-.006.025-.036.04-.073-.012-.035-.004-.086.033-.158a.43.43 0 0 0-.092-.19.6.6 0 0 0-.177.048c-.095.046-.628.4-.667.396-.073-.005-.12-.255-.263-.285-.01-.002-.12.144-.173.085-.04-.045.023-.176-.017-.22-.046-.05-.595.266-.7.294-.075.02-.158-.059-.202-.05-.08.013-.163.156-.175.157a1.3 1.3 0 0 1-.204-.188c-.004-.027.25-.425.284-.467.011-.014.433-.192.159-.206-.268-.014-1.404.72-1.82.692-.568-.037.186-.639.418-.708.096-.029.184.064.205.06.182-.04-.13-.196-.148-.221-.202-.273.081-.17.16-.29.183-.27.175-.712.607-.746.162-.44.648-.57.858-1.011.228.069.252-.373.066-.396-.297-.037-.404.264-.675.367-.14.053-.406.017-.425.026-.056.026-.055.161-.09.176-.024.01-.493.074-.51.053-.182-.224.293-.409.348-.571.038-.113-.088-.212-.05-.322.04-.11.344-.273.308-.358-.04-.094-.235-.093-.306-.216-.04-.067.018-.414.003-.43-.22-.227-.439.093-.463.104-.037.017-.161-.04-.24.018-.06.045-.03.152-.125.209-.071.043-.207-.02-.268.042-.01.012.052.095-.011.145-.287.23-.38-.22-.184-.453.107-.126.253-.043.278-.061.049-.037.296-.404.453-.523.196-.15.444-.12.467-.13.052-.025.227-.184.299-.212.046-.018.408-.074.523-.106-.092-.036-.242-.07-.292-.132a6 6 0 0 1-.144-.397 41 41 0 0 0-1.61.424c-.02.006-.087.28-.31.094-.004-.004.056-.1.051-.103-.039-.03-.14-.013-.2-.055-.026-.018.029-.083-.036-.106-.248-.091-1.07.177-1.082-.153-.005-.141.69-.35.727-.394.123-.147-.102-.243.059-.408.106-.108.643-.422.818-.328a.3.3 0 0 1 .06-.073c-.043-.049-.062-.099-.046-.151.022-.07.181-.092.382-.095.244-.158.514-.312.534-.351.139-.265-.261-.073-.254-.242l.028-.03c-.249-.046-.536-.137-.497-.415.033-.233.284-.073.348-.083.416-.073.191-.26.383-.537.038-.055.132-.143.24-.235a.1.1 0 0 1 .046-.04l.003-.002c.105-.09.215-.18.292-.246-.103-.05-.152-.127 0-.252l.013-.01a.2.2 0 0 1-.032-.078c-.022-.187.188-.153.15-.283-.142.047-.898.012-1.041-.064-.578-.307.859-.497.922-.569.04-.044.076-.398.163-.541a.7.7 0 0 1 .123-.147c-.058.024-.149.085-.226.076-.032-.003-.344-.358-.36-.397-.118-.284.238-.366.605-.409-.04-.05-.117-.126-.199-.213-.224-.01-.5-.017-.568-.017-.183 0-.837.205-.939.002-.199-.394.892-.454.898-.556.002-.03-.474-.144-.555-.239-.064-.077.012-.185-.053-.263-.097-.115-.518-.15-.45-.264.015-.027.533-.247.579-.259.193-.05.5.005.628-.021.214-.044.344-.176.613-.23.024-.07.125-.122.232-.166-.012-.084.03-.126.093-.159a1.3 1.3 0 0 0-.225-.26 2 2 0 0 1-.18-.034 2 2 0 0 1-.175-.093 5 5 0 0 0-.303.07c-.157.095-.619.723-.755.421-.072-.161.367-.54.563-.792a9 9 0 0 1-.28-.186c-.202.072-.431.167-.556.1-.397-.211.106-.334-.027-.416-.037-.023-.759-.028-.77-.338-.01-.25 1.169-.162 1.759-.142.007-.107.016-.22.02-.23a.4.4 0 0 1 .071-.145c-.077-.128-.14-.283-.13-.33a.24.24 0 0 1-.098-.108 1 1 0 0 1-.083-.047c-.058-.061-.018-.176-.064-.224-.136-.144-.59-.52-.658-.766l-.438-.437c.082-.293.899.13.932.094.013-.015-.268-.254.054-.246.104.002.396.269.633.448.039-.053.075-.107.043-.185-.039-.096-.69-.338-.613-.683l-.062-.063c-.213-.212.557-.164.73-.066l.051.032c.056-.075.094-.187.24-.278.074-.047.263-.106.446-.16a.2.2 0 0 1-.024-.04c-.058-.164-.244-.714-.184-.99a.4.4 0 0 1-.057-.05c-.122-.154-.082-.226.036-.252-.169-.067-.415-.172-.424-.192-.126-.259.277-.18.32-.19.166-.038.749-.214.865-.19.164.034.267.173.283.176.017.002.061-.1.127-.096.104.008.156.16.188.192l.043-.036c.295-.21.748-.092.91-.34q.025-.038.013-.062l-.045-.043c-.062-.033-.165-.051-.191-.093-.062-.097.001-.266-.031-.334-.019-.04-.678-.346-.786-.391-.169-.073-.85-.146-.863-.373-.024-.44.999-.061 1.046-.152.013-.027-.377-.321-.413-.44-.028-.096.084-.165.056-.263-.042-.145-.414-.344-.308-.422.025-.018.588-.014.635-.007.197.031.456.205.584.231a1 1 0 0 0 .236.015c-.027-.196-.025-.465.098-.514.153-.06.462.083.45-.205a5 5 0 0 0-.385-.074c-.182.024-.856.417-.86.085-.002-.189.627-.37.884-.532-.03.002-.057 0-.069-.011a1.6 1.6 0 0 1-.158-.241c-.214-.015-.468-.019-.556-.13-.28-.353.23-.264.141-.392-.025-.036-.684-.328-.571-.618s1.741.655 1.955.688c.02.004.299.006.468-.013a1.4 1.4 0 0 0-.115-.197c-.134.001-.278.037-.304.03-.113-.03-.143-.548-.085-.603.029-.026.104-.017.193-.004.072-.108.22-.097.373-.067-.018-.113-.793-.987-.867-1.147l-.3-.764c.123-.151.407.091.606.276a.5.5 0 0 1 .19-.025c.018-.035.065-.044.168.003.073.003.137.005.171 0 .115-.02.135-.084.155-.104l-.133-.339c-.11-.28.576.072.695.23q.023.03.043.062a.7.7 0 0 0 .232-.047c.112-.06.051-.208.232-.222.124-.009.269.135.39.285-.025-.082-.068-.145-.065-.202.014-.215.087-1.053.366-1.074.02 0 .183.293.187.311l.005.035c.284-.063.296.356.513.48.058.033.124-.104.174-.022.063.104-.063.379.143.23.301-.216-.106-.484-.125-.71a.16.16 0 0 1 .028-.095c-.095-.067-.541-.287-.625-.334-.067-.037-.19.04-.218.026-.03-.013-.43-.425-.431-.456-.01-.287.326-.055.37-.046.132.024.54.075.751.129a.3.3 0 0 1 .03-.078c.08-.147.514.227.534.267.066.134.02.208-.017.265.005.04.007.075.016.084.025.024.172-.056.287.12.016.024.04.074.067.135q.017-.026.034-.031c.058-.015.343.257.159-.257-.008-.021-.097-.034-.134-.113s.025-.226-.026-.318c-.018-.032-.433-.198-.4-.36.006-.028.341-.424.37-.435.023-.009.438-.077.488-.082.127-.014.46.055.477.038.095-.1-.222-.279-.146-.415.057-.102.745-.071.758-.216.005-.062-.57-.232-.646-.27-.05-.026-.067-.125-.119-.152-.063-.034-.339.098-.403-.245-.05-.267.114-.068.192-.08.143-.023.316-.137.493-.069.072.028.053.138.067.142.086.027.185-.016.272.016.456.162.637.425 1.192.293.306-.073.189-.168.271-.302.025-.04.096-.042.125-.1.011-.02-.04-.093-.013-.169.019-.05.06-.027.11.004a.2.2 0 0 1-.01-.095c.082-.293.349-.091.532.089v-.01c-.015-.073-.085-.153-.08-.224.004-.075.047-.128.08-.17v-.147c0-.008.016-.017.037-.03-.016-.204-.056-.598.156-.645.057-.013.123.07.166.145.133.023.24.219.369.187.152-.038.366-.548.4-.554.048-.008.076.012.089.049q.037-.028.117 0c.067.025.087.136.165.234a.04.04 0 0 0 .014-.015c.042-.063-.003-.4.091-.51.038-.043.1-.033.152-.043a1 1 0 0 1-.046-.22c0-.08.122-.482.112-.549-.02-.114-.161-.071-.209-.126-.08-.09-.008-.194-.018-.21-.031-.043-.233-.118-.248-.174-.006-.022.101-.313.26-.287.25.04.639.63.802.857.056.079 0 .2.007.211.026.036.097.05.15.086a3 3 0 0 1-.039-.166c-.03-.147.021-.338-.003-.484-.008-.045-.13-.052-.149-.132-.008-.035.061-.27.074-.278.132-.083.162.183.228.248.035.035.172 0 .213.055.185.245-.072.419-.06.44.04.074.272.042.302.165.025.1-.021.47.003.504.008.011.068-.03.126-.025-.02-.099-.065-.201-.061-.261.012-.25.251-.432.213-.669-.04-.245-.151-.105-.254-.175-.305-.212.151-.208.128-.395-.01-.082-.3-.137-.239-.268.151-.32.456-.022.64.037.164.053.312.102.457.157l.001-.005c.082-.168.238-.154.273-.227.044-.091-.153-.28.035-.267.058.004.284.396.29.441.013.136-.09.207-.162.25q.081.041.17.09c.058.032.163.218.219.196.113-.045.113-.405.129-.42.208-.185.52-.094.719-.107.041-.003.14-.084.27-.086q.018 0 .036.005c.06-.122.33-.47.5-.45.127-.27.256-.556.298-.637.054-.102.165-.093.18-.12.023-.042-.081-.384.087-.402.066-.007.114.042.149.111.038-.087.077-.15.112-.152.096-.006.057.344.083.418q.014.034.033.07a.1.1 0 0 1 .047.013c.067.035.3.188.318.185.121-.026.398-.606.435-.62.017-.006.126.089.167.075.172-.061.271-.37.54-.098.046.046.052.346.182.295.034-.013.272-.578.52-.358a.3.3 0 0 0-.03.102c.071-.046.145-.037.176-.071.048-.053.044-.192.105-.268.02-.024.173.104.166-.082-.008-.152-.364-.467-.298-.621zm6.094 52.687c-.046-.032-.223-.255-.257-.23-.049.04.123.391.257.23m-5.324-.946c-.101-.13-.406.298-.217.27.045-.006.148-.234.217-.27m-5.436-.608c-.061.016-.044.407.143.312-.03-.047-.103-.323-.143-.312M39.55 49.76c-.29-.287-.168.584.173.555.059-.169-.101-.28-.173-.398-.012-.02.039-.119 0-.157m-1.024-.21c.045.135.186-.149.051-.103a.6.6 0 0 0-.051.102m-22.258-.024-.053.04a.08.08 0 0 0 .063-.015zm-2.517-1.161c.201.085.301-.829.095-.687-.055.038-.266.614-.095.687m28.904-.752c-.143-.107-.186.11-.161.151.081.134.375.01.16-.15m-29.652.066c-.006-.006-.182-.035-.152.056.044.132.205-.01.152-.056m30.882-.65c-.164-.023-.076.496.038.343.027-.037-.062-.27-.038-.343m.842-.61c-.048.008-.177-.042-.152.056.018.075.18.056.152-.057m3.592-2.483c-.055.01-.338-.023-.343.019-.008.062.363.19.343-.019m-38.679-.114c-.059-.058-.23.116-.152.19.059.057.23-.117.152-.19m-3.784-2.864c-.074-.05-.283.026-.19.114.078.076.222-.092.19-.114M51 40.511l.024.01.011-.024zm1.008-.253c.051-.07-.166-.088-.184-.05-.024.055.134.119.184.05m-.305-.044c.015-.036-.063-.145-.144-.107-.115.053.117.173.144.107m-45.24-.386-.01.003h.017zm-2.005-1.42c-.063-.023-.142.059-.136.104.014.103.135-.04.136-.104m2.584-.276c-.06-.084-.406.162-.448.343.123-.02.24-.028.29.029.026-.043.09-.13.156-.235.006-.057.012-.122.002-.137m-3.376.127c.357-.482-.537-.013-.548.098-.032.287.17.005.183 0 .05-.017.353-.083.365-.098m48.305-.284a2.3 2.3 0 0 0-.4.164c-.133.133.256.31.305.282.034-.02.119-.44.095-.446m-47.72-.181c-.005-.023-.204-.006-.17.085.039.104.188-.002.17-.085m47.204-.19c.058-.132-.237-.016-.106.04a.6.6 0 0 0 .106-.04m-46.444-.347c.007-.062-.02-.095-.112-.037a.2.2 0 0 0-.047.056.7.7 0 0 1 .158-.02zm47.582-.101c.076-.14-.292.005-.142.056a1 1 0 0 0 .142-.056m-.896-.919c-.047-.02-.165.097-.1.162.067.066.203-.119.1-.162m-47.09-.355c-.094-.005-.07.224.034.187.048-.017.058-.183-.034-.187m-1.248.104c.038.154.214-.2.068-.137a1 1 0 0 0-.068.137m50.531-.724c-.589.12.39.369.474.295.215-.191-.123-.117-.137-.123-.05-.02-.318-.174-.337-.172m-.563.005c.041-.103-.14-.125-.184-.05-.011.02.148.14.184.05m-.794-.14c.162-.283-.596.023-.257.081a.7.7 0 0 0 .257-.08M3.46 34.572c.01-.187-.397-.058-.415-.006-.012.038.206.406.228.396.02-.01.185-.355.187-.39m.446.32c.045.136.186-.148.051-.102a.6.6 0 0 0-.05.102m49.667-.255c.058-.086-.127-.062-.17-.015.03.06.145.051.17.015m-1.92-1.163c-.16-.098-.477-.353-.662-.328-.078.044-.127.096-.121.155.005.039.421.14.783.173m-49.768-.268c-.018-.059-.18 0-.17.085.009.087.182-.046.17-.085m.265-.104c.05-.117-.203-.05-.178.017.013.037.144.065.178-.017m50.128-1.511a.14.14 0 0 0 .01.076c.033.067.203.134.268.2.053.052.02.17.044.196.015.015.133-.07.197-.01.027.025.006.14.045.162a.7.7 0 0 0 .196.057c-.073-.136-.14-.337-.23-.422a2.7 2.7 0 0 0-.53-.26m-49.374-.67c0-.008-.105-.152-.147-.068-.063.124.151.138.147.068m51.552-.607h.028v-.027zm.527-.554c0-.039-.116-.107-.175-.04-.085.095.176.112.175.04m.297-.08c.02-.085-.187-.015-.188.027 0 .061.17.057.188-.027m-.896-1.616q.031-.006.04-.016l.004-.012-.044.03zm-.05-.463a.2.2 0 0 0-.048.04l.069.003q-.014-.042-.021-.043m-.621-.136c0-.143-.224.082-.081.08a.5.5 0 0 0 .081-.08m.864-.863c.014-.158-.265.122-.107.107.008 0 .106-.1.107-.107m-1.188-.486q-.015 0-.03.016a.27.27 0 0 0 .06.157c.046-.049.054-.175-.03-.174m-50.134-.297c-.001-.082-.244-.08-.242.027.001.082.244.08.242-.027m50.437-1.024q-.027.008-.032.032zm.793-.182a.3.3 0 0 0-.07.023c.028 0 .055-.006.07-.023m1.077-.184c.12-.262-.16-.059-.174-.058-.037 0-.198-.016-.298-.023l.312.155c.085-.022.148-.05.16-.074M54.47 23.9c.02-.102-.14-.006-.162.055.051.042.153-.01.162-.055M2.606 21.121c-.017-.087-.218-.182-.215-.055.002.11.222.092.215.055m1.45-2.246c-.017.036-.04.061-.022.1.012.026.124.154.23.269.041-.114.136-.097.196-.12l-.018-.085a3 3 0 0 1-.385-.165zm-.096-.6c-.035-.003-.072.02-.104.047.32.021.751.128.798.106a.3.3 0 0 0 .059-.063l-.025-.025c-.025-.026-.623-.055-.73-.065zm46.098-.951.016.008.019-.032-.019-.01zm-44.213-1.34c.032-.076-.193-.171-.233-.072-.032.076.192.17.233.072m45.293-.489c.02-.137-.188-.082-.161-.017.003.008.148.11.161.017m-44.43-.135a.2.2 0 0 0-.124.016c-.049.03-.02.072.037.11.047-.024.075-.069.087-.126m-.51-.361c-.132-.084-.342.157-.078.206.175.033.118-.18.077-.206m44.416-.469c-.142-.165-.638.608-.391.573.065-.009.512-.431.39-.572M8.953 11.636c-.101-.102-.101.215 0 .114a.5.5 0 0 0 0-.114m-1.231-.168a.22.22 0 0 0-.183.015c.018.134.133.184.238.231l.01-.082zm-.596-.05c.02-.086-.127-.253-.176-.135-.041.101.168.173.176.136m.216-.22.065.122c.016-.023.014-.056-.04-.105l-.025-.018m41.685-.364.02-.02-.02-.019zm-.02-.764c-.027-.027-.156.006-.152.095.007.127.204-.045.153-.095m-39.694-.1a.06.06 0 0 0-.02.05 1 1 0 0 0 .03.116c.018-.053.003-.112-.01-.165m39.848-.167c-.047-.073-.143.122-.114.153.042.043.16-.08.114-.153M47.02 9c-.013.017-.007.4.007.432.074.172.381-.125.373-.18-.005-.04-.366-.271-.38-.252m-.535.343c-.102-.101-.102.216 0 .114a.5.5 0 0 0 0-.114m0-1.221c-.102-.122-.102.273 0 .152a.7.7 0 0 0 0-.152m-1.912-.687c-.205-.254-.197.563-.018.268a.7.7 0 0 0 .018-.268m-30.576-.382c-.062-.076-.256.12-.094.19.133.058.112-.17.094-.19m30.997-.305c-.081-.076-.168.085-.114.152.015.018.186-.085.114-.152m-.497-.458c-.058-.086-.104.095-.076.152.066-.006.1-.115.076-.152m1.146-.4c-.1-.27-.154.072-.164.082-.038.038-.28.231-.284.25-.105.59.487-.227.448-.332m-29.927-.304c-.04.141-.095.28-.108.325a.4.4 0 0 0 .111-.135.6.6 0 0 0-.004-.19m2.292-2.343c.034-.053-.242-.331-.317-.136.054.015.293.17.317.136m3.047-.333c-.055.01-.096.053-.065.131zm14.14-.726c-.155.086-.112.276-.137.411-.004.024-.109.062-.106.116.023.407.516-.321.244-.527m-12.155.128c.138.093.29-.411.12-.325-.041.02-.065.27-.12.325m1.618-.846c-.108.141.007.298.038.432.006.024-.075.1-.05.15.184.363.344-.502.012-.582"/><path stroke="#f7f4ef" stroke-linecap="round" stroke-linejoin="round" stroke-width="2.243" d="M30.7 17.975a2.24 2.24 0 0 1 1.975 1.177l.545 1.01a2.24 2.24 0 0 0 1.974 1.178h2.24a2.243 2.243 0 0 1 2.244 2.243v10.095a2.243 2.243 0 0 1-2.244 2.244H19.487a2.244 2.244 0 0 1-2.243-2.244V23.583a2.243 2.243 0 0 1 2.243-2.243h2.24a2.24 2.24 0 0 0 1.973-1.176l.549-1.014a2.24 2.24 0 0 1 1.973-1.175z"/><path stroke="#f7f4ef" stroke-linecap="round" stroke-linejoin="round" stroke-width="2.243" d="M28.46 31.435a3.365 3.365 0 1 0 0-6.73 3.365 3.365 0 0 0 0 6.73"/></svg>