<svg xmlns="http://www.w3.org/2000/svg" width="259" height="39" fill="none" viewBox="0 0 259 39"><path fill="#2c8c3e" d="M232 0v1h2-1 1l1 1V1v1l1-1v1-1l1 1V1v1h1V1h1v1-1h1v1-1 1h1V0v1h1v1h1V1v2-1h1V0v2h3q-1 0 0 0h1v1h2V2l1-1v1l-1 1h1V2h1l1-1v3l1-1v2l1-1v1h-1v1l1-1h2-1v2h-1l1 1h-1v3l1-1q1 0 0 0l1 1v1h-1 1v1h1l1 1h-1q0 1 0 0l-1 1h1-1v1h2-3v1q0 1 0 0v1l1-1h2-1v1h-2v1h-1 1v1h-1 1l1-1v2h-1v1h1-1 1l-1 1h-1 1v1l1 1h-1 1v1h-2 1v1h-1v1h1v1q-1 0 0 0h-1v2h1v1l-1-1h-1v1h1v1h-2v2h-1l-1 1v-1h-1v1h-1v-1 2h-1v-1h-2v1-1h-1v1-1h-2v1l-1-1v1-1h-1v1-1h-1q0 1 0 0l-1 1v-1 1h-1v-1 1q0 1 0 0l-1-1v1h-1v-1l-1 1q0 1 0 0l-1 1v-1h-1v-1 1h-1v1-2 1h-1v-1 1l-1-1v1h-1q0-1 0 0v-1h-1v1h-1v-1h-1v1l-1-1v1-1h-1v1l-1-1q0 1 0 0l-1 1v-1l-1 1v-1 1q0 1 0 0l-1-1v1h-1v-1l-1 1h-1v1h-1 1v-1h-2v1-2h-2q0 1 0 0v1h-1q-1 0 0 0 0-1 0 0h-1v-1 1h-1v-1 1-1h-1v2-2l-1 1v-1 2-1h-1v-1 1h-1v1h-1l1-1v-1l-1 1v-1 1h-2l-1 1v-1h1-2v-1 1l-1-1v1h-1v-1 1l-1 1v-1h-1q0 1 0 0v1h-1v-2 1h-1v1-2l-1 1v-1h-1v-1 2-1h-2q2 0 0 0l-1 1v-1 1h-1v-1h-1l-1 1v-1 1l-1-1-1 1v-1h-1v1-1h-1v1-1 1h-1v-1 1h-1l-1-1h-1v1h1-1v1h-1v-2h-1v2-1h-1v-1h-1q0 1 0 0l-1 1q-1 0 0 0h-1v-1h-1v1h-1l1-1h-1l-1 1v-1q0 1 0 0v2h-1v-2 1-1 1h-1v1-2h-1v1l-1 1v-1q1-1 0 0v-1 1h-3v1-1h-1l-1-1v1-1l-1 1v-1l-1 1v1-1h-1v1-1h-1v1-2q-1 0 0 0h-1v2h-1 1v-2h-1v1-1h-1v1-1 1h-1l-1-1q0 1 0 0h-1v1-1l-1 1q0 1 0 0v-1l-1 1h-3v-1 1h-2v-1 1h-1q0 1 0 0l-1-1v1h-1v-1l-1 1v1-1l-1 1v-1q0 1 0 0h-1v-1 2h-1v-1h-2l-1 1v-2 1h-2l1-1h-1q0 1 0 0h-1v1l-1-1v1h-1q-1 0 0 0h-1v1-2l-1 1v-1 2-1h-1v-1 1h-1v1q-1 0 0 0v-1h-1q1 0 0 0h-1v1-1h-1v1-1h-2v1-1q0-1 0 0h-1v-1 1l-1 1v-1 1-1 1h-1v-1 1-1l-1 1v-1 2-1h-1v-2 1h-1v1-2 1h-1v-1 1-1h-1v1l-1-1q0-1 0 0v1l1 1-1-1h-1v-1l-1 1v-1 1h-1v-1 1h-4v-1l-1 1q0-1 0 0h-1v-1 1h-1q-1 0 0 0 0 2 0 0l-1-1v1h-2v1l-1-1v1l-1 1v-2h-1v1-1h-3v1-1h-1v-1 1h-2l1-1h-1v1-1l-1 1q0-1 0 0h-1v1h-1v-2 1l-1 1v-2l-1 1v1h-1v-1q1 0 0 0h-1v1h-1v-1 1h-1v-1h-1v1l-1-2v1-1l-1 2v-1 1h-1v-1l-1 1v-1h-1v2-3 1h-1v1-2 1h-1v-1 1l-1-1q0 1 0 0h-1v1-1q0-1 0 0v2-1h-1l-1-1v1l-1-1v1h-1 1-4q-1 0 0 0h-3v-1 1h-1l1 1h-1l-1-1h-2v1-1l-1 2v-2q0 1 0 0h-1v1h-1v-1h-2l-1 1v-2h-1v1h-1l1-1v1l-1-1v1h-1l1-1-1 1h-1q-1 0 0 0h-1v1-1h-1v-1 2h-1v-1h-1v1-1 1-1h-1v-1 2l-1-1-1 1v-1h-1l-1 1v-1h-1q1 0 0 0v1-1h-1v1h-1l1-1-1 1h-1v-1q0 1 0 0v2-1h-1v-1q0-1 0 0l-1 1h1-1v-2 1h-1v-1 1-1h-1v1l1 1-1-1h-1v-1l-1 1v-1 1h-1q0 1 0 0h-4v-1 1h-2v-1 1h-1q0 1 0 0l-1-1v1h-2v1l-1-1v2-1h-1 1v-1h-1v-1 1l-1 1v-2l-1 1h-1l-1 1v-1H9l1-1H9v1H8l1-1H7h1-1v-3H6l-1 1H4v-1h1v-1H4v1-1l-1 1v-1 1l1-2H1h1v-1h1-1q-1 0 0 0h1l-1-1-1-1h2-2 1v-1h1q-1 0 0 0v-1H2v-1H1h1v-1q-1 0 0 0H1v-1H0h2v-1H1v-1h1v-4H1h1-1v-2h1v-1H1h1l-1-1h1v-1l1-1q-1 0 0 0l-1-1 1-1H2h1V8h1-1V7h1V6l1 1V6h1L5 5h1v1-1h1V4h1-1 2V3q0 1 0 0h1V2v1-1h1v1-2 1h1v1-3l1 1v1-1 1l1-1v1-1h1v2-2l1 1v1-1h1v1-1q0-1 0 0h2-1V1h1v1h1V1v1h1v1-1h1l-1-1h1v1-1 1h1v1-1h1V1v2-1l1 1V1v1h1q-1 0 0 0v1l1-1v1-1h1v1h1l-1-1h1v1h1l-1-1h1V1l1 1h1v1h1V1v1h2V1q-1 0 0 0 0-1 0 0v1l1-1v1l1 1V2h1v1l1-1q0-1 0 0v1-1h1v1-1h1q0 1 0 0h5q0-1 0 0h1v1-1l1 1 1-1 1-1v1l-1 1h1q0-1 0 0V2v1-1h1v1h1l-1-1V1q1 0 0 0h1v2-1l1-1V0v2h1V1v1-1l1 1-1-1h1v1l1 1V1v2l1-1v1-2l1 1h1V1v1h1l1-1v1h1v1-1q1 0 0 0V1l1 1V1v2h1V1l1 1v1-1 1-2h1v1h1q0 1 0 0l1 1V2h1v1h1V2h1v1-1h1V1v1h1-1l1 1V2h2V1v1l1 1V1q0-1 0 0h1v1-1 1h1v1l1-1v1h1V2h1q-1 0 0 0h1v1-1 1l1-1v1-1l1 1V2h1l1 1q0-1 0 0V2h1v1-1h1v1-1h1v1h1V2h2-1v1l1-1v1-1 1-1h1v1-2 1h1v1-3l1 1v1-1l1 1V1v1-1h1v2-2h1v2-1h1v1-1h2V1q-1 0 0 0v1h1q1 0 0 0h1v1-1h1V1v1h1v1-1h1V1v2-1l1 1V1v1h1q-1 0 0 0l1 1V2h1v1h2l-1-1h1v1h1V2h1v1l1-1v1-1 1l1-1V1l1 1v1-1h1V1q-1 0 0 0 0-1 0 0v1l1-1v2-1l1 1V2h1v1l1-1q0-1 0 0v1-1h1q1 0 0 0 0 1 0 0v1-1l1 1q0-1 0 0l1-1v1h1V2h1v1h2V2v1h1V2v1h2V2h1v1h-1l1 1V3h1q1 0 0 0v1l1-1V2v1h1l-1-1V1h1v2h1V1v2h1V2h1V1v1l1 1V2l1 1V2v1-1h2V1v1h1v1-1h1v1-1h1v1-2 1h1v1h1V2h1l-1 1 1-1v1-2h1v2q0-1 0 0V2l1 1h1V2v1h1l-1-1 1 1h1V2h1-1 1l1 1V2h1-1v1h1V1h1v1h1V1q0-1 0 0h1v1-1 1h1v1l1-1v1h1V2h1l-1 1 1-1v1l1-1v1h1V2v1h1V2l1 1V2l1 1h1V2h1l-1 1h1V2l1 1h1l1-1v1-1l1 1V1v1l1 1V1h1-1v1h1q0-1 0 0h1V1v1h1v1-1h1v1-1l1 1V2h1V1v1h1v1-1h1v1-1h1v1-2h1v2h1V2h1v1-1 1-2h1v2-1h1v1h1V2l1 1V2h1v1-1h1q0 1 0 0h1v1l1-1-1 1h1V2h1V1v1h2-1V1h1v1h1v1q0-1 0 0l1-1h1v1l1-1v1-1 1h1V2v1h1V2l1 1 1-1v1-1l1 1q0-1 0 0h1V2h1v1-1h1v1h2V1v1h1v1-2h1q-1 0 0 0v2-1h1q1 0 0 0V1l1 1v1h1l-1-1h1v1q1 0 0 0l1-1v1-1q1 0 0 0h2v1h1V2v1h1V2v1h1V1v1h1v1l1-1v1-1l1 1V1v2h1V2v1h1V2h1v1h1l-1-1V1v1h1v1-1l1-1zM8 36q1-1 0 0m-5-8q-1 0 0 0M9 3Q8 3 9 3m20-1v1zm124 0v1zm39 0v1zm-82 1q1 0 0 0M70 2v1m183 0q0-1 0 0M75 2q-1 0 0 0M26 2q-1 0 0 0m132 0q1 0 0 0m74 0q0 1 0 0m-5-1"/></svg>