<svg xmlns="http://www.w3.org/2000/svg" width="259" height="39" fill="none" viewBox="0 0 259 39"><mask id="a" fill="#fff"><path d="M232 0v1h2-1 1l1 1V1v1l1-1v1-1l1 1V1v1h1V1h1v1-1h1v1-1 1h1V0v1h1v1h1V1v2-1h1V0v2h3q-1 0 0 0h1v1h2V2l1-1v1l-1 1h1V2h1l1-1v3l1-1v2l1-1v1h-1v1l1-1h2-1v2h-1l1 1h-1v3l1-1q1 0 0 0l1 1v1h-1 1v1h1l1 1h-1q0 1 0 0l-1 1h1-1v1h2-3v1q0 1 0 0v1l1-1h2-1v1h-2v1h-1 1v1h-1 1l1-1v2h-1v1h1-1 1l-1 1h-1 1v1l1 1h-1 1v1h-2 1v1h-1v1h1v1q-1 0 0 0h-1v2h1v1l-1-1h-1v1h1v1h-2v2h-1l-1 1v-1h-1v1h-1v-1 2h-1v-1h-2v1-1h-1v1-1h-2v1l-1-1v1-1h-1v1-1h-1q0 1 0 0l-1 1v-1 1h-1v-1 1q0 1 0 0l-1-1v1h-1v-1l-1 1q0 1 0 0l-1 1v-1h-1v-1 1h-1v1-2 1h-1v-1 1l-1-1v1h-1q0-1 0 0v-1h-1v1h-1v-1h-1v1l-1-1v1-1h-1v1l-1-1q0 1 0 0l-1 1v-1l-1 1v-1 1q0 1 0 0l-1-1v1h-1v-1l-1 1h-1v1h-1 1v-1h-2v1-2h-2q0 1 0 0v1h-1q-1 0 0 0 0-1 0 0h-1v-1 1h-1v-1 1-1h-1v2-2l-1 1v-1 2-1h-1v-1 1h-1v1h-1l1-1v-1l-1 1v-1 1h-2l-1 1v-1h1-2v-1 1l-1-1v1h-1v-1 1l-1 1v-1h-1q0 1 0 0v1h-1v-2 1h-1v1-2l-1 1v-1h-1v-1 2-1h-2q2 0 0 0l-1 1v-1 1h-1v-1h-1l-1 1v-1 1l-1-1-1 1v-1h-1v1-1h-1v1-1 1h-1v-1 1h-1l-1-1h-1v1h1-1v1h-1v-2h-1v2-1h-1v-1h-1q0 1 0 0l-1 1q-1 0 0 0h-1v-1h-1v1h-1l1-1h-1l-1 1v-1q0 1 0 0v2h-1v-2 1-1 1h-1v1-2h-1v1l-1 1v-1q1-1 0 0v-1 1h-3v1-1h-1l-1-1v1-1l-1 1v-1l-1 1v1-1h-1v1-1h-1v1-2q-1 0 0 0h-1v2h-1 1v-2h-1v1-1h-1v1-1 1h-1l-1-1q0 1 0 0h-1v1-1l-1 1q0 1 0 0v-1l-1 1h-3v-1 1h-2v-1 1h-1q0 1 0 0l-1-1v1h-1v-1l-1 1v1-1l-1 1v-1q0 1 0 0h-1v-1 2h-1v-1h-2l-1 1v-2 1h-2l1-1h-1q0 1 0 0h-1v1l-1-1v1h-1q-1 0 0 0h-1v1-2l-1 1v-1 2-1h-1v-1 1h-1v1q-1 0 0 0v-1h-1q1 0 0 0h-1v1-1h-1v1-1h-2v1-1q0-1 0 0h-1v-1 1l-1 1v-1 1-1 1h-1v-1 1-1l-1 1v-1 2-1h-1v-2 1h-1v1-2 1h-1v-1 1-1h-1v1l-1-1q0-1 0 0v1l1 1-1-1h-1v-1l-1 1v-1 1h-1v-1 1h-4v-1l-1 1q0-1 0 0h-1v-1 1h-1q-1 0 0 0 0 2 0 0l-1-1v1h-2v1l-1-1v1l-1 1v-2h-1v1-1h-3v1-1h-1v-1 1h-2l1-1h-1v1-1l-1 1q0-1 0 0h-1v1h-1v-2 1l-1 1v-2l-1 1v1h-1v-1q1 0 0 0h-1v1h-1v-1 1h-1v-1h-1v1l-1-2v1-1l-1 2v-1 1h-1v-1l-1 1v-1h-1v2-3 1h-1v1-2 1h-1v-1 1l-1-1q0 1 0 0h-1v1-1q0-1 0 0v2-1h-1l-1-1v1l-1-1v1h-1 1-4q-1 0 0 0h-3v-1 1h-1l1 1h-1l-1-1h-2v1-1l-1 2v-2q0 1 0 0h-1v1h-1v-1h-2l-1 1v-2h-1v1h-1l1-1v1l-1-1v1h-1l1-1-1 1h-1q-1 0 0 0h-1v1-1h-1v-1 2h-1v-1h-1v1-1 1-1h-1v-1 2l-1-1-1 1v-1h-1l-1 1v-1h-1q1 0 0 0v1-1h-1v1h-1l1-1-1 1h-1v-1q0 1 0 0v2-1h-1v-1q0-1 0 0l-1 1h1-1v-2 1h-1v-1 1-1h-1v1l1 1-1-1h-1v-1l-1 1v-1 1h-1q0 1 0 0h-4v-1 1h-2v-1 1h-1q0 1 0 0l-1-1v1h-2v1l-1-1v2-1h-1 1v-1h-1v-1 1l-1 1v-2l-1 1h-1l-1 1v-1H9l1-1H9v1H8l1-1H7h1-1v-3H6l-1 1H4v-1h1v-1H4v1-1l-1 1v-1 1l1-2H1h1v-1h1-1q-1 0 0 0h1l-1-1-1-1h2-2 1v-1h1q-1 0 0 0v-1H2v-1H1h1v-1q-1 0 0 0H1v-1H0h2v-1H1v-1h1v-4H1h1-1v-2h1v-1H1h1l-1-1h1v-1l1-1q-1 0 0 0l-1-1 1-1H2h1V8h1-1V7h1V6l1 1V6h1L5 5h1v1-1h1V4h1-1 2V3q0 1 0 0h1V2v1-1h1v1-2 1h1v1-3l1 1v1-1 1l1-1v1-1h1v2-2l1 1v1-1h1v1-1q0-1 0 0h2-1V1h1v1h1V1v1h1v1-1h1l-1-1h1v1-1 1h1v1-1h1V1v2-1l1 1V1v1h1q-1 0 0 0v1l1-1v1-1h1v1h1l-1-1h1v1h1l-1-1h1V1l1 1h1v1h1V1v1h2V1q-1 0 0 0 0-1 0 0v1l1-1v1l1 1V2h1v1l1-1q0-1 0 0v1-1h1v1-1h1q0 1 0 0h5q0-1 0 0h1v1-1l1 1 1-1 1-1v1l-1 1h1q0-1 0 0V2v1-1h1v1h1l-1-1V1q1 0 0 0h1v2-1l1-1V0v2h1V1v1-1l1 1-1-1h1v1l1 1V1v2l1-1v1-2l1 1h1V1v1h1l1-1v1h1v1-1q1 0 0 0V1l1 1V1v2h1V1l1 1v1-1 1-2h1v1h1q0 1 0 0l1 1V2h1v1h1V2h1v1-1h1V1v1h1-1l1 1V2h2V1v1l1 1V1q0-1 0 0h1v1-1 1h1v1l1-1v1h1V2h1q-1 0 0 0h1v1-1 1l1-1v1-1l1 1V2h1l1 1q0-1 0 0V2h1v1-1h1v1-1h1v1h1V2h2-1v1l1-1v1-1 1-1h1v1-2 1h1v1-3l1 1v1-1l1 1V1v1-1h1v2-2h1v2-1h1v1-1h2V1q-1 0 0 0v1h1q1 0 0 0h1v1-1h1V1v1h1v1-1h1V1v2-1l1 1V1v1h1q-1 0 0 0l1 1V2h1v1h2l-1-1h1v1h1V2h1v1l1-1v1-1 1l1-1V1l1 1v1-1h1V1q-1 0 0 0 0-1 0 0v1l1-1v2-1l1 1V2h1v1l1-1q0-1 0 0v1-1h1q1 0 0 0 0 1 0 0v1-1l1 1q0-1 0 0l1-1v1h1V2h1v1h2V2v1h1V2v1h2V2h1v1h-1l1 1V3h1q1 0 0 0v1l1-1V2v1h1l-1-1V1h1v2h1V1v2h1V2h1V1v1l1 1V2l1 1V2v1-1h2V1v1h1v1-1h1v1-1h1v1-2 1h1v1h1V2h1l-1 1 1-1v1-2h1v2q0-1 0 0V2l1 1h1V2v1h1l-1-1 1 1h1V2h1-1 1l1 1V2h1-1v1h1V1h1v1h1V1q0-1 0 0h1v1-1 1h1v1l1-1v1h1V2h1l-1 1 1-1v1l1-1v1h1V2v1h1V2l1 1V2l1 1h1V2h1l-1 1h1V2l1 1h1l1-1v1-1l1 1V1v1l1 1V1h1-1v1h1q0-1 0 0h1V1v1h1v1-1h1v1-1l1 1V2h1V1v1h1v1-1h1v1-1h1v1-2h1v2h1V2h1v1-1 1-2h1v2-1h1v1h1V2l1 1V2h1v1-1h1q0 1 0 0h1v1l1-1-1 1h1V2h1V1v1h2-1V1h1v1h1v1q0-1 0 0l1-1h1v1l1-1v1-1 1h1V2v1h1V2l1 1 1-1v1-1l1 1q0-1 0 0h1V2h1v1-1h1v1h2V1v1h1v1-2h1q-1 0 0 0v2-1h1q1 0 0 0V1l1 1v1h1l-1-1h1v1q1 0 0 0l1-1v1-1q1 0 0 0h2v1h1V2v1h1V2v1h1V1v1h1v1l1-1v1-1l1 1V1v2h1V2v1h1V2h1v1h1l-1-1V1v1h1v1-1l1-1zM8 36q1-1 0 0m-5-8q-1 0 0 0M9 3Q8 3 9 3m20-1v1zm124 0v1zm39 0v1zm-82 1q1 0 0 0M70 2v1m183 0q0-1 0 0M75 2q-1 0 0 0M26 2q-1 0 0 0m132 0q1 0 0 0m74 0q0 1 0 0m-5-1"/></mask><path stroke="#003712" stroke-width="2" d="M232 0v2h1V1h1-1 1l1 1V1v1l1-1v1-1l1 1V1v1h1V1h1v1-1h1v1-1 1h1V0v1h1v1h1V1v2-1h1V0v2h3q-1 0 0 0h1v1h2V2l1-1v1l-1 1h1V2h1l1-1v3l1-1v2l1-1v1h-1v1l1-1h2-1v2h-1l1 1h-1v3l1-1q1 0 0 0l1 1v1h-1 1v1h1l1 1h-1q0 1 0 0l-1 1h1-1v1h2-3v1q0 1 0 0v1l1-1h2-1v1h-2v1h-1 1v1h-1 1l1-1v2h-1v1h1-1 1l-1 1h-1 1v1l1 1h-1 1v1h-2 1v1h-1v1h1v1q-1 0 0 0h-1v2h1v1l-1-1h-1v1h1v1h-2v2h-1l-1 1v-1h-1v1h-1v-1 2h-1v-1h-2v1-1h-1v1-1h-2v1l-1-1v1-1h-1v1-1h-1q0 1 0 0l-1 1v-1 1h-1v-1 1q0 1 0 0l-1-1v1h-1v-1l-1 1q0 1 0 0l-1 1v-1h-1v-1 1h-1v1-2 1h-1v-1 1l-1-1v1h-1q0-1 0 0v-1h-1v1h-1v-1h-1v1l-1-1v1-1h-1v1l-1-1q0 1 0 0l-1 1v-1l-1 1v-1 1q0 1 0 0l-1-1v1h-1v-1l-1 1h-1v1h-1 1v-1h-2v1-2h-2q0 1 0 0v1h-1q-1 0 0 0 0-1 0 0h-1v-1 1h-1v-1 1-1h-1v2-2l-1 1v-1 2-1h-1v-1 1h-1v1h-1l1-1v-1l-1 1v-1 1h-2l-1 1v-1h1-2v-1 1l-1-1v1h-1v-1 1l-1 1v-1h-1q0 1 0 0v1h-1v-2 1h-1v1-2l-1 1v-1h-1v-1 2-1h-2q2 0 0 0l-1 1v-1 1h-1v-1h-1l-1 1v-1 1l-1-1-1 1v-1h-1v1-1h-1v1-1 1h-1v-1 1h-1l-1-1h-1v1h1-1v1h-1v-2h-1v2-1h-1v-1h-1q0 1 0 0l-1 1q-1 0 0 0h-1v-1h-1v1h-1l1-1h-1l-1 1v-1q0 1 0 0v2h-1v-2 1-1 1h-1v1-2h-1v1l-1 1v-1q1-1 0 0v-1 1h-3v1-1h-1l-1-1v1-1l-1 1v-1l-1 1v1-1h-1v1-1h-1v1-2q-1 0 0 0h-1v2h-1 1v-2h-1v1-1h-1v1-1 1h-1l-1-1q0 1 0 0h-1v1-1l-1 1q0 1 0 0v-1l-1 1h-3v-1 1h-2v-1 1h-1q0 1 0 0l-1-1v1h-1v-1l-1 1v1-1l-1 1v-1q0 1 0 0h-1v-1 2h-1v-1h-2l-1 1v-2 1h-2l1-1h-1q0 1 0 0h-1v1l-1-1v1h-1q-1 0 0 0h-1v1-2l-1 1v-1 2-1h-1v-1 1h-1v1q-1 0 0 0v-1h-1q1 0 0 0h-1v1-1h-1v1-1h-2v1-1q0-1 0 0h-1v-1 1l-1 1v-1 1-1 1h-1v-1 1-1l-1 1v-1 2-1h-1v-2 1h-1v1-2 1h-1v-1 1-1h-1v1l-1-1q0-1 0 0v1l1 1-1-1h-1v-1l-1 1v-1 1h-1v-1 1h-4v-1l-1 1q0-1 0 0h-1v-1 1h-1q-1 0 0 0 0 2 0 0l-1-1v1h-2v1l-1-1v1l-1 1v-2h-1v1-1h-3v1-1h-1v-1 1h-2l1-1h-1v1-1l-1 1q0-1 0 0h-1v1h-1v-2 1l-1 1v-2l-1 1v1h-1v-1q1 0 0 0h-1v1h-1v-1 1h-1v-1h-1v1l-1-2v1-1l-1 2v-1 1h-1v-1l-1 1v-1h-1v2-3 1h-1v1-2 1h-1v-1 1l-1-1q0 1 0 0h-1v1-1q0-1 0 0v2-1h-1l-1-1v1l-1-1v1h-1 1-4q-1 0 0 0h-3v-1 1h-1l1 1h-1l-1-1h-2v1-1l-1 2v-2q0 1 0 0h-1v1h-1v-1h-2l-1 1v-2h-1v1h-1l1-1v1l-1-1v1h-1l1-1-1 1h-1q-1 0 0 0h-1v1-1h-1v-1 2h-1v-1h-1v1-1 1-1h-1v-1 2l-1-1-1 1v-1h-1l-1 1v-1h-1q1 0 0 0v1-1h-1v1h-1l1-1-1 1h-1v-1q0 1 0 0v2-1h-1v-1q0-1 0 0l-1 1h1-1v-2 1h-1v-1 1-1h-1v1l1 1-1-1h-1v-1l-1 1v-1 1h-1q0 1 0 0h-4v-1 1h-2v-1 1h-1q0 1 0 0l-1-1v1h-2v1l-1-1v2-1h-1 1v-1h-1v-1 1l-1 1v-2l-1 1h-1l-1 1v-1H9l1-1H9v1H8l1-1H7h1-1v-3H6l-1 1H4v-1h1v-1H4v1-1l-1 1v-1 1l1-2H1h1v-1h1-1q-1 0 0 0h1l-1-1-1-1h2-2 1v-1h1q-1 0 0 0v-1H2v-1H1h1v-1q-1 0 0 0H1v-1H0h2v-1H1v-1h1v-4H1h1-1v-2h1v-1H1h1l-1-1h1v-1l1-1q-1 0 0 0l-1-1 1-1H2h1V8h1-1V7h1V6l1 1V6h1L5 5h1v1-1h1V4h1-1 2V3q0 1 0 0h1V2v1-1h1v1-2 1h1v1-3l1 1v1-1 1l1-1v1-1h1v2-2l1 1v1-1h1v1-1q0-1 0 0h2-1V1h1v1h1V1v1h1v1-1h1l-1-1h1v1-1 1h1v1-1h1V1v2-1l1 1V1v1h1q-1 0 0 0v1l1-1v1-1h1v1h1l-1-1h1v1h1l-1-1h1V1l1 1h1v1h1V1v1h2V1q-1 0 0 0 0-1 0 0v1l1-1v1l1 1V2h1v1l1-1q0-1 0 0v1-1h1v1-1h1q0 1 0 0h5q0-1 0 0h1v1-1l1 1 1-1 1-1v1l-1 1h1q0-1 0 0V2v1-1h1v1h1l-1-1V1q1 0 0 0h1v2-1l1-1V0v2h1V1v1-1l1 1-1-1h1v1l1 1V1v2l1-1v1-2l1 1h1V1v1h1l1-1v1h1v1-1q1 0 0 0V1l1 1V1v2h1V1l1 1v1-1 1-2h1v1h1q0 1 0 0l1 1V2h1v1h1V2h1v1-1h1V1v1h1-1l1 1V2h2V1v1l1 1V1q0-1 0 0h1v1-1 1h1v1l1-1v1h1V2h1q-1 0 0 0h1v1-1 1l1-1v1-1l1 1V2h1l1 1q0-1 0 0V2h1v1-1h1v1-1h1v1h1V2h2-1v1l1-1v1-1 1-1h1v1-2 1h1v1-3l1 1v1-1l1 1V1v1-1h1v2-2h1v2-1h1v1-1h2V1q-1 0 0 0v1h1q1 0 0 0h1v1-1h1V1v1h1v1-1h1V1v2-1l1 1V1v1h1q-1 0 0 0l1 1V2h1v1h2l-1-1h1v1h1V2h1v1l1-1v1-1 1l1-1V1l1 1v1-1h1V1q-1 0 0 0 0-1 0 0v1l1-1v2-1l1 1V2h1v1l1-1q0-1 0 0v1-1h1q1 0 0 0 0 1 0 0v1-1l1 1q0-1 0 0l1-1v1h1V2h1v1h2V2v1h1V2v1h2V2h1v1h-1l1 1V3h1q1 0 0 0v1l1-1V2v1h1l-1-1V1h1v2h1V1v2h1V2h1V1v1l1 1V2l1 1V2v1-1h2V1v1h1v1-1h1v1-1h1v1-2 1h1v1h1V2h1l-1 1 1-1v1-2h1v2q0-1 0 0V2l1 1h1V2v1h1l-1-1 1 1h1V2h1-1 1l1 1V2h1-1v1h1V1h1v1h1V1q0-1 0 0h1v1-1 1h1v1l1-1v1h1V2h1l-1 1 1-1v1l1-1v1h1V2v1h1V2l1 1V2l1 1h1V2h1l-1 1h1V2l1 1h1l1-1v1-1l1 1V1v1l1 1V1h1-1v1h1q0-1 0 0h1V1v1h1v1-1h1v1-1l1 1V2h1V1v1h1v1-1h1v1-1h1v1-2h1v2h1V2h1v1-1 1-2h1v2-1h1v1h1V2l1 1V2h1v1-1h1q0 1 0 0h1v1l1-1-1 1h1V2h1V1v1h2-1V1h1v1h1v1q0-1 0 0l1-1h1v1l1-1v1-1 1h1V2v1h1V2l1 1 1-1v1-1l1 1q0-1 0 0h1V2h1v1-1h1v1h2V1v1h1v1-2h1q-1 0 0 0v2-1h1q1 0 0 0V1l1 1v1h1l-1-1h1v1q1 0 0 0l1-1v1-1q1 0 0 0h2v1h1V2v1h1V2v1h1V1v1h1v1l1-1v1-1l1 1V1v2h1V2v1h1V2h1v1h1l-1-1V1v1h1v1-1l1-1zM33 37Zm41 0Zm42 0Zm41 0Zm40 0zM44 37Zm42 0zm41 0Zm41 0zm40 0ZM34 37zm41 0Zm42 0zm41 0Zm40 0zm-22 0zm40-1v1zm-40 0v1zM54 36v1zm42 0v1zm132 0zM46 36zm41 0zm42 0v1zm41 0zm40 0h-1zm-73 0Zm95 0zM13 36zm124 0zm40 0zM11 36zm41 0zm41 0zm82 0zm38 0zM8 36q1-1 0 0Zm41 0Zm41 0Zm43 0zm-1 0ZM8 36Zm124 0zm120-1zm0 0ZM8 34Zm247-1zM5 32zm-3-2zm1-1Zm0-1q-1 0 0 0zm253-2h-1zm-1 0zM2 23Zm0-1Zm0 0zm0-1zm253-1Zm1-2Zm0 0zm0-1zm0 0zm1-3v1zm0-3-1 1zm-1 0-1 1zm-1 0zM3 10zm-1 0zm253-1h-1zM4 8zm252-1Zm0 0zm0 0Zm-2-1Zm-1 0Zm-2-2-1 1zm1 1zM9 3Q8 3 9 3zm243 0zM29 2v1zm124 0v1zm39 0v1zM69 3zm42 0ZM69 3Zm41 0zM70 2v1Zm42 0v1zm140 1zm1-1v1Zm-79 1zM31 3zm164 0zm-39 0ZM75 2zm41 0zM26 2q-1 0 0 0zm40 0zm41 0zm43 0zm39 0zm39 0Zm17 0zm-87 0q1 0 0 0ZM34 2Zm164 0Zm15 0zM74 2Zm42 0zm117 0zM14 2zm40 0Zm41 0zm43 0Zm39 0zm39 0zm16 0V1q0 1 0 0ZM13 2zm40 0V1Zm42 0zm42 0V1Zm40 0-1-1zm38 0zm28 0ZM24 2Zm40 0Zm42 0Zm42 0Zm40 0Zm38 0Z" mask="url(#a)"/></svg>