<svg width="40" height="39" viewBox="0 0 40 39" fill="none" xmlns="http://www.w3.org/2000/svg">
<path d="M12.4232 37.1206C12.4239 37.3146 12.8234 37.0495 12.8369 37.0278C12.8662 36.9806 12.7055 36.7579 12.869 36.6818C12.8975 36.6685 13.0178 36.7211 13.0178 36.729V37.1508C13.0178 37.175 12.6987 37.3207 13.0673 37.5099C13.3629 37.6615 13.173 37.3365 13.3884 37.3002C13.6876 37.2498 13.4729 37.4871 13.5971 37.4818C13.689 37.4779 13.9211 36.8303 14.0883 37C14.2258 37.1395 13.6557 37.8246 13.9199 37.8397C13.9544 37.8417 14.417 37.4865 14.4384 37.4003C14.4451 37.3736 14.3043 37.2162 14.4849 37.2482C14.5267 37.2555 14.6178 37.3718 14.7317 37.3599C15.0492 37.3267 14.8484 36.4335 14.9382 36.3338C15.0349 36.2265 15.2231 36.4888 15.2365 36.5771C15.2533 36.6883 15.0748 36.9775 15.0982 37.1058C15.1136 37.1906 15.2099 37.1755 15.2203 37.2567C15.227 37.3079 15.1179 37.4429 15.1586 37.4817C15.1992 37.5204 15.5915 37.3511 15.6284 37.3104C15.7051 37.2258 15.8044 36.346 15.8758 36.1605C16.184 36.0806 15.9858 36.2667 15.994 36.3178C15.9961 36.331 16.1139 36.4585 16.1418 36.5004C16.1611 36.5297 16.2371 36.8791 16.3941 36.6703C16.4133 36.6448 16.3985 36.1504 16.6587 36.1844C16.8469 36.209 16.6141 37.1652 16.7928 37.3173C16.9439 37.4461 17.015 36.9567 17.0336 36.9414C17.1543 36.8414 17.1077 37.0746 17.12 37.1031C17.165 37.2065 17.2465 37.0222 17.2684 37.0146C17.3439 36.9889 17.427 37.0119 17.5003 36.9766C17.6203 36.9189 17.7005 36.7685 17.8521 36.7606C17.9048 36.7579 18.3686 36.8551 18.3926 36.8696C18.535 36.9563 18.2529 37.2646 18.2499 37.2928C18.2406 37.3837 18.3194 37.4337 18.312 37.496C18.3063 37.5442 18.0995 37.6663 18.2361 37.6929C18.3556 37.7161 18.5269 37.4453 18.547 37.4343C18.6337 37.387 18.6718 37.5177 18.7113 37.452C18.7452 37.3956 18.6944 37.329 18.7113 37.2988C18.7483 37.2325 18.8541 37.2583 18.9015 37.193C18.9697 37.0995 19.0696 36.7784 19.0881 36.7642C19.1091 36.7479 19.4407 36.6417 19.4988 36.6382V37.2558C19.4988 37.302 19.9111 37.4655 19.9609 37.393C19.999 37.3374 19.993 36.6126 20.0341 36.578C20.1207 36.5054 20.1628 36.7864 20.1821 36.8045C20.2751 36.8919 20.5033 36.8048 20.5769 36.8236C20.6713 36.8477 20.6762 37.0184 20.7778 36.986C21.1018 36.8823 20.4933 36.369 20.7367 36.249C20.9152 36.1609 20.8536 36.5052 20.8663 36.5179C20.8789 36.5306 20.9982 36.5012 21.0232 36.5174C21.0765 36.552 21.056 36.6197 21.1498 36.6387C21.2584 36.6605 21.2732 36.5491 21.3261 36.545C21.6934 36.5171 21.3937 36.9371 21.3495 37.0826C21.3026 37.2367 21.2671 37.4544 21.2166 37.6109C21.2049 37.6475 20.9911 37.9611 21.2373 37.9872C21.3862 38.003 21.3105 37.7462 21.345 37.726C21.3825 37.7042 21.4933 37.7393 21.5203 37.7226C21.5447 37.7074 21.6774 37.2545 21.6991 37.2411C21.8162 37.169 22.0369 37.4775 22.1149 37.3917C22.1747 37.3258 22.0491 37.0623 22.0555 37.0458C22.0829 36.9754 22.2009 37.016 22.2302 36.9961C22.2464 36.9851 22.2686 36.7023 22.3087 36.6091C22.3224 36.5774 22.4258 36.5456 22.4576 36.4873C22.4797 36.447 22.391 36.2242 22.5927 36.1722C22.6561 36.1559 22.8898 36.1963 22.9203 36.2604C22.9695 36.3641 22.8775 36.3884 22.8897 36.4397C22.8934 36.4556 23.0664 36.6194 23.0664 36.7136V37.3312C23.0664 37.351 23.2208 37.3271 23.2436 37.3451C23.3358 37.4173 23.2626 37.581 23.3483 37.572C23.4252 37.5638 23.4572 37.3297 23.4978 37.2715C23.5264 37.2307 23.8013 36.9714 23.8254 36.9081C23.9032 36.7029 23.5658 36.0475 23.7208 36.0059C23.9231 35.9515 23.8715 36.8373 23.9147 36.8494C24.1347 36.9103 24.3123 36.1784 24.3895 36.1874C24.4783 36.1977 24.4166 37.3109 24.4319 37.4386C24.4339 37.4544 24.4938 37.7172 24.5001 37.7318C24.5622 37.8763 24.7495 37.9118 24.8503 38.0242L24.7912 36.5182C24.9514 36.6712 25.1994 36.5104 25.2214 36.5182C25.3797 36.5737 24.9647 36.926 25.3077 36.9084C25.4772 36.8996 25.3828 36.7543 25.4874 36.6665C25.5512 36.613 25.6735 36.6059 25.8027 36.4653C25.9484 36.3064 25.7943 36.0837 26.1435 36.3376C26.2548 36.4186 26.1328 36.5266 26.4117 36.4876C26.6353 36.4562 26.5685 36.0263 26.9135 36.1345C27.091 36.1903 26.7802 36.8294 27.0092 36.9022C27.2458 36.9772 27.215 36.7727 27.2444 36.73C27.3402 36.5907 27.4516 36.4645 27.5519 36.3317C27.5693 36.3088 27.5126 36.2325 27.5261 36.2171C27.5377 36.204 27.8263 36.0727 27.8437 36.0735C27.9229 36.0774 27.9656 36.158 28.0173 36.1564C28.2308 36.1493 28.1068 35.3607 28.2775 35.3765C28.4483 35.3924 28.4037 35.6098 28.4924 35.5538C28.5572 35.5128 28.5255 35.3844 28.5815 35.3128C28.6437 35.233 28.7383 35.2597 28.806 35.2086C28.8513 35.1744 28.8086 34.9968 28.9232 35.0722C28.9442 35.086 28.9143 35.1991 28.9513 35.2372C28.9738 35.2605 29.4373 35.6144 29.4686 35.6221C29.5983 35.6544 29.6239 35.5547 29.7069 35.5608C29.7643 35.565 29.8615 35.6701 29.9277 35.6992C29.9812 35.7227 30.0568 35.664 30.0827 35.6744C30.0975 35.6805 30.0696 35.7919 30.131 35.8216C30.1574 35.8342 30.2347 35.7851 30.2615 35.8086C30.3561 35.8917 30.4338 36.089 30.4988 36.1737C30.5119 36.1908 30.5833 36.1507 30.6208 36.1992C30.6407 36.225 30.6782 36.4279 30.7953 36.5648C30.864 36.6451 31.3705 37.0478 31.4402 37.0561C31.4632 37.0588 31.6281 36.9697 31.6284 36.9551C31.629 36.9331 31.5369 36.9068 31.5254 36.879C31.4452 36.6845 31.0683 36.1799 30.9138 35.9699C30.8192 35.8413 30.6312 35.7789 30.6197 35.7638C30.6037 35.7421 30.6359 35.6275 30.61 35.577C30.5874 35.5329 30.3832 35.2583 30.5148 35.2243C30.707 35.1745 30.6703 35.3789 30.6928 35.4032C30.7468 35.4614 30.8246 35.4914 30.8851 35.5701C30.9355 35.6357 31.184 36.0721 31.2118 36.0839C31.2646 36.1062 31.385 35.9459 31.4948 35.9749C31.5021 35.9768 31.5279 36.1187 31.5846 36.0959C31.6287 36.0783 31.63 35.9634 31.6734 35.9467C31.7225 35.9277 31.9954 36.3436 32.0578 36.4003C32.1031 36.4413 32.1882 36.4142 32.2163 36.4354C32.2667 36.4736 32.2758 36.6037 32.2837 36.6087C32.2929 36.6144 32.4851 36.5569 32.4911 36.5479C32.5028 36.53 32.4638 36.1596 32.4552 36.1181C32.4524 36.1044 32.2199 35.8308 32.4158 35.917C32.6066 36.001 33.144 36.9179 33.4436 37.0448C33.8515 37.2177 33.5352 36.5285 33.3979 36.398C33.3408 36.3438 33.2471 36.378 33.2343 36.3676C33.1212 36.2758 33.3921 36.2753 33.4144 36.2639C33.6501 36.1421 33.417 36.1152 33.4025 36.0032C33.3698 35.748 33.5288 35.4391 33.2398 35.2627C33.2789 34.895 32.9856 34.6335 32.993 34.2474C32.8099 34.2154 32.9466 33.8952 33.084 33.9442C33.3033 34.0225 33.2736 34.2733 33.4266 34.4405C33.5059 34.5272 33.7037 34.5955 33.7139 34.6086C33.744 34.6466 33.6964 34.7419 33.7148 34.7642C33.728 34.7803 34.0332 34.9898 34.0513 34.9814C34.2557 34.8869 33.9893 34.589 34.0073 34.4554C34.0198 34.3626 34.1421 34.3371 34.1532 34.2457C34.1644 34.1544 34.0092 33.9317 34.0637 33.885C34.1239 33.8333 34.2594 33.9022 34.3521 33.8397C34.402 33.8063 34.4826 33.5408 34.4984 33.5351C34.731 33.4519 34.7719 33.7546 34.7853 33.7715C34.8051 33.7962 34.9109 33.7999 34.9456 33.8679C34.9726 33.9208 34.9139 33.9863 34.9601 34.0594C34.9952 34.1149 35.1116 34.1185 35.1318 34.1829C35.1355 34.1949 35.0635 34.2316 35.0897 34.2888C35.2095 34.5519 35.4304 34.2665 35.3743 34.0336C35.3438 33.9071 35.213 33.9145 35.2019 33.8919C35.1808 33.8488 35.1363 33.503 35.0683 33.3638C34.983 33.1895 34.8001 33.1232 34.7876 33.1074C34.7602 33.0726 34.6934 32.8981 34.6531 32.8529C34.6226 32.8188 34.3021 32.593 34.3051 32.5707C34.3134 32.5086 34.4405 32.4819 34.476 32.4439C34.5231 32.3936 34.4008 32.1935 34.7086 32.298C34.7761 32.3209 35.665 33.1229 35.7864 33.2391C35.798 33.2503 35.7493 33.4678 35.9695 33.4149C35.9738 33.4139 35.9655 33.3254 35.9698 33.3245C36.0073 33.3168 36.0716 33.365 36.1283 33.3558C36.1528 33.3517 36.1366 33.2871 36.1907 33.2931C36.3947 33.3159 36.8743 33.7939 36.9969 33.5657C37.0493 33.468 36.6378 33.076 36.6274 33.0323C36.5924 32.885 36.7827 32.8959 36.7281 32.723C36.6921 32.609 36.4268 32.1997 36.272 32.2036C36.2763 32.0519 35.8588 31.4655 35.8575 31.4031C35.8527 31.1672 36.0646 31.4432 36.118 31.3217C36.0858 31.1408 35.6321 30.9944 35.6152 30.9214C35.5385 30.5899 35.8215 30.7663 35.8505 30.7337C35.8611 30.722 35.8322 30.5988 35.8654 30.5527C35.9343 30.4573 36.3057 30.327 36.2014 30.1824C36.1342 30.0891 35.8425 30.2874 35.6876 30.2839C35.6294 30.2825 35.2273 30.1458 35.2093 30.1012C35.1989 30.0754 35.2803 30.005 35.2481 29.8841C35.2118 29.748 34.9429 29.3742 34.9588 29.3483C34.9722 29.3263 35.2383 29.3079 35.2873 29.272C35.3271 29.2428 35.2861 29.1881 35.3124 29.1505C35.3364 29.1166 35.4127 29.108 35.4298 29.0561C35.507 28.8231 35.2174 28.9176 35.1962 28.896C35.1879 28.8875 35.2093 28.7264 35.1802 28.6563C35.1297 28.5351 34.8353 28.3039 34.8398 28.2787C34.8579 28.1751 35.5704 28.274 35.6082 28.0631C35.6165 28.0162 35.4549 27.7805 35.6343 27.7253C35.7841 27.6792 35.7743 27.8545 35.8105 27.8744C35.8685 27.9063 35.9653 27.9053 36.0528 27.9501C36.1024 27.9754 36.0836 28.0597 36.1367 28.0785C36.1754 28.0922 36.5271 28.0927 36.5795 28.0829C36.7874 28.0441 36.7452 27.9238 36.7782 27.9075C36.9099 27.8424 37.4291 27.7126 37.4267 27.4978C37.4258 27.4089 37.3324 27.3677 37.3136 27.3075C37.2065 26.9623 37.1931 27.0098 36.9854 26.7201C36.9787 26.7107 37.0139 26.6096 36.9289 26.5227C36.7862 26.3771 36.6898 26.4615 36.6235 26.4253C36.575 26.3989 36.7313 26.272 36.6828 26.2449C36.6687 26.2369 36.3405 26.3094 36.4454 26.1552C36.4548 26.1415 36.7357 26.0784 36.7653 26.0831C36.9755 26.1164 37.1946 26.6298 37.4243 26.5595C37.7517 26.4593 37.2647 26.1585 37.2788 26.0522C37.2846 26.0094 37.5115 25.906 37.4856 25.8087C37.4823 25.7962 37.3443 25.7317 37.2923 25.6397C37.2636 25.5889 37.3151 25.5357 37.2941 25.4917C37.2803 25.4626 37.1925 25.4513 37.1559 25.3583C37.1259 25.2822 37.1489 25.0417 37.1922 25.0134C37.2641 24.9663 37.3971 25.0755 37.4713 25.0722C37.5537 25.0685 37.5891 25.0024 37.6741 24.9859C37.6991 24.9811 37.7665 25.0479 37.7962 25.0417C37.826 25.0355 37.8263 24.9395 37.8937 24.9232C37.9663 24.9056 38.1195 24.9693 38.2424 24.9473C38.347 24.9286 38.459 24.7865 38.5423 24.7696C38.7053 24.7367 39.0652 24.9003 39.0927 24.6344C39.1411 24.1675 38.0195 24.6534 38.4631 24.1464C38.3453 23.9557 38.5384 23.6058 38.1842 23.8284C38.1048 23.7044 37.5353 23.7038 37.6419 23.4796C37.6568 23.4482 37.8382 23.3629 37.8425 23.3517C37.8465 23.3413 37.7791 23.1479 37.7703 23.1411C37.7019 23.0881 37.5348 23.1439 37.546 23.0356C37.5491 23.005 37.6424 22.9975 37.6345 22.9759C37.6107 22.9097 37.4655 22.9393 37.4561 22.9304C37.4335 22.9088 37.5246 22.823 37.4396 22.7526C37.3547 22.6822 36.9606 22.7278 36.92 22.6388C36.8459 22.4765 37.1254 22.4229 37.2639 22.4162C37.3892 22.41 37.3392 22.6078 37.5006 22.5701C37.5899 22.5493 37.5917 22.4421 37.6662 22.4053C37.849 22.3152 38.1748 22.4481 38.3929 22.4416C38.9545 22.4251 38.6125 22.337 38.6161 22.3132C38.624 22.2616 38.8531 22.242 38.8531 22.1924C38.8531 22.1118 38.6467 22.1861 38.5856 22.1655C38.4692 22.1261 38.3419 21.9915 38.1564 21.9653C37.8508 21.922 36.4448 22.0736 36.3319 21.8407C36.298 21.7708 36.3526 21.5863 36.3254 21.5068C36.3203 21.4922 36.2111 21.2626 36.202 21.2502C36.1384 21.1631 35.852 21.0229 35.8413 20.9642C35.802 20.7467 36.0426 20.9501 36.1781 20.8367C36.222 20.8001 36.1971 20.6944 36.2529 20.671C36.3144 20.6454 36.3661 20.7497 36.4323 20.7622C36.4926 20.7735 36.5766 20.7286 36.6056 20.7389C36.6541 20.7561 36.9384 21.0806 36.9784 21.1459C36.9982 21.1783 36.9671 21.2876 36.9805 21.3036C36.9889 21.3135 37.2195 21.3669 37.2324 21.3653C37.3657 21.3479 37.0121 20.9053 37.3846 20.8542C37.6878 20.8126 37.4173 20.9599 37.5653 21.0276C37.6356 21.0597 37.858 21.0149 37.9695 21.0399C38.0656 21.0615 38.1577 21.1822 38.1855 21.1824C38.306 21.1828 38.0908 21.0191 38.2144 21.0031C38.33 20.9882 38.3065 21.1958 38.3932 21.213C38.6354 21.2611 38.4701 21.107 38.4971 21.0627C38.5058 21.0482 38.8182 21.069 38.8233 20.9872C38.8342 20.8141 38.4497 20.9428 38.428 20.943C38.3684 20.9434 38.374 20.7502 38.2363 20.7098C38.1533 20.6853 38.0573 20.7199 37.9843 20.6933C37.6071 20.5566 37.2546 20.5127 36.9386 20.4016C36.9224 20.3959 36.6909 20.2141 36.6799 20.2007C36.6424 20.1556 36.6366 19.9388 36.5202 19.857C36.3947 19.7686 36.2862 19.82 36.2416 19.7929C36.2282 19.7847 36.1979 19.5877 36.0701 19.5298C35.9484 19.4746 35.6938 19.5113 35.6724 19.4956C35.5542 19.4098 35.8695 19.3822 35.8893 19.369C36.0586 19.2559 35.7783 19.1448 35.759 18.9989C35.7358 18.8243 35.9176 18.5158 35.9067 18.4632C35.878 18.3239 35.6102 18.4014 35.6129 18.1849C35.6134 18.1421 35.8036 18.11 35.8587 17.9495C35.8777 17.8938 35.8144 17.5343 35.9859 17.7799C36.0104 17.815 35.9731 17.881 35.9874 17.9005C36.0632 18.0036 36.1854 18.1073 36.2636 18.2189C36.3077 18.2817 36.2779 18.379 36.3147 18.4148C36.4886 18.5844 36.655 18.1676 36.7227 18.175L37.3371 18.9998C37.405 19.0381 37.4856 19.0052 37.5106 18.9316C37.5177 18.9108 37.399 18.5285 37.3899 18.5085C37.3792 18.4849 37.244 18.4371 37.2184 18.3892C37.162 18.2838 37.2226 18.15 37.0295 17.94C36.9842 17.8908 36.6397 17.7081 36.626 17.6865C36.6083 17.6586 36.614 17.4634 36.5658 17.3707C36.4731 17.1927 35.8099 16.8144 36.4009 16.8144H36.9658C37.0408 16.8144 37.0586 16.6496 36.9947 16.574C36.867 16.4231 36.7004 16.5526 36.6251 16.5296C36.5986 16.5217 36.3437 16.2625 36.2828 16.2116C36.2546 16.188 36.058 16.1674 36.1485 16.0916C36.1821 16.0634 36.3875 16.1856 36.4735 16.1975C36.5595 16.2094 36.7242 16.1458 36.756 16.1562C36.8075 16.173 36.8529 16.4935 37.2162 16.2247C37.4082 16.0827 37.0424 16.0411 36.9673 15.9991C36.9175 15.9713 36.9383 15.898 36.9014 15.8793C36.8771 15.8671 36.4566 15.7193 36.3984 15.7023C36.1824 15.6393 35.6512 15.7395 35.6686 15.3223C35.6732 15.2116 35.7361 15.2497 35.7572 15.201C35.7672 15.178 35.7157 15.0824 35.7322 15.0673C35.792 15.0125 35.9323 15.1275 36.0112 15.1279C36.1162 15.1284 36.7437 14.9817 36.5365 14.8088C36.5183 14.7936 36.2122 14.862 36.0784 14.7916C35.8252 14.658 36.1946 14.6416 36.2102 14.6326C36.6299 14.3898 36.3612 14.2165 36.474 14.0042C36.5583 13.8456 36.8254 14.1241 36.8862 13.7505C36.9279 13.4947 36.6567 13.6196 36.4927 13.5886C36.0763 13.5097 36.5006 13.3079 36.5493 13.229C36.5991 13.1481 36.5022 12.9825 36.6654 12.9874C36.6729 12.9875 36.7479 13.1172 36.8023 13.0486C36.8184 13.0282 36.7745 12.9281 36.7889 12.8942C36.8179 12.8256 36.9325 12.677 36.9227 12.6126C36.9079 12.5158 36.8206 12.59 36.8023 12.5665C36.784 12.5429 36.8441 12.4371 36.8321 12.4163C36.7595 12.2895 36.6997 12.6206 36.6833 12.6435C36.63 12.7186 35.8145 12.831 35.7623 12.6115C35.9445 12.5939 35.8312 12.4581 35.8661 12.446C35.9826 12.4056 36.0146 12.6337 36.0787 12.6537C36.3239 12.7302 36.2205 12.3988 36.2739 12.3325C36.306 12.2925 36.4258 12.3548 36.4482 12.1909C36.4729 12.0114 36.3515 12.0486 36.3261 11.9493C36.2029 11.4685 36.5796 11.71 36.6413 11.6339C36.654 11.6182 36.6927 11.2502 36.686 11.2311C36.6192 11.0387 35.3807 11.4174 35.3753 10.9826C35.375 10.9603 35.5067 10.5774 35.5208 10.5602C35.536 10.5417 35.8603 10.273 35.8823 10.2637C35.979 10.2228 36.1092 10.2792 36.1949 10.1882C36.2782 10.0995 36.193 10.0315 36.2077 10.0065C36.2202 9.98524 36.5451 9.77629 36.5619 9.68614C36.6291 9.32659 36.0009 9.62961 35.9665 9.63021C35.6949 9.63549 35.808 9.4184 35.7633 9.3872C35.7074 9.34815 35.5109 9.38991 35.4944 9.37348C35.4804 9.35961 35.5403 8.99584 35.5545 8.98212C35.5725 8.96478 35.6567 9.02312 35.7269 8.92996C35.8087 8.82141 35.6327 8.65513 35.6448 8.51598C35.6528 8.42237 35.9503 8.13141 35.7165 8.10593C35.6235 8.09583 35.5402 8.30598 35.2782 8.22171C35.073 8.15568 35.5796 7.71442 35.6464 7.58311C35.675 7.52703 35.7288 7.19929 35.7601 7.15573C35.8132 7.08155 35.8971 7.16191 35.949 7.14005C36.0356 7.10387 36.0214 7.00573 36.0347 6.99849C36.0711 6.97874 36.2377 6.99698 36.2679 6.96231C36.2791 6.9495 36.3057 6.70633 36.1869 6.66879C35.9982 6.60939 35.5232 6.88904 35.3304 6.99246C35.2638 7.02819 35.2608 7.13402 35.2522 7.13884C35.213 7.1604 35.1339 7.12784 35.0774 7.15859C35.0375 7.1803 35.0298 7.24904 35.0125 7.25779C34.9466 7.2908 34.5827 7.40643 34.5253 7.35804C34.3561 7.21603 34.6138 7.06301 34.6538 6.97C34.7318 6.78864 34.6282 6.57668 34.7376 6.42261C34.8503 6.26371 34.8791 6.4015 34.9752 6.38748C35.2614 6.34557 34.9418 6.18818 35.0234 6.06366C35.0585 6.01014 35.2803 6.07256 35.2828 5.95934C35.2891 5.67924 34.9725 5.78341 34.8245 5.76065C34.5155 5.71301 34.2792 5.68225 33.9329 5.69687C33.8804 5.69913 33.7426 5.79396 33.7114 5.75853C33.6485 5.68708 33.7736 5.43245 33.7672 5.41647C33.6865 5.21235 33.4377 5.16742 33.3041 5.08768C33.2761 5.07094 33.2355 4.97913 33.1449 4.93179C33.0836 4.89983 32.9467 4.9235 32.9381 4.91521C32.9011 4.87918 32.9427 4.01928 32.9399 3.8741C32.9381 3.78289 32.8575 3.75018 32.8564 3.72531C32.8549 3.68822 33.0462 3.48259 32.9351 3.41159C32.8064 3.32943 32.6178 3.64465 32.5967 3.64767C32.5901 3.64857 32.5445 3.58691 32.479 3.58782C32.4205 3.58872 32.205 3.61541 32.1938 3.60651C32.1184 3.54591 32.1269 3.03817 32.1059 3.01676C32.0955 3.00621 31.9869 3.03485 31.9634 3.01012C31.8653 2.90701 31.9034 2.65344 31.6211 2.75143C31.5735 2.76801 31.465 2.97802 31.3923 2.89646C31.3731 2.87475 31.4036 2.39203 31.1541 2.46048C31.1644 2.56133 30.8917 3.18335 30.8603 3.20807C30.6133 3.40239 30.6847 2.94063 30.5593 2.88093C30.4463 2.82711 30.1657 2.98284 30.1438 2.95646C30.1279 2.93716 30.1239 2.58455 29.9339 2.51897C29.6889 2.43425 29.7573 2.78897 29.6074 2.70153C29.4311 2.59887 29.7439 2.07681 29.476 2.05253C29.1206 2.02027 29.256 2.84234 29.1774 2.98691C29.013 3.28948 28.7674 2.76048 28.8353 2.52666C28.8408 2.50766 29.0449 2.22665 29.0517 2.19756C29.0894 2.03806 29.0318 1.89635 29.055 1.81087C29.0678 1.76399 29.5712 1.1664 29.4099 1.11725C29.2729 1.07549 28.7646 1.44544 28.6682 1.55203C28.559 1.67263 28.4049 2.04741 28.3597 2.06776C28.2283 2.12716 28.1749 2.01756 28.0336 2.0361C27.7698 2.07077 27.5652 2.53841 27.3662 2.44646C27.3168 2.42354 27.3512 2.02178 26.8829 2.13831C26.7973 2.15957 26.6945 2.26525 26.6494 2.26389C26.3778 2.2553 26.4862 1.82866 26.4548 1.68439C26.4438 1.63374 26.1395 1.34218 26.0849 1.36132C25.8888 1.43007 26.1964 2.00701 26.0126 2.16032C25.9946 2.17525 25.5865 2.03414 25.5683 2.01937C25.4083 1.88957 25.7104 1.62831 25.6853 1.37384C25.6406 0.922478 25.3086 1.24916 25.2247 1.45223C25.2042 1.50198 25.1296 2.1555 25.0111 2.14419C24.8674 2.13032 24.8818 1.95861 24.8018 1.9357C24.7168 1.91143 24.5698 2.07877 24.451 2.05495C24.3671 2.03821 24.3671 1.92349 24.2713 1.91399C24.1853 1.90555 24.1723 2.06791 24.0615 2.08404C23.8613 2.11314 23.978 1.8059 23.6228 2.14449L23.106 1.5457C22.8593 1.46157 22.8557 1.92454 22.7558 1.87208C22.6421 1.81253 22.8095 1.39283 22.5789 1.41936C22.4648 1.43248 22.4242 1.79037 22.2821 1.87465C22.1964 1.92545 21.7752 1.99916 21.6882 2.05359C21.6623 2.06972 21.6007 2.31454 21.5218 2.20389C21.5027 2.17721 21.4874 1.70731 21.2635 1.63479C21.0582 1.56831 21.0957 1.96992 20.9548 2.06656C20.6797 2.25515 20.694 1.91414 20.6765 1.90012C20.4667 1.73263 20.266 2.10424 20.2001 2.0869C20.0534 2.04846 20.0409 1.44409 19.7601 1.54087C19.5357 1.61806 19.8701 2.36972 19.6638 2.26389C19.5713 2.2164 19.6442 1.92937 19.6189 1.90253C19.5964 1.87871 19.3093 1.99781 19.2229 1.84525C19.1738 1.75856 19.2406 1.5056 19.0365 1.48027C18.9264 1.46655 18.9429 1.59575 18.875 1.6461C18.8257 1.68273 18.7322 1.63766 18.6803 1.68982C18.6617 1.70851 18.6327 2.00203 18.5494 1.99268C18.3387 1.75163 18.8428 1.3565 18.8633 1.21148C18.9276 0.756046 18.5085 1.10067 18.3877 1.24238C18.2605 1.39177 17.8416 2.2054 17.7934 2.23691C17.7162 2.28726 17.6218 2.25891 17.5379 2.26434V1.7673C17.5379 1.6565 17.3814 1.55354 17.3356 1.49037C17.2736 1.40504 17.3637 1.26032 17.1736 1.27675C16.9543 1.29575 16.9289 1.57238 16.8079 1.69012C16.7716 1.7254 16.3564 2.07454 16.3264 2.08148C15.9564 2.1665 16.1842 1.92138 15.8481 1.82927C15.7017 1.78917 15.4977 1.79128 15.3976 1.90253C15.3128 1.71394 15.5013 1.50771 15.5183 1.407C15.5497 1.22142 15.4568 1.11363 15.4555 1.07655C15.4537 1.02423 15.5583 0.943733 15.5461 0.894287C15.4919 0.675995 15.0873 1.18916 15.0407 1.17951C15.05 0.969212 15.0645 0.186794 14.7866 0.154835C14.6688 0.141266 14.6075 0.296089 14.5247 0.27393C14.4741 0.260361 14.2612 -0.213608 14.1553 0.116997C14.0711 0.380062 14.2282 0.516647 14.2658 0.689861C14.2901 0.801121 14.2457 0.946445 14.2753 1.0663C14.3094 1.20469 14.4965 1.19278 14.4094 1.45947C14.3484 1.64625 14.2429 1.40293 14.1639 1.36012C13.9016 1.21826 13.9345 1.38951 13.835 1.41982C13.7868 1.43459 13.7624 1.3176 13.6792 1.30675C13.1758 1.24057 13.9158 2.12263 13.5926 2.22847C13.4186 2.28545 13.5316 2.12037 13.4925 2.04635C13.471 2.00535 13.3875 1.97369 13.3775 1.94022C13.3502 1.84932 13.4012 1.68484 13.3737 1.59454C13.3441 1.4973 13.214 1.11228 13.1809 1.03087C13.1402 0.931374 13.041 0.899113 13.0186 0.856899C13.0007 0.823433 13.0403 0.706146 13.0043 0.637402C12.9925 0.614788 12.6471 0.488304 12.6135 0.487701C12.1978 0.480316 12.6319 1.34851 12.6042 1.55414C12.5913 1.64987 12.4934 1.64459 12.4833 1.68348C12.4227 1.91776 12.468 2.13077 12.2597 2.32389L11.6921 1.93585C11.2088 2.26223 11.317 1.87886 11.1317 1.84118C10.7515 1.76369 10.8708 1.96027 10.819 2.12881C10.7878 2.23058 10.5474 1.76927 10.5121 1.73158C10.4325 1.6464 9.74747 1.12313 9.67458 1.12147C9.24107 1.11152 9.77871 1.62967 9.79225 1.66283C9.8952 1.91655 9.62414 1.65258 9.50275 1.6666C9.48609 1.66856 9.21102 1.80092 9.19793 1.81163C8.85517 2.08962 9.36142 2.41676 9.33241 2.44464C9.25044 2.52379 9.17115 2.33716 9.13857 2.32479C9.07535 2.30067 9.12473 2.4047 9.03622 2.38344C8.93372 2.35887 9.04663 2.18746 9.03071 2.14811C9.02149 2.12535 8.6948 1.82701 8.67234 1.81781C8.61209 1.79324 8.54023 1.85565 8.49173 1.83575C8.31664 1.76429 7.75162 1.44077 7.6512 1.63253C7.5734 1.78102 8.36394 2.35374 8.29149 2.41479C8.27275 2.43063 8.1463 2.37032 8.07608 2.38992C7.97879 2.41721 7.98727 2.56766 7.8623 2.56676C7.77468 2.56615 7.35174 2.07997 7.13364 2.37259C7.02311 2.52093 7.25057 2.57128 7.27929 2.61244C7.46852 2.8847 7.24135 2.86465 7.19419 3.12545C7.16771 3.27169 7.24834 3.82209 7.22469 3.84923C7.17485 3.90621 7.08723 3.87365 7.02817 3.92084C6.91302 4.0131 7.04751 4.11049 6.95438 4.16219C6.90291 4.05712 6.46791 3.65506 6.34682 3.61767C5.86005 3.46706 6.54542 4.37446 6.54096 4.44923C6.53813 4.49536 6.36318 4.71426 6.33194 4.84209C6.2641 5.11934 6.47877 5.41813 6.34488 5.60868C6.27719 5.70517 6.20296 5.51371 6.1378 5.50089C6.04958 5.48371 5.94559 5.57869 5.88713 5.57476C5.85306 5.5725 5.44351 5.17768 5.37924 5.11165C5.27882 5.00853 5.03202 4.53049 4.86332 4.58702C4.53767 4.69601 5.10372 5.33702 5.05106 5.39733C5.03544 5.41512 4.71098 5.21355 4.61443 5.222C4.53662 5.22878 4.51892 5.33145 4.43993 5.33868C4.32329 5.34939 4.07247 5.13456 4.04659 5.23481C4.04034 5.25908 4.20383 5.67019 4.22258 5.70245C4.30143 5.83858 4.50077 5.97803 4.55671 6.06426C4.65415 6.21442 4.64835 6.36653 4.78343 6.55753C4.83193 6.62597 4.94722 6.63849 4.96135 6.68085C5.05032 6.94799 4.42029 6.95779 4.2867 6.86477C4.27301 6.85527 4.11026 6.59748 4.10624 6.58105C4.07143 6.44085 4.16367 5.83271 3.92252 5.92572C3.74801 5.99311 3.87208 6.80688 3.72778 6.84336C3.56964 6.88331 3.48098 6.32311 3.28922 6.26416C2.95405 6.16105 3.16351 6.50989 3.04494 6.48155C3.01177 6.47356 2.61218 6.07482 2.43485 6.24095C2.25603 6.40859 3.40496 7.3288 3.4902 7.47563C3.50195 7.49598 3.66381 7.90935 3.62394 7.92774C3.43575 8.01442 3.39752 7.59729 3.37357 7.56442C3.31971 7.4904 2.93619 7.61794 2.91299 7.67613C2.88338 7.75015 3.12959 7.99467 3.02947 8.1088C2.99213 8.15146 2.08703 7.81573 1.94452 7.80744H1.30527C1.18967 8.01653 1.87177 8.23528 1.86998 8.27463C1.86924 8.29015 1.58242 8.26664 1.76436 8.44196C1.86284 8.53694 2.6586 8.51237 2.61352 8.65031C2.61159 8.65604 2.51548 8.71121 2.50938 8.71121H1.49851C1.2648 8.71121 1.71452 9.11342 1.86329 9.15503C2.12378 9.22785 2.38368 9.16106 2.64253 9.1781C2.35452 9.27398 2.50046 9.66338 2.27418 9.76679C2.16692 9.81579 2.06918 9.77373 2.01027 9.80192C1.85853 9.87459 1.2715 10.1696 1.33621 10.3813C1.34067 10.3957 1.60057 10.4306 1.61455 10.428C1.77046 10.3989 1.7056 10.3051 1.76972 10.2816C1.80854 10.2675 2.20783 10.2454 2.25588 10.2637C2.39989 10.3186 2.50641 10.8141 2.67288 10.9261C2.6281 10.9195 2.61828 11.0009 2.61352 11.0009H1.78102C1.75261 11.0009 1.40821 10.6841 1.34424 10.6306C1.29798 10.5919 1.31895 10.4803 1.30095 10.463C1.28295 10.4456 0.870571 10.2705 0.847512 10.2786C0.636114 10.3535 0.900473 10.5338 0.919068 10.5638C0.989435 10.6774 1.21333 11.1004 1.29039 11.1516C1.39929 11.224 1.53288 11.2041 1.54314 11.2119C1.55341 11.2198 1.52128 11.3019 1.5604 11.3361C1.62616 11.3937 1.7532 11.3244 1.77686 11.3346C1.80185 11.3455 1.78534 11.4764 1.946 11.5101C2.03169 11.5281 2.43054 11.5255 2.48811 11.4761C2.51176 11.4558 2.47532 11.2314 2.7611 11.3484C3.0137 11.4518 2.63658 11.5558 2.62542 11.5716C2.46118 11.8057 3.14967 11.9248 3.14893 12.1638C3.14863 12.2775 3.06458 12.2511 3.03468 12.3164C3.01088 12.3679 3.05595 12.4783 3.0018 12.525C2.95836 12.5625 2.59894 12.4407 2.58436 12.5524C2.58287 12.564 2.67318 12.6301 2.67213 12.6429C2.67005 12.6717 2.26258 13.0085 2.25722 13.0367C2.25499 13.0481 2.37594 13.2302 2.27151 13.2302H1.64713C1.60399 13.2302 1.08955 13.5247 1.09729 13.5762C1.11068 13.6644 1.90673 13.6759 1.95969 13.7276C2.02991 13.7962 1.90346 14.0641 1.92979 14.1034C1.93708 14.1143 2.08674 14.1339 2.16826 14.2086C2.63836 14.6398 1.80914 14.3078 1.7236 14.3303C1.41119 14.4123 1.73223 14.5635 1.76496 14.6473C1.8798 14.941 1.16914 14.8855 1.00952 14.9344C0.920853 14.9615 0.864174 15.0859 0.852719 15.0914C0.794848 15.119 0.699935 15.0779 0.642511 15.1049C0.556376 15.1453 0.541648 15.2416 0.502076 15.2638C0.432155 15.3028 -0.0308062 15.3823 0.00162495 15.5912C0.0132287 15.6661 0.218229 15.6848 0.246048 15.6734C0.283686 15.6577 0.251999 15.5775 0.312993 15.5535C0.402105 15.5185 0.570657 15.6238 0.719721 15.5445C0.784732 15.5099 0.770153 15.4165 0.816717 15.3999C0.866108 15.3824 0.928292 15.4662 0.992559 15.4626C1.14073 15.4542 1.5244 15.3592 1.61634 15.4908C1.64713 15.5348 1.62273 15.6351 1.67079 15.6922C1.73089 15.7635 2.04419 15.91 2.05074 15.9318C2.14 16.231 1.66543 16.2447 1.63627 16.3091C1.61678 16.3521 1.71259 16.5765 1.62749 16.6607C1.61768 16.6705 1.44659 16.6911 1.37117 16.7623C1.35585 16.7767 1.37415 16.852 1.33442 16.8899C1.27849 16.9435 1.03511 17.0656 1.03526 17.1321C1.03585 17.2986 1.44169 17.3642 1.55668 17.4492C1.70872 17.5619 1.64802 17.6582 1.68834 17.7049C1.72866 17.7517 2.14282 17.9296 1.95419 18.0459C1.91714 18.0689 1.64758 18.0098 1.77879 18.3045C1.79471 18.3404 1.90777 18.3067 1.9463 18.3827C1.9771 18.4433 1.89542 18.5739 1.95195 18.7062C1.99748 18.8128 2.16767 18.8085 2.18522 18.955C2.19697 19.0531 2.04345 19.1056 2.05103 19.2683C2.05862 19.4309 2.19668 19.4466 2.19906 19.5114C2.20367 19.6451 1.47367 20.0575 1.88813 20.1285C1.95657 20.1402 2.12795 20.0906 2.13747 20.0997C2.22152 20.1794 1.80795 20.3428 2.0848 20.5444C2.13122 20.5782 2.27537 20.5056 2.28266 20.6219C2.28415 20.6455 2.06769 20.9244 2.0488 20.9297C2.02321 20.937 1.63464 20.7554 1.60265 20.8684C1.57766 20.9566 2.20545 21.3882 2.01488 21.4818C1.89527 21.5406 1.28444 21.503 1.19086 21.7467C1.05177 22.1094 1.72851 21.845 1.72122 22.0127C1.71973 22.0456 1.48929 21.9984 1.43722 22.088C1.38426 22.179 1.55133 22.2928 1.48572 22.4044C1.40643 22.5392 1.44169 22.3551 1.40658 22.3251C1.35272 22.279 1.25037 22.3396 1.18938 22.3135C1.09208 22.2719 0.853016 22.017 0.859115 22.2809C0.86343 22.4745 1.313 22.7169 1.33145 22.8603C1.3371 22.9036 1.1806 23.2836 1.18759 23.3059C1.19682 23.3356 1.61797 23.5902 1.65353 23.6994C1.65978 23.7185 1.58986 23.7772 1.61396 23.8361C1.66365 23.9573 1.78177 23.9674 1.78355 24.1515C1.78474 24.2683 1.615 24.6357 1.67629 24.739C1.68789 24.7584 2.04806 24.8729 2.09953 24.8852C2.16543 24.9011 2.20902 24.8258 2.28683 24.8412C2.34321 24.8524 2.48275 25.0004 2.4347 25.0402C2.41581 25.0559 1.98349 25.1522 1.95924 25.1492C1.8685 25.1376 1.25811 24.4829 1.30467 24.9018C1.3194 25.0345 1.52871 25.1432 1.50045 25.2522C1.42681 25.5369 1.15501 25.3758 1.09446 25.4751C1.06917 25.5166 1.04924 25.6556 1.06694 25.6732C1.09818 25.7043 1.88769 25.6818 1.94109 25.7103C2.01473 25.7496 1.98334 25.8493 2.03794 25.887C2.09254 25.9247 2.28534 25.9091 2.31123 25.9488C2.36181 26.026 2.2596 26.2728 2.25276 26.3819C2.24696 26.4749 2.33057 26.5333 2.31718 26.6198C2.302 26.7187 2.07097 26.7686 2.1812 26.9394C2.22345 27.005 2.80707 27.0837 2.91983 27.1247C2.97606 27.145 2.98395 27.2358 3.02888 27.2552C3.09061 27.2818 3.37565 27.2503 3.35676 27.3749C3.35334 27.3974 2.97472 27.5649 2.95286 27.5697C2.81882 27.5993 2.32328 27.4583 2.41001 27.79C2.42578 27.8504 2.51935 27.8723 2.5195 27.9425C2.51965 28.0372 2.23416 28.278 2.19876 28.3772C2.16261 28.4783 2.11277 28.8694 2.24577 28.9226C2.39275 28.9814 2.72108 28.7972 2.54464 29.2996C2.52158 29.3652 2.46936 29.354 2.44125 29.3863C2.42072 29.41 2.44288 29.4935 2.43485 29.4992C2.41254 29.5152 2.28608 29.4787 2.26124 29.5046C2.20188 29.5666 1.96237 29.978 2.01875 30.0415C2.06918 30.0982 2.24026 29.8809 2.29486 29.8547C2.38591 29.8108 2.50135 29.8179 2.59344 29.7656C2.7544 29.6741 2.9591 29.3905 3.13286 29.438C3.30662 29.4855 3.14715 29.6878 3.17586 29.7802C3.19564 29.8438 3.30142 29.7679 3.29651 29.9028C3.28713 30.1659 2.95643 30.408 2.98335 30.584C3.04271 30.9725 3.67333 30.4776 3.68315 30.7791C3.68791 30.9231 3.3514 31.1143 3.33281 31.1786C3.29487 31.3102 3.3874 31.3615 3.38473 31.4123C3.38175 31.4682 3.30276 31.5442 3.29532 31.6205C3.29294 31.6451 3.4475 31.6589 3.34084 31.7581C3.25351 31.8392 2.88383 31.8153 2.83518 31.9387C2.77642 32.0881 3.18285 32.0152 3.28059 32.0326C3.38383 32.0512 3.38815 32.1156 3.40793 32.1192C3.52814 32.1413 3.94989 32.1343 4.0518 32.189C4.13882 32.2357 4.09196 32.3536 4.2327 32.3639C4.43323 32.3785 4.70384 31.873 4.73865 31.8796C5.03202 31.936 4.63035 32.1525 4.61904 32.1819C4.51684 32.4508 4.83059 32.5321 4.8593 32.603C4.90185 32.7079 4.76855 32.8395 4.91747 32.874C5.14106 32.9259 5.14925 32.5935 5.31839 32.4955C5.36392 32.4691 5.41524 32.5772 5.45347 32.5127C5.50242 32.4302 5.40453 32.2134 5.56475 32.3304C5.79921 32.5013 5.48233 32.7121 5.46731 32.8916C5.46166 32.9598 5.53827 33.004 5.5283 33.097C5.51774 33.1954 5.28105 33.3545 5.39352 33.5663C5.45526 33.6825 5.79326 33.3869 5.80873 33.3551C5.88995 33.1873 5.75116 33.1384 5.76945 33.0751C5.77481 33.0567 5.99885 32.7819 6.01775 32.7839C6.04333 32.7864 6.07651 32.896 6.10849 32.9037C6.15402 32.9146 6.37508 32.7005 6.23197 33.106C6.22602 33.1229 6.15625 33.1332 6.12724 33.1954C6.09823 33.2577 6.14717 33.3735 6.10745 33.4466C6.09362 33.4719 5.7702 33.6023 5.79638 33.7304C5.80084 33.7525 6.06148 34.0648 6.08439 34.0739C6.10224 34.0809 6.42522 34.1342 6.46375 34.1387C6.56268 34.1501 6.82228 34.0953 6.83507 34.109C6.90886 34.1874 6.66235 34.3286 6.72096 34.436C6.76515 34.5168 7.30071 34.4924 7.31082 34.6062C7.31514 34.6549 6.86809 34.7892 6.80844 34.8198C6.76902 34.8402 6.75607 34.9179 6.71665 34.9392C6.66726 34.9657 6.45319 34.8614 6.4029 35.1323C6.36378 35.3431 6.49172 35.1857 6.55271 35.1956C6.66428 35.2136 6.79862 35.3034 6.93593 35.2499C6.99172 35.2282 6.97744 35.1415 6.9883 35.138C7.05509 35.1171 7.13156 35.1503 7.1997 35.1255C7.55406 34.9972 7.69479 34.7901 8.12681 34.8943C8.36528 34.9519 8.27409 35.0275 8.33761 35.1322C8.3571 35.1643 8.41259 35.1658 8.43535 35.2109C8.44368 35.2273 8.40337 35.2847 8.42479 35.3444C8.45558 35.4307 8.57207 35.2448 8.64898 35.3143C8.6588 35.323 8.55213 35.5606 8.75639 35.4073C8.76591 35.4001 8.91661 35.1198 8.91661 35.2838V35.7809C8.91661 35.7986 9.01926 35.8345 9.03191 35.876C9.04782 35.9277 8.97136 36.0475 9.07311 36.1495C9.24062 36.3169 9.3464 36.0171 9.48207 36.0515C9.60109 36.0816 9.76741 36.4838 9.79374 36.4882C9.98892 36.5203 9.74911 35.9612 9.74911 35.9316V35.4646C9.9492 35.5975 9.87898 36.0821 9.93135 36.1988C9.96318 36.2696 10.0649 36.2334 10.0929 36.2759C10.1258 36.326 10.0907 36.5927 10.1643 36.6785C10.2036 36.7243 10.2774 36.6944 10.3229 36.7279C10.3617 36.7565 10.3852 36.8499 10.434 36.8666C10.7513 36.9754 10.6853 36.6733 10.7006 36.5089C10.7031 36.4816 10.7573 36.4992 10.7598 36.4739C10.7606 36.4671 10.6912 36.422 10.6985 36.3534C10.7156 36.1891 10.7539 36.2248 10.7612 36.198C10.7707 36.163 10.7186 36.0911 10.7301 36.0671C10.7732 35.9771 11.1108 36.2036 11.157 36.255C11.0703 36.5334 10.9385 36.8882 10.8814 37.1692C10.8579 37.2848 10.8982 37.436 10.8791 37.5513C10.8733 37.5867 10.7777 37.5926 10.7631 37.655C10.7567 37.6826 10.8104 37.8684 10.8198 37.8744C10.9232 37.9401 10.9465 37.7306 10.9977 37.6789C11.0248 37.6514 11.1313 37.6789 11.1634 37.636C11.3079 37.4426 11.107 37.3056 11.1169 37.2878C11.1486 37.2298 11.3283 37.2552 11.3521 37.1585C11.3716 37.079 11.3353 36.7871 11.3546 36.76C11.3632 36.7481 11.4552 36.8206 11.5051 36.7481C11.5743 36.6475 11.466 36.5232 11.6236 36.4751C11.7041 36.4505 11.7833 36.5465 11.8524 36.4819C11.873 36.4624 11.7796 35.9732 11.9488 36.1873C11.9973 36.2487 11.9269 37.1562 11.9477 37.3184C11.9535 37.363 12.1249 37.9936 12.1407 38.0268C12.2036 38.1593 12.3253 38.1483 12.3527 38.2057C12.3869 38.2778 12.2332 38.4265 12.3793 38.4167C12.4247 38.4136 12.6007 38.1041 12.6042 38.0686C12.6209 37.9036 12.4247 37.8596 12.4247 37.8295V37.1215L12.4232 37.1206ZM12.4825 36.94C12.519 36.9783 12.4134 37.1205 12.369 37.0255C12.3158 36.9117 12.4684 36.9252 12.4825 36.94ZM23.5721 36.9696C23.5442 36.9599 23.4904 37.0074 23.4835 37.0002C23.4349 36.9488 23.5604 36.8943 23.5721 36.9696ZM13.375 36.6385C13.4994 36.6643 13.4637 36.923 13.3893 36.9094C13.3563 36.9034 13.3829 36.6836 13.375 36.6385ZM25.3858 36.4277C25.3224 36.501 24.9923 36.1131 25.2327 35.9773C25.3004 35.9392 25.4871 36.0053 25.506 36.0567C25.5157 36.083 25.3985 36.4131 25.3858 36.4277ZM32.7676 35.697C32.6861 35.2308 33.1458 35.876 33.1156 35.9589C33.0381 36.1725 32.996 35.9028 32.9876 35.8942C32.9583 35.8642 32.7701 35.7117 32.7675 35.697H32.7676ZM32.2239 35.6441C32.1783 35.712 32.1431 35.569 32.165 35.5238C32.2166 35.5289 32.2434 35.615 32.2239 35.6441ZM32.6104 35.2826C32.547 35.3428 32.48 35.2154 32.5217 35.1623C32.533 35.148 32.6659 35.2299 32.6104 35.2826ZM8.49858 35.0416C8.44993 35.1011 8.29968 34.9461 8.42479 34.8914C8.52848 34.846 8.51197 35.0251 8.49858 35.0416ZM30.9153 34.9814C30.8485 35.0254 30.5727 34.6844 30.4421 34.7385C30.4311 34.6193 30.3313 34.0914 30.4854 34.0475C30.5364 34.033 31.0773 34.8745 30.9155 34.9814H30.9153ZM32.2832 34.7407C32.1239 34.9412 32.13 34.2959 32.2692 34.529C32.2875 34.5596 32.2933 34.7278 32.2832 34.7407ZM33.7699 34.1981C33.6906 34.2938 33.6906 33.9822 33.7699 34.0779C33.7737 34.0826 33.7737 34.1934 33.7699 34.1981ZM32.9374 33.6863C33.004 33.7161 32.9091 33.8691 32.8485 33.8064C32.8212 33.7781 32.8719 33.657 32.9374 33.6863ZM34.1864 33.5051C34.1761 33.4917 34.1806 33.1894 34.1913 33.1641C34.249 33.0281 34.4878 33.2628 34.482 33.3061C34.4778 33.3371 34.1979 33.5201 34.1864 33.5051ZM33.7699 33.234C33.6912 33.3141 33.6912 33.064 33.7699 33.144C33.773 33.1472 33.773 33.2308 33.7699 33.234ZM35.8509 32.8724C35.8146 32.9302 35.7397 32.7759 35.7621 32.7522C35.7952 32.7177 35.8865 32.8157 35.8509 32.8724ZM35.7321 32.6614C35.7101 32.6829 35.6095 32.6569 35.6135 32.5868C35.6192 32.4864 35.7721 32.6226 35.7321 32.6614ZM35.7471 32.0893V32.0592L35.762 32.0743L35.7471 32.0893ZM3.73299 31.3267C3.74905 31.3166 3.74697 31.2291 3.78744 31.2156C4.08869 31.1149 3.70145 31.6871 3.47443 31.5468C3.49214 31.4073 3.64239 31.384 3.73299 31.3267ZM4.57397 31.4263C4.49527 31.5064 4.49527 31.2563 4.57397 31.3363C4.57709 31.3395 4.57709 31.4231 4.57397 31.4263ZM34.9888 28.9257C34.9713 28.9429 34.7508 28.846 34.7422 28.836C34.5748 28.6443 35.105 28.8127 34.9888 28.9257ZM2.43039 28.772C2.32774 28.838 2.16558 28.6479 2.37073 28.6092C2.507 28.5834 2.46222 28.7515 2.43039 28.772ZM2.99838 28.3235C3.07975 28.3983 2.83369 28.5363 2.7309 28.4738C2.63048 28.4127 2.95137 28.2802 2.99838 28.3235ZM36.2007 27.3065C36.2166 27.3205 36.2 27.4013 36.2364 27.4354C36.2624 27.4597 36.513 27.4992 36.4166 27.5555C36.252 27.6519 36.0626 27.3953 36.0097 27.3571C35.9567 27.319 35.7603 27.2248 35.7373 27.2025C35.7181 27.1839 35.7419 27.0991 35.7324 27.088C35.7245 27.079 35.4802 27.0885 35.6137 26.9676C35.6574 26.9279 36.1421 27.2546 36.2008 27.3065H36.2007ZM35.1378 27.2687C35.093 27.2953 34.8234 27.2905 34.9008 27.18C34.9454 27.1164 35.2532 27.2001 35.1378 27.2687ZM36.682 27.2661C36.6065 27.2424 36.2142 26.8811 36.3304 26.8206C36.5109 26.7265 36.546 26.938 36.5869 26.9686C36.6526 27.0178 37.1061 27.2884 36.8161 27.2703C36.7214 27.2644 36.6769 27.1521 36.682 27.2659V27.2661ZM37.5075 24.3059C37.3935 24.2958 36.8922 24.2309 37.0702 24.0454C37.0866 24.0283 37.2028 24.0877 37.256 24.0707C37.3458 24.0421 37.3926 23.9564 37.5039 23.9521C37.5942 23.9486 37.5644 24.0145 37.6189 24.0176C37.7089 24.0228 38.1637 23.9074 37.9496 24.1687C37.8664 24.2701 37.5805 24.216 37.5076 24.3059H37.5075ZM37.3965 23.1104C37.2553 23.1089 37.3678 22.9411 37.4564 23.0213C37.4604 23.0249 37.4018 23.1104 37.3965 23.1104ZM35.9105 21.8457C35.8986 21.8548 35.6558 21.8514 35.6135 21.8311C35.6468 21.7423 36.0189 21.7622 35.9105 21.8457ZM35.6671 21.4596C35.8407 21.7745 35.3599 21.6969 35.3753 21.3797C35.4109 21.3188 35.6598 21.4462 35.6671 21.4596ZM36.0293 20.4301C36.0704 20.4668 35.9454 20.5789 35.9109 20.4746C35.8874 20.4034 36.0246 20.4259 36.0293 20.4301ZM35.7618 20.3394C35.7571 20.3436 35.6199 20.3662 35.6434 20.2949C35.6778 20.1906 35.8029 20.3026 35.7618 20.3394ZM35.2266 18.1702C35.1989 18.1884 35.1409 18.1481 35.1376 18.1105C35.1874 18.083 35.2772 18.1368 35.2266 18.1702ZM2.28519 17.7483C2.23193 17.7036 2.44616 17.5659 2.46327 17.6737C2.47651 17.7575 2.30453 17.7645 2.28519 17.7483ZM2.01711 16.5432C1.93142 16.6395 1.82684 16.4226 1.94347 16.3929C2.01444 16.3748 2.03645 16.5214 2.01711 16.5432ZM2.10682 16.3325C2.06011 16.2851 2.19965 16.2051 2.19504 16.2875C2.19385 16.308 2.12408 16.3501 2.10682 16.3325ZM2.28475 15.5188C2.27939 15.5225 2.19995 15.5219 2.19593 15.5188C2.14312 15.4798 2.33786 15.4836 2.28475 15.5188ZM36.0263 11.9977C36.0586 12.0204 36.1085 12.3349 35.9268 12.2672C35.9127 12.2619 35.7785 12.0185 35.792 11.9942C35.7978 11.9839 36.0167 11.9909 36.0263 11.9977ZM35.7321 12.1748C35.6992 12.2119 35.5725 12.1389 35.6135 12.0545C35.6546 11.9701 35.7955 12.1032 35.7321 12.1748ZM3.08749 10.5182C3.01013 10.6305 2.30751 10.0113 3.13286 10.1256C3.60401 10.1909 3.1046 10.3178 3.08764 10.3372C3.07365 10.3532 3.10192 10.4972 3.08749 10.5182ZM3.14729 9.61393C3.09002 9.6578 2.58719 9.63066 2.77687 9.40544C2.93426 9.2185 3.20353 9.57081 3.14729 9.61393ZM2.16603 8.28819C2.10816 8.32754 1.94586 8.26814 2.01756 8.19835C2.07885 8.13865 2.19073 8.27131 2.16603 8.28819ZM5.10923 6.02884C5.06296 6.07391 4.93071 5.93703 4.99066 5.87853C5.03693 5.83346 5.16918 5.97034 5.10923 6.02884ZM35.197 5.93838C35.1543 5.93039 34.9338 5.95678 34.9298 5.92376C34.9238 5.87431 35.2126 5.77406 35.197 5.93838ZM7.72559 4.61265H7.66652V4.58325H7.72559V4.61265ZM32.4022 3.98008C32.3655 3.973 32.2651 4.01279 32.2838 3.93561C32.2981 3.87682 32.424 3.89144 32.4022 3.98008ZM31.7481 3.49842C31.6203 3.51561 31.6889 3.10661 31.7779 3.22736C31.7988 3.25586 31.7294 3.44038 31.7481 3.49842ZM7.72559 2.98586C7.72083 2.99008 7.58366 3.01269 7.60717 2.94138C7.64153 2.83706 7.76665 2.94907 7.72559 2.98586ZM8.38031 2.98601C8.33806 2.95661 8.17322 2.50148 8.30682 2.44419C8.46347 2.37696 8.54097 3.09756 8.38031 2.98601ZM11.1743 2.56404C11.1041 2.63791 10.9967 2.49123 11.0557 2.41374C11.088 2.37153 11.2167 2.51942 11.1743 2.56404ZM12.8986 2.50389C12.7177 2.50947 12.7601 2.09686 12.8545 2.14283C12.8894 2.15987 12.9061 2.44827 12.8986 2.50389Z" fill="#2C8C3E"/>
<path d="M17.9619 28.4171V21.4147H11V18.4195H17.9619V11.4171H21.0381V18.4195H28V21.4147H21.0381V28.4171H17.9619Z" fill="white"/>
</svg>
