<svg xmlns="http://www.w3.org/2000/svg" width="40" height="39" fill="none" viewBox="0 0 40 39"><path fill="#003712" d="M12.4 37.1c0 .2.4 0 .4 0v-.4h.2v.5s-.3.1 0 .3c.4.2.2-.2.4-.2s0 .2.2.2c0 0 .3-.7.5-.5.1.1-.4.8-.2.8l.5-.4v-.2l.3.2c.3 0 .1-1 .2-1q.2-.2.3.2l-.1.5.1.2v.2l.4-.2.3-1.1c.3-.1 0 0 0 .1l.2.2s.1.4.3.2c0 0 0-.5.3-.5v1.1q.3 0 .3-.4.2.1.1.2h.2l.2-.1.4-.2h.5l-.1.5v.2q-.1.1 0 .2l.2-.3h.2v-.1l.2-.1.2-.4.4-.2v.7q.2.2.5 0v-.7l.2.2h.4l.2.2c.3-.1-.3-.6 0-.8v.3h.2l.2.1h.1c.4 0 0 .3 0 .5v.5q-.3.2 0 .4v-.3h.2l.2-.5.4.2V37h.1l.1-.4.2-.1v-.3h.4v.2l.2.3v.6h.1l.1.3.2-.3.3-.4c.1-.2-.2-.9 0-.9l.1.8c.2.1.4-.6.5-.6v1.2l.1.3q.1.2.4.3l-.1-1.5q.3.2.4 0c.2 0-.2.4.1.4l.2-.2.3-.2q0-.4.3-.2c.2.1 0 .2.3.2s.2-.5.5-.4-.1.7.1.8q.3 0 .2-.2l.4-.4.2-.2h.2c.2 0 .1-.7.3-.7l.2.2v-.3h.3l.1-.2v.1l.6.4h.2l.2.1h.2v.1h.2l.2.4h.1l.2.4.6.5.2-.1v-.1l-.7-1-.3-.1v-.2q-.1-.1 0-.4v.2l.3.2.3.5.3-.1v.1l.2-.2.4.5h.1v.2h.3V36s-.3-.3 0-.2c.1.1.6 1 1 1.1s0-.5-.1-.6h-.2l.2-.1c.3-.2 0-.2 0-.3q.1-.5-.2-.7l-.2-1q-.1-.2 0-.4l.4.5.3.2v.2l.4.2c.2-.1-.1-.4 0-.5v-.6h.3l.1-.4q.3.1.3.3h.1v.3h.2v.2q.2.3.3-.3l-.2-.1-.1-.5-.3-.3-.1-.2-.4-.3.2-.2q-.1-.1.2-.1s1 .8 1 1l.3.1h.1v-.1c.3 0 .8.5.9.3l-.4-.6.1-.3-.4-.5-.4-.8q.1-.1.2 0c0-.3-.5-.4-.5-.5q.1-.3.2-.2v-.1c.1-.1.5-.3.4-.4h-.5l-.5-.1v-.2l-.2-.6h.3v-.1l.1-.1q0-.3-.2-.2v-.2q-.2-.4-.4-.4c0-.1.8 0 .8-.2v-.4q.3.1.2.2h.3v.2h.5l.2-.2c.1 0 .6-.2.6-.4v-.2l-.4-.6v-.2h-.4v-.3h-.2l.4-.1c.2 0 .4.5.6.5.4-.1-.1-.4-.1-.5l.2-.3-.2-.2v-.1l-.1-.1V25h1l.3-.2q.5.1.6-.2c0-.4-1 0-.6-.5-.2-.1 0-.5-.3-.3-.1-.1-.7-.1-.6-.3l.2-.1V23h-.3l.1-.1h-.1v-.2s-.5 0-.6-.2l.4-.2.2.2.2-.2h.9l.3-.2h-.3l-.4-.2c-.3 0-1.8 0-1.9-.2v-.3l-.1-.2-.4-.3c0-.3.2 0 .4-.2v-.1h.4l.4.4v.2h.2c.2 0-.2-.4.2-.4.3 0 0 0 .2.1h.4l.2.2v-.2l.2.2.1-.1.3-.1q-.1-.1-.4 0l-.2-.3H38l-1-.3-.3-.2-.2-.3-.3-.1-.1-.3h-.4l.2-.1c.2-.1-.1-.3-.1-.4l.1-.5-.3-.3.3-.2v-.2.1l.4.3v.2c.2.2.4-.2.4-.2l.6.8a.1.1 0 0 0 .2 0l-.1-.5-.2-.1-.2-.5-.4-.2v-.3c-.1-.2-.8-.6-.2-.6h.6v-.2q-.2-.1-.4 0l-.3-.4-.2-.1.4.1h.3s0 .3.4 0c.2-.1-.2-.2-.2-.2l-.1-.1-.5-.2q-.5.1-.7-.4V15h.3c.1 0 .7-.1.5-.3h-.4c-.3-.1.1-.2.1-.2.4-.2.2-.4.3-.6s.3.1.4-.2q0-.3-.4-.2c-.4 0 0-.3 0-.4l.2-.2h.1v.1l.1-.3h-.1v-.2l-.1.2c0 .1-.9.2-1 0q.2 0 .2-.2l.2.3q.2-.1.2-.4l.1-.1V12c-.2-.4.2-.2.2-.3v-.4c0-.2-1.2.2-1.2-.2l.1-.4.4-.3.3-.1V10l.4-.3c0-.4-.6 0-.6 0q-.3-.2-.2-.3h-.3V9h.2v-.5s.3-.4 0-.4l-.4.1c-.2 0 .3-.5.3-.6l.2-.4h.1L36 7h.3l-.1-.3-.9.3H35v.2h-.6l.2-.3v-.6h.3c.3 0 0-.2 0-.3l.3-.1q-.1-.3-.5-.2l-.9-.1h-.2v-.3q-.1-.2-.4-.3l-.2-.2V3.4l-.3.2h-.4V3H32q0-.2-.4-.2l-.2.1s0-.5-.2-.4l-.3.7c-.3.2-.2-.3-.3-.3H30l-.2-.4q-.1.2-.3.2c-.2-.1.1-.6-.1-.6-.4 0-.2.7-.3.9-.2.3-.4-.2-.4-.5l.3-.3v-.4s.5-.6.3-.7c-.1 0-.6.3-.7.5l-.3.5H28c-.2 0-.4.4-.6.3 0 0 0-.4-.5-.3l-.3.2c-.2 0-.1-.5-.1-.6l-.4-.3c-.2 0 .1.6 0 .8l-.5-.2c-.2-.1.1-.4 0-.6 0-.5-.3-.2-.4 0 0 .1 0 .8-.2.7l-.2-.2-.3.2-.2-.2-.2.2c-.2 0-.1-.3-.5 0l-.5-.6-.3.4c-.2 0 0-.5-.2-.5l-.3.5-.6.2-.2.1s0-.5-.2-.6l-.3.5c-.3.2-.3-.2-.3-.2-.2-.2-.4.2-.5.2s-.2-.7-.4-.6 0 .9-.1.8 0-.4 0-.4h-.5q0-.3-.2-.4l-.1.1h-.2l-.1.4c-.3-.2.2-.6.3-.8 0-.4-.4-.1-.5 0l-.6 1h-.3v-.4l-.2-.3-.1-.2q-.3.1-.4.4l-.5.4c-.3 0-.1-.2-.5-.3l-.4.1.1-.5V1c0-.2-.4.3-.5.3 0-.2 0-1-.2-1h-.3s-.2-.4-.3 0V1q.3 0 .2.4l-.2-.1q-.3-.1-.4 0h-.1c-.5-.2.2.7-.1.8l-.1-.2h-.1v-.4l-.2-.6-.2.1V.6l-.4-.1c-.4 0 0 .8 0 1l-.1.2-.2.6-.6-.4c-.5.4-.4 0-.6 0q-.3-.1-.3.2l-.3-.4-.8-.6c-.5 0 0 .5 0 .6q.2.1-.2 0l-.3.1c-.3.3.2.6.1.6h-.2v-.3l-.4-.3h-.2c-.2 0-.7-.4-.8-.2s.7.8.6.8H8l-.2.2c-.1 0-.5-.5-.8-.2l.2.2q.2.3-.1.5v.7L7 4v.3l-.7-.6c-.4-.1.2.8.2.8l-.2.4q.1.5 0 .8l-.2-.1H6l-.5-.4c-.1 0-.4-.6-.5-.5-.4.1.2.7.2.8l-.5-.2-.2.1q-.1-.2-.4 0l.2.4.4.4.2.5H5c0 .3-.6.4-.7.3L4 6.6c0-.2 0-.8-.2-.7-.2 0 0 1-.2 1-.1 0-.2-.6-.4-.6-.3-.1-.1.2-.3.2 0 0-.4-.4-.6-.3s1 1.1 1 1.3l.2.4c-.2.1-.2-.3-.2-.3h-.5l.1.5-1-.3h-.7c-.1.2.6.4.6.5s-.3 0-.1.1c0 .1.9.1.8.3H1.4q-.1.2.4.5h.7c-.2 0-.1.5-.3.6H2c-.1 0-.7.4-.7.6h.3l.2-.1h.5c.1 0 .2.5.4.6v.1h-1l-.4-.4v-.1l-.5-.2.1.3.4.6h.2v.1h.3l.1.2h.6q0-.2.3-.2c.2.2-.2.3-.2.3-.1.2.6.3.5.6v.1l-.1.2h-.4v.1l-.3.4v.2h-.7l-.5.4.9.1v.4l.2.1c.4.4-.4.1-.5.1-.3.1 0 .3 0 .3.2.3-.5.3-.7.3l-.1.2H.6l-.1.2s-.5 0-.5.3h.7l.1-.2h.8v.3l.5.2q-.2.4-.5.4v.4h-.2v.2L1 17q.2.3.6.3v.3s.5.2.4.3-.4 0-.2.3h.1v.4q.2 0 .3.3l-.1.3q0 .3.1.2c0 .1-.7.6-.3.6H2c.1 0-.3.2 0 .4l.2.1-.2.3h-.5s.6.5.4.6-.7 0-.8.2c-.1.4.5.1.5.3h-.3q.2.3 0 .4h-.2q-.2-.4-.3-.1l.4.6-.1.4.5.4v1l.4.2h.2l.1.1-.4.1c-.1 0-.7-.6-.7-.2l.2.4-.4.2v.2h.8l.1.2h.3v.7l-.1.3.7.2.1.2h.4l-.4.3c-.2 0-.7-.1-.6.2l.1.1-.3.5v.5q.5-.2.3.4v.2h-.2L2 30l.3-.1.3-.1.5-.4v.4l.2.1-.3.7c0 .4.7-.1.7.2l-.4.4v.6l-.5.1q.2.2.5.1l.1.1h.7l.1.3c.2 0 .5-.5.5-.5.3 0 0 .3 0 .3q-.1.4.2.4v.3l.4-.4h.2v-.2c.3.2 0 .4 0 .6v.2l-.1.5.4-.2V33l.2-.3.1.1s.3-.2.1.2v.3l-.4.3.3.4h.7v.3c0 .1.5 0 .5.2l-.5.2v.1l-.4.2.2.1h.6q.4-.4 1-.3l.1.2.1.1v.1h.2q0 .2.2.1 0-.2.1-.1v.5H9v.4l.5-.1.3.4c.2 0 0-.5 0-.6v-.4l.1.7h.2v.5h.2l.1.2q.5 0 .3-.4V36l.5.2-.3.9v.4h-.1v.3l.2-.2h.2v-.4l.2-.1v-.4h.1l.1-.3h.3v-.3 1.1l.2.7q.1.2.3.2-.1.1 0 .2l.2-.3-.2-.3zm0-.2v.1m11.2 0h-.1m-10.1-.4v.3zm12-.2c0 .1-.4-.3-.2-.4h.3zm7.4-.7c-.1-.5.3.2.3.3 0 .2-.1-.1-.1-.1zm-.6 0v-.2zm.4-.3v-.1M8.5 35q-.1.1 0-.1zm22.4 0-.5-.3V34c.1 0 .7.9.5 1m1.4-.3c-.2.2-.2-.4 0-.2zm1.5-.5q-.1-.1 0-.1zm-.9-.5v.1zm1.3-.2v-.3q.1-.2.3.1zm-.4-.3q-.1 0 0 0m2-.4-.2-.1h.1m-32-1.3c.4-.2 0 .4-.2.2zm.9.1q-.1 0 0 0M35 29h-.3c-.1-.3.4 0 .3 0m-32.6-.1q-.2-.1 0-.2zm.6-.5-.3.2zm33.2-1v.1q.2 0 .2.2l-.4-.2-.3-.2v-.1q-.2 0 0-.1zm-1 0-.3-.1zm1.6 0s-.5-.3-.4-.4q.2 0 .3.2s.5.3.2.3h-.1m.8-3c-.1 0-.6 0-.4-.3h.5c.1 0 .6 0 .3.2zm-.1-1.2q0-.1 0 0M36 22h-.3zm-.2-.3c.1.3-.3.2-.3-.1zm.3-1q0 .1 0 0m-.2 0-.2-.1h.2M2.2 17.7h.3zM2 16.5q-.1.1 0-.1zm.1-.2h.1M36 12v.3l-.2-.3zM3.1 10.6c0 .1-.8-.5 0-.4.5 0 0 .2 0 .2zm0-.9s-.5 0-.3-.2c.1-.2.4.2.3.2m-1-1.3q-.1 0 0-.1m33.1-2.2h-.3q.1-.2.3 0M32.4 4h-.1q0-.1.1 0m-.7-.5v-.3zM7.7 3q0-.2 0 0m.7 0s-.2-.5 0-.6zm2.8-.4q-.2 0-.1-.2zm1.8-.1q-.2-.2 0-.4z"/><path fill="#fff" d="M18 28.4v-7h-7v-3h7v-7h3v7h7v3h-7v7z"/></svg>