<svg xmlns="http://www.w3.org/2000/svg" fill="none" viewBox="0 0 122 39"><path fill="#2c8c3e" d="m90 36-1 1zh-1v1-1h-1l-1 1v-1q0 1 0 0v2h-1v-2 1-1 1h-1v-1h-1v1l-1 1v-2q0 1 0 0v1h-1v-1 1h-1v-1 1h-1v1-1h-1l-1-1v1-1l-1 1v-1 1h-1v1-1h-1q1 0 0 0 0 1 0 0h-1v1-2h-1v2-2l-1 1v-2 1h-2q1 0 0 0v-1 2l-1-1h-1l-1 1v-1h-1l1 1h-1v-1h-1q0 1 0 0l-1 1v-1l-1 1v-1h-1v1-1h-1v1-1h-1v1l-1-1 1 1h-1v-1h-1v1l-1-1v1l-1-1v1q0 1 0 0v1h-1q0 1 0 0v-1h-1v1h-1v-2h-1v1h1-1v-1l-1 1q-1 0 0 0h-1v-1 1h-1v-1h-1v1-1h-1l-1 1v-1q0 1 0 0v2h-1v-2 1-1 1h-1v1-2h-1v1l-1 1v-2 1-1 1h-1q0-1 0 0h-2v1-1h-1v-1l-1 1v-1 1h-1v-1 1h-1v1-1h-1q0 1 0 0h-1v1h1-1v-2q0 1 0 0l-1 1v1-2 1h-1v-1h-1v1q1 0 0 0l-1-1h-1l-1 1v-1 1h-1v-1h-1v1-1q0 1 0 0l-1 1q0-1 0 0h-1v-1h-1v1-1 1l-1-1v1-1 1h-1l-1-1 1 1h-1v-1h-1v1l-1-1v1h-1v1-1 1h-1q0 1 0 0v-2h-1v2-1h-1v-1l-1 1v-1l-1 1q-1 0 0 0H9v-1 1H8v-1H7v-2l-1 1v-2H5v1-1H4l1-1H4v1-1H2l1-1 1-1-1 1v-1l-1 1H1l1-1h1-2l1-1h1-1l-1-1h1l1-1H2l-1 1v-1h2q-1 0 0 0v-1l-1-1H1h1v-1q1 0 0 0l-1-1H0h2v-1H1v-1h1v-4 1-1H1l1-1H1h1-1v-1h1v-2 1-1H1h1-1 1v-2h1-1l1-1H2V9h1-1V8v1h1V8h1L3 7V6h1l1 1V6q0-1 0 0h1V5H5h1v1-1q0 1 0 0V4h1V3H6h1l1 1V3h1V2h1v1-1h1q0-1 0 0V1q0-1 0 0v1h1V0h1v2-1h1q0 1 0 0h1q-1 0 0 0v1-1h1v1h1V1v1-1h1v1-1h1v1h1V1v1h1V1v1-1q0-1 0 0V0v1h1v1h1q-1 0 0 0V1h1v1l1-1V0v2h2q0-1 0 0h2q0 1 0 0h1V1l1 1 1-1v1h-1 2V1v1l1-1q0 1 0 0 1 0 0 0V0h1v1h1l-1 1h2V1v1h1V1h1v1h1q0-1 0 0h2l1-1v1h2V1h1v1-1l1 1q-1 0 0 0h2V1v2-1h1v1-1h1V1v1h1q0 1 0 0V0h1l-1 1h1v1-1h1q0 1 0 0h1v1-1h1v1h1V1v1-1l1 1V1h1v1h1V1v1h1q0-1 0 0V1q0-1 0 0 0-1 0 0h1q0 1 0 0v1h1V1h1v1q0 1 0 0V1h1V0v2h3l1 1V2q0 1 0 0h1v1-1h1V1v1-1l1 1h-1 2V1h1q-1 0 0 0v1h1V1v1-1 1-2h1v1h1-1v1h2V1v1h1V1h1v1h6l1-1v1-1 1h1v1l1-1h1V1v2-1h1v1-1h1V1v1h1V0h1l-1 1h1v1-2h1l-1 1h1v1-1h1v1-1h1v1-1h1v1-1 1h1V1v1-1 1-1h1v1-1h1v1h1V1v1-1h1v1-1q0-1 0 0h1l1 1V1l1-1v2-1h1V0v2h3v1h1V2h1V1l1 1h-1v1-1 1l1-1V1l1 1h-1v1l1-2v1h1-1v1l1-2v1q1 0 0 0v3-1h1V3v2h1V4v1h2v1h-1v2h-1v2h1v1-1h1v2h-1 1q1 0 0 0l1 1h-1 1q1 0 0 0v1q0-1 0 0h1q-1 0 0 0l-1 1v1h-1q1 0 0 0h2l-1 1h-2v1l1-1q1 0 0 0h2l-1 1h-1v1h-1v1-1 2-1h1v-1l1 1h-1v1l-1 1h1-1 1v1h-1l1 1h-1 1v1q-1 0 0 0v1h-1q1 0 0 0l1 1h-2l1 1 1 1h-1v1h-1l1 1v1l-1-1v2h-2v2h-1v1h-1v-1 1h-2v-1 2q1 0 0 0l-1-1v1l-1-1-1 1v-1 1h-1v-1h-1l1 1h-1v-1h-1v1q0-1 0 0h-1q0-1 0 0h-1v-1h-1v1-1h-1v1-1h-1l1 1h-2 1-1l-1-1v1l-1-1v1q1 0 0 0h1-1v1h-1v-1 1h-1q0 1 0 0v-1 1-1h-1v1-1h-1v-1 1-1 1h-1 1-1q-1 0 0 0 0-1 0 0h-1q-1 0 0 0zm27-4q0 1 0 0M3 28q-1 0 0 0m115-2q1 0 0 0m0-10q0 2 0 0m1-5q0 1 0 0M2 10q0-1 0 0 1 0 0 0m115-1q-1 1 0 0m-3-5q0-1 0 0M8 3q2 0 0 0m96-2"/></svg>