<svg xmlns="http://www.w3.org/2000/svg" width="154" height="21" fill="none" viewBox="0 0 154 21"><g clip-path="url(#a)"><path fill="#003712" d="M0 5.268V.697h9.198c2.23 0 4.348-.084 6.354-.697l1.17 4.487c-1.894.613-3.455.78-6.02.78v14.94H5.547V5.267zm21.621.334c4.515 0 7.693 2.982 7.693 7.47 0 4.46-3.178 7.441-7.693 7.441s-7.665-2.982-7.665-7.441c0-4.488 3.15-7.47 7.665-7.47m-2.62 7.47c0 2.23 1.226 3.205 2.62 3.205 1.422 0 2.648-.976 2.648-3.205 0-2.258-1.226-3.233-2.648-3.233-1.393 0-2.62.975-2.62 3.233M44.5 20.207h-4.88v-2.174c-.669 1.366-2.202 2.48-4.376 2.48-2.452 0-4.821-1.56-4.821-5.63v-9.03h5.016v7.052c0 2.034.418 3.065 1.84 3.065 1.56 0 2.202-1.31 2.202-3.065V5.853h5.017zm11.67-9.086c-.557-.892-1.616-1.31-2.564-1.31-1.45 0-2.704.975-2.704 3.01 0 2.09 1.394 3.205 2.927 3.205 1.45 0 2.48-.864 2.48-2.536h4.739c0 4.599-3.54 7.023-7.442 7.023-3.986 0-7.72-2.508-7.72-7.553 0-4.877 3.344-7.358 7.413-7.358 2.62 0 4.99 1.004 6.327 2.732zM62.168.697h5.017v7.19c.752-1.532 2.368-2.285 4.04-2.285 2.454 0 4.99 1.589 4.99 4.878v9.727h-5.017v-7.804c0-1.673-.92-2.258-1.923-2.258-1.031 0-2.09.753-2.09 2.258v7.804h-5.017zm34.69 19.51h-2.816l-.975-2.174c-1.56 1.644-3.763 2.48-5.992 2.48-4.544 0-9.338-3.484-9.338-10.089C77.738 3.958 82.587.39 87.8.39c3.177 0 6.271 1.338 8.055 4.07l-4.041 2.982c-.864-1.589-2.397-2.453-4.125-2.453-2.453 0-4.71 1.756-4.71 5.324 0 3.846 2.591 5.574 5.072 5.574 1.756 0 3.261-.836 4.014-2.258-2.76-.028-4.32-.167-5.965-.697l1.031-3.54c2.174.558 4.46.586 6.8.586h2.927zm2.219-14.354h4.849v2.508c.641-1.728 1.895-2.703 3.902-2.703h1.087v4.794h-1.588c-2.425 0-3.234 1.477-3.234 3.233v6.522h-5.016zm24.396 14.354h-4.877V18.59c-1.394 1.227-2.899 1.923-4.683 1.923-2.787 0-4.989-1.672-4.989-4.626 0-2.843 1.951-4.265 4.878-4.265 1.644 0 3.539.418 4.71.948v-1.198c0-1.06-.92-1.645-1.84-1.645-1.087 0-1.756.474-2.146 1.31l-4.487-1.616c.975-2.23 3.066-3.819 6.773-3.819 3.874 0 6.661 1.84 6.661 5.686zm-10.48-5.407c0 1.282.725 1.95 2.202 1.95 1.199 0 2.258-.5 3.15-1.95zm21.097-3.902c0-1.17-1.004-1.84-2.453-1.84-1.198 0-1.923.474-1.923 1.227 0 .892 1.087 1.114 2.508 1.393l2.063.39c2.23.418 4.403 1.227 4.403 3.93 0 3.205-3.065 4.515-6.8 4.515-2.704 0-5.407-.696-7.052-1.811l1.645-3.651c2.285 1.505 4.32 1.7 5.602 1.7 1.031 0 1.895-.14 1.895-.67 0-.445-.613-.584-1.533-.752l-2.202-.418c-2.452-.474-5.239-1.338-5.239-4.57 0-2.927 2.313-4.739 6.354-4.739 3.847 0 7.442 1.756 7.442 5.296zm14.712 0c0-1.17-1.004-1.84-2.453-1.84-1.198 0-1.923.474-1.923 1.227 0 .892 1.087 1.114 2.508 1.393l2.063.39c2.23.418 4.403 1.227 4.403 3.93 0 3.205-3.065 4.515-6.8 4.515-2.704 0-5.407-.696-7.052-1.811l1.645-3.651c2.285 1.505 4.32 1.7 5.602 1.7 1.031 0 1.895-.14 1.895-.67 0-.445-.613-.584-1.533-.752l-2.202-.418c-2.452-.474-5.239-1.338-5.239-4.57 0-2.927 2.313-4.739 6.354-4.739 3.847 0 7.442 1.756 7.442 5.296z"/></g><defs><clipPath id="a"><path fill="#fff" d="M0 0h154v21H0z"/></clipPath></defs></svg>