<svg width="13" height="13" viewBox="0 0 13 13" fill="none" xmlns="http://www.w3.org/2000/svg">
<path d="M8.42743 11.0619V10.0084C8.42743 9.44965 8.20545 8.91374 7.81032 8.51862C7.4152 8.1235 6.8793 7.90152 6.32051 7.90152H3.16014C2.60135 7.90152 2.06545 8.1235 1.67032 8.51862C1.2752 8.91374 1.05322 9.44965 1.05322 10.0084V11.0619" stroke="#003712" stroke-width="1.05346" stroke-linecap="round" stroke-linejoin="round"/>
<path d="M8.42773 1.64783C8.87954 1.76496 9.27966 2.02879 9.5653 2.39792C9.85094 2.76705 10.0059 3.22058 10.0059 3.68732C10.0059 4.15406 9.85094 4.60759 9.5653 4.97672C9.27966 5.34585 8.87954 5.60969 8.42773 5.72682" stroke="#003712" stroke-width="1.05346" stroke-linecap="round" stroke-linejoin="round"/>
<path d="M11.588 11.0617V10.0082C11.5877 9.5414 11.4323 9.08791 11.1463 8.71896C10.8603 8.35001 10.4598 8.08649 10.0078 7.96979" stroke="#003712" stroke-width="1.05346" stroke-linecap="round" stroke-linejoin="round"/>
<path d="M4.74022 5.79427C5.90383 5.79427 6.84713 4.85098 6.84713 3.68736C6.84713 2.52374 5.90383 1.58044 4.74022 1.58044C3.5766 1.58044 2.6333 2.52374 2.6333 3.68736C2.6333 4.85098 3.5766 5.79427 4.74022 5.79427Z" stroke="#003712" stroke-width="1.05346" stroke-linecap="round" stroke-linejoin="round"/>
</svg>
