<svg xmlns="http://www.w3.org/2000/svg" width="46" height="46" fill="none" viewBox="0 0 46 46"><mask id="a" fill="#fff"><path d="M0 23C0 10.298 10.298 0 23 0s23 10.298 23 23-10.297 23-23 23S0 35.703 0 23"/></mask><path fill="#4d4d4d" fill-opacity=".1" d="M0 23C0 10.298 10.298 0 23 0s23 10.298 23 23-10.297 23-23 23S0 35.703 0 23"/><path fill="#4d4d4d" fill-opacity=".2" d="M23 46v-1C10.85 45 1 35.15 1 23h-2c0 13.255 10.745 24 24 24zm23-23h-1c0 12.15-9.85 22-22 22v2c13.255 0 24-10.745 24-24zM23 0v1c12.15 0 22 9.85 22 22h2C47 9.745 36.255-1 23-1zm0 0v-1C9.745-1-1 9.745-1 23h2C1 10.85 10.85 1 23 1z" mask="url(#a)"/><path fill="#4d4d4d" d="M28 18.833a5.87 5.87 0 0 0-1.194-3.55 5.77 5.77 0 0 0-3.088-2.084 5.72 5.72 0 0 0-3.705.245 5.8 5.8 0 0 0-2.792 2.473 1.68 1.68 0 0 0-.165 1.264c.114.427.39.791.77 1.012.378.22.829.28 1.252.166a1.65 1.65 0 0 0 1.002-.776 2.47 2.47 0 0 1 2.144-1.25c.656 0 1.286.264 1.75.733s.725 1.104.725 1.767-.26 1.3-.725 1.768a2.46 2.46 0 0 1-1.75.732h-.005q-.159.017-.312.065a1.7 1.7 0 0 0-.328.068q-.136.075-.256.174a1.7 1.7 0 0 0-.268.183 1.7 1.7 0 0 0-.193.29 1.6 1.6 0 0 0-.16.24q-.054.173-.07.353a1.6 1.6 0 0 0-.059.294v1.667l.004.019.002.818c0 .441.175.864.485 1.176.309.311.728.487 1.165.487h.004a1.64 1.64 0 0 0 1.166-.491c.309-.314.482-.738.48-1.18l-.002-1.102a5.77 5.77 0 0 0 2.973-2.092A5.86 5.86 0 0 0 28 18.833M21.064 30.15a1.67 1.67 0 0 0-.365 1.815A1.65 1.65 0 0 0 22.219 33a1.7 1.7 0 0 0 1.172-.483 1.7 1.7 0 0 0 0-2.367 1.7 1.7 0 0 0-2.327 0"/></svg>