<svg xmlns="http://www.w3.org/2000/svg" width="14" height="14" fill="none" viewBox="0 0 14 14"><path stroke="#4d4d4d" stroke-linecap="round" stroke-linejoin="round" stroke-width="1.122" d="M10.656 3.926V2.244a.56.56 0 0 0-.56-.56H2.803a1.122 1.122 0 1 0 0 2.242h8.413a.56.56 0 0 1 .56.561v2.244m0 0h-1.682a1.122 1.122 0 1 0 0 2.243h1.683a.56.56 0 0 0 .56-.56V7.291a.56.56 0 0 0-.56-.561"/><path stroke="#4d4d4d" stroke-linecap="round" stroke-linejoin="round" stroke-width="1.122" d="M1.683 2.804v7.852a1.12 1.12 0 0 0 1.121 1.122h8.413a.56.56 0 0 0 .56-.561V8.973"/></svg>